<svg width="76" height="41" viewBox="0 0 76 41" fill="none" xmlns="http://www.w3.org/2000/svg">
<path d="M75.7795 30.5321H23.8984V40.0938H75.7795V30.5321Z" fill="#0079C2"/>
<path d="M20.4251 13.5655C20.3957 14.9855 20.2374 16.4842 20.0359 17.3806C20.1084 15.8362 19.9358 13.6574 19.6043 11.9578C19.2731 10.2578 18.3374 7.41583 17.5892 6.10247C16.8985 7.35356 16.0485 9.81073 15.6029 11.9422C15.1554 14.0754 15.1419 16.6542 15.1419 17.4282C15.024 16.7756 14.7261 14.4509 14.8108 12.1121C14.88 10.1837 15.3003 8.20359 15.531 7.29193C16.4082 4.24818 17.4024 2.30259 17.5892 1.99349C17.7761 2.30259 19.0281 4.69749 19.6767 7.21531C20.3232 9.73313 20.4531 12.144 20.4251 13.5655V13.5655ZM17.6035 24.437C17.2149 23.6492 16.6104 22.1524 16.5526 19.8376C16.5379 17.5979 17.3732 15.6811 17.6174 15.2805C17.8342 15.6811 18.5533 17.3504 18.639 19.6366C18.6976 21.8745 18.0065 23.6339 17.6035 24.437ZM20.6553 7.24596C19.8633 3.5227 17.8775 0.494923 17.6035 0.000293082C17.1719 0.695449 15.5876 3.36782 14.7823 6.33495C13.9033 9.64118 13.7745 12.5754 14.0776 15.465C14.379 18.3552 15.5165 21.32 15.5165 21.32C16.1211 22.8773 17.0274 24.5438 17.6174 25.3633C18.4809 24.1584 20.468 20.5642 21.087 15.8664C21.432 13.256 21.4469 10.9699 20.6553 7.24596" fill="#0079C2"/>
<path d="M18.9528 26.2282H12.9287V30.568C12.9337 30.5618 12.9386 30.5556 12.9437 30.55C14.3632 29.0268 16.6647 29.0268 18.0844 30.55C19.5036 32.0734 19.5036 34.5443 18.0844 36.0673C18.0785 36.0742 18.0719 36.0794 18.0662 36.0859C18.0662 36.0859 18.0662 36.0868 18.0655 36.0872C18.0583 36.0947 18.051 36.1006 18.0442 36.1074C16.6291 37.6163 14.7786 38.3712 12.9287 38.3712C11.071 38.3712 9.21251 37.6109 7.79478 36.0888C5.29665 33.4076 5.00085 29.2589 6.90496 26.2282C7.16186 25.8192 7.45803 25.4299 7.79478 25.0678C9.21251 23.5468 11.071 22.7872 12.9287 22.7872V12.3567C5.78814 12.3567 0 18.5702 0 26.2282C0 33.8925 5.78814 40.1055 12.9287 40.1055C16.6516 40.1055 20.0054 38.4152 22.3647 35.7139V26.2282H18.9528" fill="#0079C2"/>
<path d="M23.8984 12.3582H28.8269V14.0784H26.4825V26.2266H23.8984V12.3582" fill="#0079C2"/>
<path d="M28.75 26.2266H31.2782L31.5182 22.541H32.7372L32.9769 26.2266H35.506L34.1579 12.3582H30.0975L28.75 26.2266ZM31.6105 21.0164L32.0537 14.0772H32.202L32.6443 21.0164H31.6105Z" fill="#0079C2"/>
<path d="M38.9044 21.3718V23.9836C38.9044 24.3403 39.1623 24.4396 39.31 24.4396C39.5508 24.4396 39.7164 24.2218 39.7164 23.9836V20.7582C39.7164 20.3222 39.6423 19.8474 38.6824 19.8474H37.6308V18.3218H38.7194C39.4576 18.3218 39.7164 18.1433 39.7164 17.2913V14.5336C39.7164 14.2961 39.5508 14.0784 39.31 14.0784C39.1623 14.0784 38.9044 14.1772 38.9044 14.5336V16.7957H36.3203V14.8345C36.3203 13.8635 36.4309 12.3582 38.2395 12.3582H40.382C42.1918 12.3582 42.3017 13.8635 42.3017 14.8345V17.0536C42.3017 18.5592 41.3233 18.9756 40.5484 18.9355V19.0748C42.2835 19.0348 42.3017 20.4612 42.3017 20.9563V23.7503C42.3017 24.7206 42.1918 26.2266 40.382 26.2266H38.2395C36.4309 26.2266 36.3203 24.7206 36.3203 23.7503V21.3718H38.9044Z" fill="#0079C2"/>
<path d="M43.6641 12.3582H49.6455V26.2266H47.0623V14.0784H46.2491V26.2266H43.6641V12.3582" fill="#0079C2"/>
<path d="M51.1562 26.2266H53.7407V21.5112H55.217C57.0262 21.5112 57.1368 20.0052 57.1368 19.0348V14.8345C57.1368 13.8635 57.0262 12.3582 55.217 12.3582H51.1562V26.2266ZM53.7407 19.9864V14.0784H54.0733C54.3503 14.0784 54.5533 14.3355 54.5533 14.7706V19.2926C54.5533 19.7284 54.3503 19.9864 54.0733 19.9864H53.7407Z" fill="#0079C2"/>
<path d="M58.3906 23.7503C58.3906 24.7206 58.5015 26.2266 60.3104 26.2266H62.4517C64.26 26.2266 64.3715 24.7206 64.3715 23.7503V14.8345C64.3715 13.8635 64.26 12.3582 62.4517 12.3582H60.3104C58.5015 12.3582 58.3906 13.8635 58.3906 14.8345V23.7503ZM61.787 23.9836C61.787 24.2218 61.6215 24.4396 61.3815 24.4396C61.2333 24.4396 60.9751 24.3403 60.9751 23.9836V14.5336C60.9751 14.1772 61.2333 14.0784 61.3815 14.0784C61.6215 14.0784 61.787 14.2961 61.787 14.5336V23.9836" fill="#0079C2"/>
<path d="M72.4221 12.3582H75.7814V26.2266H73.197V17.5294H73.105L71.776 26.2266H69.7086L68.3802 17.5294H68.2869V26.2266H65.7031V12.3582H69.0621L70.742 22.1056L72.4221 12.3582" fill="#0079C2"/>
<path d="M26.9752 37.1004H27.8239V32.4505H29.0669V37.1004H29.9153V32.4505H31.2033V38.1875H25.6875V32.4505H26.9752V37.1004" fill="white"/>
<path d="M32.0078 32.4505H35.0002V33.537H33.2955V34.6638H34.8216V35.7506H33.2955V37.1004H35.0002V38.1875H32.0078V32.4505Z" fill="white"/>
<path d="M39.6107 32.4491V38.1861H38.3231V33.5355H37.4743V35.5094C37.4743 37.6823 37.1022 38.25 36.231 38.25C35.9558 38.25 35.7623 38.1861 35.5391 38.0824V37.1151C35.5983 37.1477 35.725 37.1636 35.8516 37.1636C36.2089 37.1636 36.231 36.9318 36.231 35.1577V32.4491H39.6107" fill="white"/>
<path d="M41.7017 37.1566H41.925C42.2971 37.1566 42.5577 37.021 42.5577 36.4536C42.5577 35.8784 42.2673 35.6946 41.9475 35.6946H41.7017V37.1566ZM41.7017 34.6638H42.2822C43.0416 34.6638 43.8457 35.0235 43.8457 36.4376C43.8457 37.8997 43.0267 38.1875 42.2822 38.1875H40.4141V32.4505H41.7017V34.6638Z" fill="white"/>
<path d="M47.8201 36.5413H48.0805C48.5349 36.5413 48.7132 36.1181 48.7132 35.287C48.7132 34.4718 48.5495 34.0326 48.0954 34.0326H47.8201V36.5413ZM46.5768 34.0326H46.3089C45.8548 34.0326 45.6838 34.4718 45.6838 35.287C45.6838 36.1181 45.8697 36.5413 46.3238 36.5413H46.5768V34.0326ZM47.8201 32.4505V33.0016H48.1996C49.1822 33.0016 49.897 33.673 49.897 35.287C49.897 36.9248 49.1822 37.5726 48.1996 37.5726H47.8201V38.1875H46.5768V37.5726H46.1971C45.222 37.5726 44.5 36.9248 44.5 35.287C44.5 33.673 45.222 33.0016 46.1971 33.0016H46.5768V32.4505H47.8201" fill="white"/>
<path d="M54.0261 32.4505V38.1875H52.7382V33.537H51.8973V38.1875H50.6094V32.4505H54.0261" fill="white"/>
<path d="M56.1158 34.9195H56.3466C56.6668 34.9195 56.9721 34.7519 56.9721 34.1843C56.9721 33.6168 56.6963 33.4812 56.3245 33.4812H56.1158V34.9195ZM56.1158 38.1875H54.8281V32.4505H56.6963C57.4411 32.4505 58.2598 32.7381 58.2598 34.2002C58.2598 35.615 57.4557 35.9504 56.6963 35.9504H56.1158V38.1875" fill="white"/>
<path d="M60.233 33.8458V36.7546C60.233 37.0976 60.4562 37.2659 60.6798 37.2659C60.8958 37.2659 61.126 37.0976 61.126 36.7546V33.8458C61.126 33.5182 60.8958 33.3747 60.6798 33.3747C60.4562 33.3747 60.233 33.5182 60.233 33.8458ZM62.4143 33.9417V36.5144C62.4143 37.6575 61.8854 38.3203 60.6798 38.3203C59.4887 38.3203 58.9453 37.6575 58.9453 36.5144V33.9339C58.9453 33.0311 59.4739 32.3196 60.6871 32.3196C61.9003 32.3196 62.4143 33.0471 62.4143 33.9417" fill="white"/>
<path d="M63.1719 32.4505H66.1643V33.537H64.4595V34.6638H65.9856V35.7506H64.4595V37.1004H66.1643V38.1875H63.1719V32.4505Z" fill="white"/>
<path d="M68.0562 34.7359L68.9569 32.4505H70.3563L69.1729 34.9834L70.3563 38.1875H69.0016L68.4062 36.1898L68.0562 36.8527V38.1875H66.8281V32.4505H68.0562V34.7359" fill="white"/>
<path d="M73.0475 38.1875H71.8637V33.537H70.8516V32.4505H73.9928V33.537H73.0475V38.1875Z" fill="white"/>
</svg>
