<?xml version="1.0" standalone="no"?>
<!DOCTYPE svg PUBLIC "-//W3C//DTD SVG 1.1//EN" "http://www.w3.org/Graphics/SVG/1.1/DTD/svg11.dtd" >
<svg xmlns="http://www.w3.org/2000/svg" xmlns:xlink="http://www.w3.org/1999/xlink" version="1.1">
<metadata>
Created by FontForge 20190801 at Mon Sep  2 11:40:17 2024
 By root
Copyright (c) 2016 JSC RPA RusBITech. All rights reserved.
</metadata>
<defs>
<font id="PTAstraSerif-Italic" horiz-adv-x="1024" >
  <font-face 
    font-family="PT Astra Serif"
    font-weight="400"
    font-style="italic"
    font-stretch="normal"
    units-per-em="2048"
    panose-1="2 10 6 3 4 5 5 2 2 4"
    ascent="1638"
    descent="-410"
    x-height="893"
    cap-height="1357"
    bbox="-563 -525 2229 1939"
    underline-thickness="100"
    underline-position="-273"
    slope="-16"
    unicode-range="U+000D-FEFF"
  />
<missing-glyph horiz-adv-x="1593" 
d="M284 0v1280h1024v-1280h-1024zM316 32h960v1216h-960v-1216z" />
    <glyph glyph-name=".notdef" horiz-adv-x="1593" 
d="M284 0v1280h1024v-1280h-1024zM316 32h960v1216h-960v-1216z" />
    <glyph glyph-name=".null" horiz-adv-x="0" 
 />
    <glyph glyph-name=".null" horiz-adv-x="0" 
 />
    <glyph glyph-name="uni000D" unicode="&#xd;" horiz-adv-x="512" 
 />
    <glyph glyph-name="space" unicode=" " horiz-adv-x="512" 
 />
    <glyph glyph-name="space" unicode="&#xa0;" horiz-adv-x="512" 
 />
    <glyph glyph-name="exclam" unicode="!" horiz-adv-x="682" 
d="M300 422l11 341l122 574q46 22 91.5 22t82.5 -22l-122 -574l-133 -341h-52zM160 111q0 58 37 92.5t95 34.5q60 0 97 -34.5t37 -92.5q0 -57 -37 -91.5t-97 -34.5q-58 0 -95 34.5t-37 91.5z" />
    <glyph glyph-name="quotedbl" unicode="&#x22;" horiz-adv-x="860" 
d="M335 1381q19 32 50.5 54t74.5 22q36 0 60.5 -19t29.5 -57l-170 -420h-51zM716 1381q19 32 50.5 54t74.5 22q36 0 60.5 -19t29.5 -57l-170 -420h-51z" />
    <glyph glyph-name="numbersign" unicode="#" 
d="M590 451h-276l-153 -338h-103l153 338h-154l46 89h147l132 292h-147l46 88h141l147 324h101l-145 -324h275l146 324h101l-146 -324h155l-52 -88h-144l-131 -292h148l-51 -89h-136l-153 -338h-101zM352 540h276l132 292h-276z" />
    <glyph glyph-name="dollar" unicode="$" 
d="M368 -24q-59 0 -109.5 9t-91.5 23.5t-70.5 32t-45.5 35.5q5 19 14 50.5t20.5 65.5t23.5 65t23 48h48l76 -191q20 -16 54 -26t79 -12l118 554q-59 30 -109 62t-87 70q-45 46 -67.5 100.5t-22.5 122.5q0 84 35.5 153.5t96 120t141.5 81t172 37.5l20 95h102l-20 -95
q46 -3 83 -9.5t68 -15.5t56.5 -20t48.5 -23q-16 -63 -39.5 -103t-44.5 -71h-50l-69 132q-10 3 -17.5 4.5t-15.5 3t-18 2.5t-23 2l-111 -519l26 -14q46 -26 92.5 -55t83.5 -67t60 -88.5t23 -118.5q0 -87 -32 -161.5t-90.5 -131t-142 -93t-185.5 -48.5l-25 -118h-102zM739 359
q0 44 -12.5 79.5t-32.5 63t-45.5 47.5t-51.5 34l-106 -496q55 1 100.5 23t78.5 58.5t51 85.5t18 105zM406 1027q0 -78 36.5 -132t104.5 -91l100 473q-54 -2 -98.5 -22.5t-76 -54t-49 -78t-17.5 -95.5z" />
    <glyph glyph-name="percent" unicode="%" horiz-adv-x="1706" 
d="M1556 1375l56 -59l-1417 -1329l-52 61zM605 1382q55 0 100 -17t76 -49.5t48 -79t17 -104.5q0 -84 -26 -158.5t-74 -130t-116.5 -87.5t-152.5 -32q-65 0 -113.5 20t-80 55.5t-47 83.5t-15.5 104q0 76 28 147t78.5 126t121 88.5t156.5 33.5zM583 1309q-40 0 -70 -17
t-52 -45t-37 -64.5t-24 -75t-13 -76t-4 -68.5q0 -35 5 -65.5t16 -53.5t30 -36.5t47 -14.5q41 -1 72.5 16.5t54.5 48t38 70t24 81.5t13 83.5t4 75.5q0 66 -24.5 103.5t-79.5 37.5zM1295 635q55 0 100 -17t76 -49.5t48 -79t17 -104.5q0 -84 -26 -158.5t-74 -130t-116.5 -87.5
t-152.5 -32q-125 0 -190.5 70.5t-65.5 202.5q0 72 28 141t78.5 123t121 87.5t156.5 33.5zM1273 562q-39 0 -69.5 -17t-52.5 -45t-37 -64.5t-24 -75t-13 -76t-4 -68.5q0 -35 5 -65.5t16 -53.5t30 -36.5t47 -14.5q41 -1 72.5 16.5t54.5 48t38 70t24 81.5t13 83.5t4 75.5
q0 66 -24.5 103.5t-79.5 37.5z" />
    <glyph glyph-name="ampersand" unicode="&#x26;" horiz-adv-x="1593" 
d="M898 238q-32 34 -66.5 77.5t-69 91.5t-67.5 98t-61.5 96.5t-51 87.5t-36.5 71q-73 -60 -119 -111t-72.5 -99t-36 -95.5t-9.5 -101.5q0 -60 18 -110t51.5 -87t81.5 -57.5t108 -20.5q88 0 171.5 39.5t158.5 120.5zM585 1098q0 -32 8 -67.5t20.5 -71t28.5 -68t32 -56.5
q41 29 77 62.5t64.5 72.5t47.5 84t26 97q5 31 1 58t-18 47t-39 31t-63 11q-54 0 -89.5 -21t-57 -51.5t-30 -65.5t-8.5 -62zM1151 0q-18 13 -40.5 29t-48 37.5t-54 48.5t-56.5 63q-34 -36 -83 -72.5t-110.5 -65t-133.5 -46.5t-151 -18q-91 0 -161 26t-118 70t-72.5 102
t-24.5 122q0 70 22 131.5t57.5 113.5t80.5 95.5t91 78t88.5 60.5t72.5 44q-17 25 -31 55.5t-24 64t-15.5 67t-5.5 64.5q0 58 25.5 113.5t72.5 99t112 70t145 26.5q114 0 179.5 -45.5t65.5 -130.5q0 -70 -29.5 -129t-77 -110t-106.5 -95t-117 -83q59 -97 141.5 -202
t176.5 -210q65 100 110 225.5t58 272.5q-58 12 -104 47l10 50h393l-10 -50q-30 -17 -64 -28t-74 -19q-37 -113 -70 -199.5t-64 -153.5t-61.5 -118t-61.5 -93q61 -59 120.5 -111.5t136.5 -101.5l96 -47l-11 -48h-275z" />
    <glyph glyph-name="quotesingle" unicode="'" horiz-adv-x="438" 
d="M304 1381q19 32 50.5 54t74.5 22q36 0 60.5 -19t29.5 -57l-170 -420h-51z" />
    <glyph glyph-name="parenleft" unicode="(" horiz-adv-x="682" 
d="M406 -407q-62 65 -114.5 135.5t-91 152.5t-60 177.5t-21.5 211.5q0 133 29 249.5t78.5 218t115.5 189.5t140.5 164.5t153.5 143t153 125.5l33 -35q-77 -76 -146.5 -151.5t-129 -154.5t-108 -163.5t-83 -178.5t-53 -199.5t-18.5 -226.5q0 -99 11 -184t33 -160t55.5 -142.5
t78.5 -132.5z" />
    <glyph glyph-name="parenright" unicode=")" horiz-adv-x="682" 
d="M-143 -368q111 88 207.5 200.5t168 248.5t113 295.5t41.5 342.5q0 96 -11 179t-33 157t-53.5 140.5t-72.5 129.5l48 35q60 -65 112 -136t90 -153.5t60 -179t22 -211.5q0 -189 -51 -347t-139 -290.5t-207.5 -243t-255.5 -206.5z" />
    <glyph glyph-name="asterisk" unicode="*" 
d="M295 1194q-3 7 -3 17q0 15 6.5 33.5t18 35t25.5 28.5t29 15l194 -168q0 -17 -5.5 -30t-22.5 -21zM369 860q-14 1 -27.5 13t-25 29.5t-18.5 37t-7 35.5q0 10 2 15l242 84q16 -10 23 -20.5t7 -27.5zM700 754q-8 -12 -29 -18t-45 -6q-23 0 -43.5 5.5t-29.5 16.5l44 252
q17 7 31 7q8 0 15.5 -2t15.5 -5zM954 990q4 -8 4 -20q0 -15 -6.5 -33.5t-17.5 -34.5t-25 -27.5t-29 -14.5l-189 163q0 17 6.5 28.5t17.5 20.5zM885 1323q13 -1 26 -12t23.5 -27.5t17.5 -35.5t7 -36q0 -11 -3 -20l-241 -92q-11 9 -18.5 22t-7.5 29zM551 1428q8 12 28.5 18.5
t43.5 6.5t43.5 -6t31.5 -19l-42 -252q-15 -9 -30 -9q-16 0 -31 9z" />
    <glyph glyph-name="plus" unicode="+" horiz-adv-x="1382" 
d="M190 717h384v407h102v-407h384v-103h-384v-416h-102v416h-384v103z" />
    <glyph glyph-name="comma" unicode="," horiz-adv-x="512" 
d="M-70 -289q37 15 74 42.5t67 63t50 76t23 81.5q-10 11 -24 22t-29.5 21t-31 18t-28.5 13q0 35 14.5 69t36.5 62t47 45.5t46 19.5q27 -3 51 -15t42 -32.5t28.5 -50t10.5 -66.5q0 -58 -26.5 -122t-73 -123t-110.5 -107.5t-140 -74.5z" />
    <glyph glyph-name="hyphen" unicode="-" horiz-adv-x="682" 
d="M143 606h547v-122h-547v122z" />
    <glyph glyph-name="hyphen" unicode="&#xad;" horiz-adv-x="682" 
d="M143 606h547v-122h-547v122z" />
    <glyph glyph-name="period" unicode="." horiz-adv-x="512" 
d="M70 111q0 58 37 92.5t95 34.5q60 0 97 -34.5t37 -92.5q0 -57 -37 -91.5t-97 -34.5q-58 0 -95 34.5t-37 91.5z" />
    <glyph glyph-name="slash" unicode="/" horiz-adv-x="569" 
d="M635 1379l82 -35l-708 -1596l-79 37z" />
    <glyph glyph-name="zero" unicode="0" 
d="M108 416q0 103 13 198t35.5 180.5t53 159.5t65.5 135q36 63 79.5 116.5t96 92t115.5 60t139 21.5q84 0 138.5 -30t93.5 -89q24 -36 38 -75.5t21 -80.5t8.5 -82.5t1.5 -83.5q0 -93 -11.5 -187.5t-34 -185t-56.5 -174t-78 -153.5q-35 -56 -76 -104t-92.5 -83t-116 -55
t-145.5 -20q-73 0 -131 37t-93 100q-33 60 -48.5 138t-15.5 165zM287 368q0 -72 5.5 -121.5t16.5 -90.5q13 -46 44 -73t74 -27q47 0 82.5 15t70.5 53q29 31 61 79t58 111q24 56 47 130t41.5 159.5t30 179.5t11.5 190q0 60 -2.5 107.5t-10.5 88.5q-6 27 -15.5 50.5t-25 41
t-38.5 27.5t-55 10q-33 0 -66.5 -10t-65.5 -35.5t-63 -70.5t-61 -114q-23 -53 -47.5 -125.5t-44.5 -161.5t-33.5 -193t-13.5 -220z" />
    <glyph glyph-name="one" unicode="1" 
d="M701 0h-566l12 56q53 20 105.5 37.5t106.5 28.5l202 952l31 113q-59 -21 -118.5 -29.5t-119.5 -6.5l-1 47q96 28 200 71.5t199 109.5h49l-267 -1257q46 -11 90.5 -28.5t88.5 -37.5z" />
    <glyph glyph-name="two" unicode="2" 
d="M335 978h-48q-5 28 -9 62t-7 70t-4.5 72.5t-2.5 70.5q79 60 176 93t209 33q81 0 141 -23t96 -62q33 -36 46.5 -81.5t13.5 -101.5q0 -77 -31 -158t-81.5 -162.5t-115.5 -160t-132.5 -151t-132.5 -135.5t-116 -113l-98 -76l-2 -7l112 11h293l141 217h49q-5 -42 -12 -93
t-15 -102t-16.5 -98.5t-15.5 -82.5h-760l13 62q41 35 94 83t112 105t121 122t120 134.5t109.5 142.5t90 146.5t61 145.5t22.5 140q0 42 -6.5 74t-21.5 58q-17 29 -54 47.5t-82 18.5q-40 0 -76.5 -8t-58.5 -16z" />
    <glyph glyph-name="three" unicode="3" 
d="M371 68q80 0 142.5 31t104.5 84q38 48 63.5 112.5t25.5 136.5q0 113 -59.5 169t-183.5 56h-67l12 52l344 436l69 68l1 7l-106 -11h-272l-117 -198h-49q2 42 4.5 88t6 91.5t8.5 88.5t13 78h698l-13 -61l-342 -432l-88 -95v-4l69 10q48 -7 95.5 -31t85 -63t61 -90.5
t23.5 -112.5q0 -54 -14 -105t-37.5 -97.5t-54 -86.5t-62.5 -71q-71 -67 -164 -104.5t-196 -37.5q-45 0 -92.5 7t-91 20t-80.5 31.5t-60 41.5l91 174h39q9 -14 24.5 -35t33 -44.5t34 -46.5t27.5 -41q11 -3 28 -9t46 -6z" />
    <glyph glyph-name="four" unicode="4" 
d="M801 0h-504l11 56q51 17 96.5 28t92.5 19l58 271h-560l9 44l890 961h53l-193 -904h215l-21 -101h-215l-58 -271q35 -8 70 -19t67 -28zM675 942l50 140h-5l-106 -140l-381 -417l-92 -64l141 14h294z" />
    <glyph glyph-name="five" unicode="5" 
d="M999 1463h48q-5 -23 -13.5 -59t-19.5 -74t-22.5 -72.5t-21.5 -54.5h-417l-127 -373h12q70 0 146 -15.5t139 -57.5q67 -45 104.5 -117t37.5 -163q0 -46 -10.5 -95.5t-30 -97t-47 -90.5t-60.5 -76q-77 -77 -169 -109.5t-196 -32.5q-38 0 -81 7.5t-84 20.5t-76 31.5
t-57 40.5l92 174h39q9 -14 21.5 -35t26.5 -44.5t27.5 -46.5t24.5 -41q10 -4 31 -9.5t49 -5.5q67 0 125.5 23.5t104.5 70.5q47 48 69.5 119t22.5 148q0 72 -27 128.5t-79 86.5q-48 28 -104 36t-119 6l-71 -2l220 673h402z" />
    <glyph glyph-name="six" unicode="6" 
d="M929 487q0 -47 -11.5 -96t-32.5 -96.5t-49.5 -91t-62.5 -78.5q-72 -75 -155 -112t-195 -37q-35 0 -70.5 9.5t-68.5 26t-61 40t-47 50.5q-37 51 -57.5 116t-20.5 146q0 131 35.5 251t98 226t148 196t185 160.5t209 120t221.5 73.5l9 -58q-110 -36 -211 -97.5t-186 -145.5
t-150.5 -188.5t-103.5 -225.5q21 26 49 49.5t62.5 41.5t75.5 28.5t86 10.5q64 0 120 -21t96 -62q41 -42 64 -101.5t23 -134.5zM738 471q0 51 -8 93t-28 72q-19 29 -53 49t-77 20q-42 0 -79 -13t-69 -34t-58 -47t-45 -53q-7 -17 -14 -43.5t-13 -56.5t-10 -60.5t-4 -55.5
q0 -51 7 -96t24 -84q18 -41 53 -68.5t83 -27.5q65 0 109 25t83 75q24 31 42 68.5t31 78t19.5 81.5t6.5 77z" />
    <glyph glyph-name="seven" unicode="7" 
d="M320 1009h-49q1 42 3.5 88t7 92t10 89.5t13.5 78.5h772l-12 -57q-89 -114 -160 -216t-130.5 -199.5t-110 -195.5t-97.5 -204.5t-93.5 -225.5t-98.5 -259h-194q132 284 297 563t365 561l79 93l-103 -10h-381z" />
    <glyph glyph-name="eight" unicode="8" 
d="M58 285q0 85 40.5 156.5t107.5 128.5q53 45 120.5 76.5t139.5 56.5q-28 21 -61 55t-61.5 77.5t-47.5 93t-19 101.5q0 69 34 141t103 126q49 38 114.5 60t150.5 22q74 0 132 -21.5t98.5 -58.5t61.5 -86t21 -104q0 -67 -24.5 -122t-68.5 -100t-105.5 -81.5t-135.5 -67.5
q109 -75 172.5 -165t63.5 -203q0 -87 -44 -170t-129 -142q-117 -82 -311 -82q-92 0 -158.5 27.5t-109.5 72t-63.5 99.5t-20.5 110zM716 338q0 55 -21 106t-53 94.5t-69 76.5t-68 52q-80 -38 -133 -85t-84.5 -97t-44.5 -99.5t-13 -92.5q0 -39 11.5 -79.5t37 -73.5t66 -53.5
t99.5 -20.5q119 0 189 62q40 36 61.5 93.5t21.5 116.5zM451 1070q0 -48 13.5 -89.5t36.5 -78.5t53.5 -69t64.5 -60q58 33 98.5 73t66 83.5t37 89t11.5 90.5q0 43 -14 76t-38 56t-56.5 35t-69.5 12q-44 0 -81.5 -16t-64.5 -44.5t-42 -68.5t-15 -89z" />
    <glyph glyph-name="nine" unicode="9" 
d="M172 868q0 49 12.5 101t35 102t54 95.5t68.5 82.5q62 61 140 95.5t172 34.5q101 0 178.5 -43t121.5 -121q24 -44 37 -97t13 -115q0 -132 -33.5 -255.5t-93.5 -233t-142.5 -202.5t-180.5 -163t-207.5 -115t-223.5 -58l-23 57q121 30 222 90t182 141.5t141 181t98 208.5
q-21 -19 -47 -38t-59 -34t-74.5 -24t-93.5 -9q-69 0 -124.5 23.5t-93.5 66t-58.5 101t-20.5 128.5zM362 886q0 -46 9.5 -89t30.5 -76t54.5 -52.5t82.5 -19.5q46 0 85 13t69 31t51.5 38t32.5 35q5 16 12.5 43.5t15 63t13 76.5t5.5 83q0 54 -10 100.5t-33 81t-59.5 54.5
t-89.5 20q-62 0 -112 -35.5t-85 -92.5t-53.5 -129t-18.5 -145z" />
    <glyph glyph-name="colon" unicode=":" horiz-adv-x="682" 
d="M291 856q0 58 37 92.5t95 34.5q60 0 97 -34.5t37 -92.5q0 -57 -37 -91.5t-97 -34.5q-58 0 -95 34.5t-37 91.5zM133 111q0 58 37 92.5t95 34.5q60 0 97 -34.5t37 -92.5q0 -57 -37 -91.5t-97 -34.5q-58 0 -95 34.5t-37 91.5z" />
    <glyph glyph-name="semicolon" unicode=";" horiz-adv-x="682" 
d="M321 856q0 58 37 92.5t95 34.5q60 0 97 -34.5t37 -92.5q0 -57 -37 -91.5t-97 -34.5q-58 0 -95 34.5t-37 91.5zM7 -289q37 15 74 42.5t67 63t50 76t23 81.5q-10 11 -24 22t-29.5 21t-31 18t-28.5 13q0 35 14.5 69t36.5 62t47 45.5t46 19.5q27 -3 51 -15t42 -32.5t28.5 -50
t10.5 -66.5q0 -58 -26.5 -122t-73 -123t-110.5 -107.5t-140 -74.5z" />
    <glyph glyph-name="less" unicode="&#x3c;" horiz-adv-x="1382" 
d="M150 628v60l747 455l48 -85l-484 -293l-167 -77l165 -60l513 -303l-77 -125z" />
    <glyph glyph-name="equal" unicode="=" horiz-adv-x="1382" 
d="M201 872h872v-103h-872v103zM201 560h872v-103h-872v103z" />
    <glyph glyph-name="greater" unicode="&#x3e;" horiz-adv-x="1382" 
d="M970 715v-60l-746 -455l-47 85l485 292l166 78l-164 60l-514 302l76 126z" />
    <glyph glyph-name="question" unicode="?" 
d="M362 1006h-49q-2 26 -4 61t-2.5 74t1 79t5.5 78q33 19 71 34t82 25.5t95.5 16t112.5 5.5q74 0 132 -19t97.5 -52.5t60.5 -80t21 -100.5q0 -84 -27 -146.5t-71 -112.5t-100 -91t-113 -81q-48 -33 -95 -66t-85 -72.5t-65.5 -90t-36.5 -118.5h-39v117q0 72 63 154.5
t175 173.5q99 81 154.5 155t55.5 156q0 57 -20 91t-49 52.5t-62.5 24.5t-60.5 6q-61 0 -97 -11.5t-56 -23.5zM225 111q0 58 37 92.5t95 34.5q60 0 97 -34.5t37 -92.5q0 -57 -37 -91.5t-97 -34.5q-58 0 -95 34.5t-37 91.5z" />
    <glyph glyph-name="at" unicode="@" horiz-adv-x="1884" 
d="M1209 919q33 15 70.5 24t75.5 7l-100 -555q-12 -63 -17 -115.5t0 -90t22 -58t50 -20.5q63 0 131.5 36t125.5 103.5t93.5 164t36.5 217.5q0 148 -56 267.5t-153.5 204t-228.5 130t-281 45.5q-118 0 -221 -28.5t-189 -81t-153.5 -126.5t-114 -164t-71 -193.5t-24.5 -216.5
q0 -172 56.5 -305.5t158.5 -225.5t242.5 -140t308.5 -48q28 0 61 3.5t67 10.5t67.5 17.5t62.5 24.5l30 -85q-69 -38 -150.5 -54t-178.5 -16q-111 0 -216 22.5t-197.5 67.5t-170 112t-133 156.5t-86.5 201.5t-31 246q0 141 32 264t89.5 225.5t139 183t181 136t213.5 84.5
t238 29q175 0 324.5 -51t259.5 -147t172.5 -235t62.5 -314q0 -126 -44 -239t-118 -198.5t-171 -135.5t-204 -50q-58 0 -99 19t-62.5 60.5t-22 107t21.5 159.5h-9q-22 -62 -59.5 -123.5t-85.5 -111t-103 -80.5t-112 -31t-102 21t-76 60t-47.5 93.5t-16.5 121.5q0 82 19 163
t53 154t81.5 135.5t104.5 108t121.5 71.5t133.5 26q35 0 61.5 -3t49 -9t43.5 -14t44 -18zM1176 825q-31 19 -63.5 29t-81.5 10q-50 0 -95.5 -23.5t-85.5 -64t-72.5 -94t-55.5 -113.5t-36 -122t-13 -120q0 -47 7 -83.5t23 -61.5t42.5 -38.5t66.5 -13.5q37 0 79.5 35.5
t84.5 93.5t81 130.5t71 146.5z" />
    <glyph glyph-name="A" unicode="A" horiz-adv-x="1251" 
d="M352 56l-12 -56h-430l12 56q39 17 75.5 28t73.5 19l802 1276h56l169 -1276q37 -8 72.5 -18t64.5 -29l-12 -56h-488l12 56q43 15 85.5 27t83.5 20l-43 344h-467l-210 -344q41 -6 79.5 -18t76.5 -29zM813 928l-18 169h-4l-93 -173l-230 -376h392z" />
    <glyph glyph-name="B" unicode="B" horiz-adv-x="1251" 
d="M13 0l12 56q44 19 86 30.5t83 16.5l244 1149q-38 7 -75 19.5t-74 28.5l12 57h205q37 0 77 1.5t80.5 4t80.5 4t78 1.5q70 0 140.5 -10.5t126.5 -40.5t91.5 -85t35.5 -145q0 -52 -22 -108t-64.5 -105.5t-104.5 -88.5t-142 -58l-2 -8q49 -9 95 -28.5t82 -51.5t57.5 -79
t21.5 -110q0 -121 -46 -208t-125 -143.5t-185 -83t-226 -26.5q-33 0 -78 1.5t-94 4t-97 4t-87 1.5h-186zM589 89q80 0 146 25.5t113 71t73 108t26 135.5q0 61 -25.5 101.5t-69 64.5t-101.5 34t-123 10h-145l-113 -532q24 -8 81.5 -13t137.5 -5zM600 740q17 0 37.5 1t42 2.5
t41.5 3t35 3.5q55 17 103.5 47t84.5 70.5t57 90.5t21 108q0 99 -62.5 150t-200.5 51q-39 0 -77 -2t-67 -6l-111 -519h96z" />
    <glyph glyph-name="C" unicode="C" horiz-adv-x="1366" 
d="M1170 373h51q-1 -27 -4 -62.5t-8.5 -74.5t-13 -80t-16.5 -80q-70 -45 -178.5 -72.5t-235.5 -27.5q-141 0 -256.5 38.5t-198 111t-128 176.5t-45.5 236q0 143 34.5 261t95 211.5t142.5 162.5t176.5 115t197.5 68.5t205 22.5q81 0 148 -7.5t121 -20.5t96 -30.5t72 -36.5
q-5 -30 -16 -72.5t-25 -88.5t-29.5 -91.5t-30.5 -81.5h-50l-42 279q-9 6 -26.5 14.5t-43.5 16.5t-61 13.5t-78 5.5q-82 0 -165 -20.5t-159 -61t-142.5 -101t-115.5 -140.5t-77 -179.5t-28 -217.5q0 -120 35 -210.5t96.5 -150.5t146 -90t183.5 -30q75 0 135.5 16t95.5 39z
" />
    <glyph glyph-name="D" unicode="D" horiz-adv-x="1479" 
d="M-41 0l12 56q39 17 81 28t88 19l244 1149q-43 10 -80 22.5t-69 25.5l12 57h198q33 0 77 2.5t92.5 5t98 5t93.5 2.5q166 0 288 -35.5t202 -102t118.5 -163.5t38.5 -220q0 -114 -24 -222t-74 -204.5t-126.5 -177.5t-181 -139.5t-238.5 -91.5t-298 -33q-39 0 -87.5 2.5
t-98.5 6t-97 6t-83 2.5h-186zM799 1270h-70t-69 -0.5t-59 -2t-40 -4.5l-249 -1174q9 -2 33.5 -3t56.5 -2t67.5 -1h66.5q135 0 240 33.5t183 90t132.5 130.5t87.5 156t48 166.5t15 160.5q0 81 -22 161t-73.5 144.5t-136.5 104.5t-211 40z" />
    <glyph glyph-name="E" unicode="E" horiz-adv-x="1251" 
d="M1292 1357q-19 -78 -40 -157t-48 -158h-51l-34 213h-491l-109 -513h386l105 143h48q-14 -97 -35 -194t-48 -197h-48l-44 147h-386l-115 -541h515l145 233h49q-5 -81 -16.5 -164.5t-33.5 -168.5h-1026l12 56q40 17 81.5 28t87.5 19l244 1149q-38 7 -75 19.5t-74 28.5
l12 57h989z" />
    <glyph glyph-name="F" unicode="F" horiz-adv-x="1251" 
d="M339 103q43 -6 81 -18t76 -29l-12 -56h-493l12 56q74 30 150 47l244 1149q-41 10 -72.5 22.5t-57.5 25.5l12 57h1069q-18 -78 -38.5 -157t-49.5 -158h-51l-33 213h-592l-117 -550h455l96 122h46q-10 -87 -29 -174.5t-46 -177.5h-46l-43 129h-455z" />
    <glyph glyph-name="G" unicode="G" horiz-adv-x="1479" 
d="M1233 123q-41 -30 -97 -56.5t-117.5 -47t-124.5 -32t-117 -11.5q-128 0 -243.5 33t-202.5 102t-138.5 175.5t-51.5 254.5q0 139 35 255.5t96 209.5t143.5 163t177.5 116.5t197.5 70t203.5 23.5q88 0 160 -9t129 -22.5t99 -30.5t72 -33q-6 -29 -17 -72t-24.5 -89.5
t-28.5 -92t-30 -80.5h-51l-41 279q-10 6 -33 14.5t-57.5 16.5t-80 13.5t-99.5 5.5q-77 0 -155 -21t-150 -62t-135.5 -102.5t-110.5 -142.5t-74 -181.5t-27 -219.5q0 -108 36.5 -195t98.5 -148.5t144.5 -95t175.5 -33.5q94 0 166.5 25t112.5 63l78 370q-49 5 -91.5 18
t-84.5 29l12 56h475l-12 -56q-21 -13 -50.5 -25t-79.5 -22z" />
    <glyph glyph-name="H" unicode="H" horiz-adv-x="1479" 
d="M478 0h-491l12 56q44 17 86 28t83 19l244 1149q-45 7 -82.5 19.5t-66.5 28.5l12 57h491l-12 -57q-74 -34 -156 -48l-108 -507h609l108 507q-40 8 -72.5 21t-63.5 27l12 57h491l-12 -57q-39 -19 -82.5 -30t-86.5 -18l-244 -1149q44 -8 82 -19t67 -28l-12 -56h-491l12 56
q39 17 77.5 28t78.5 19l115 542h-609l-115 -542q37 -8 71.5 -19t64.5 -28z" />
    <glyph glyph-name="I" unicode="I" horiz-adv-x="682" 
d="M493 0h-496l12 56q42 17 82 29t83 18l244 1149q-38 7 -73 19.5t-72 28.5l12 57h496l-12 -57q-38 -16 -81.5 -28.5t-83.5 -19.5l-244 -1149q40 -8 77 -20t68 -27z" />
    <glyph glyph-name="J" unicode="J" horiz-adv-x="909" 
d="M458 1359l487 -2l-12 -57q-38 -16 -78 -28.5t-80 -19.5l-231 -1086q-19 -90 -48 -158.5t-63.5 -119t-72.5 -85.5t-76 -57.5t-73.5 -35.5t-65.5 -20l-15 29q34 25 65.5 56.5t60 80.5t53.5 119t46 171l235 1106q-42 8 -79.5 20t-69.5 28z" />
    <glyph glyph-name="K" unicode="K" horiz-adv-x="1366" 
d="M1057 1357h428l-12 -57q-84 -35 -157 -48l-599 -516q24 -42 59.5 -94.5t77 -110t88 -117.5t92.5 -117.5t90.5 -109t83.5 -92.5l82 -47l-10 -48h-262l-56 46q-45 54 -98 125t-106.5 151t-104.5 164t-91 163h-134l-116 -546q41 -8 75.5 -19t60.5 -28l-12 -56h-491l12 56
q44 17 85.5 28t83.5 19l244 1149q-44 5 -82 18t-67 30l12 57h491l-12 -57q-33 -13 -72.5 -25.5t-83.5 -22.5l-114 -537l162 27l571 510q-38 8 -70.5 21t-59.5 27z" />
    <glyph glyph-name="L" unicode="L" horiz-adv-x="1139" 
d="M292 1357h532l-12 -57q-51 -17 -99.5 -30t-96.5 -18l-245 -1152h455l182 312h50q-3 -40 -9.5 -93.5t-16 -110t-20.5 -111t-22 -97.5h-986l12 56q53 22 92.5 31.5t76.5 15.5l244 1149q-44 7 -81 19.5t-68 28.5z" />
    <glyph glyph-name="M" unicode="M" horiz-adv-x="1706" 
d="M1525 0h-480l12 56q42 17 82.5 27.5t84.5 19.5l185 871l52 210h-7l-130 -184l-517 -731h-51l-220 725l-34 191l-9 -1l-46 -210l-185 -871q69 -16 136 -47l-12 -56h-404l12 56q83 34 167 49l244 1147q-40 7 -77 19.5t-72 28.5l12 57h367l194 -657l46 -179h2l118 181
l470 655h350l-12 -57q-38 -16 -77 -28.5t-79 -19.5l-245 -1152q38 -7 72 -17t63 -27z" />
    <glyph glyph-name="N" unicode="N" horiz-adv-x="1366" 
d="M1119 1357h419l-12 -57q-45 -26 -89 -46t-86 -32l-265 -1246h-111l-446 1068l-43 152h-6l-15 -152l-196 -920q37 -10 70.5 -27.5t64.5 -40.5l-12 -56h-419l12 56q41 22 84.5 38.5t88.5 29.5l237 1111q-36 14 -69.5 32t-62.5 35l11 55h327l385 -921l53 -166h8l26 166
l167 786q-38 18 -71 38t-62 40z" />
    <glyph glyph-name="O" unicode="O" horiz-adv-x="1479" 
d="M123 522q0 117 27.5 226.5t78 204.5t122.5 173.5t161.5 134.5t194 87t220.5 31q137 0 239.5 -41t170.5 -114.5t102 -177t34 -227.5q0 -121 -27.5 -230.5t-78.5 -203.5t-122.5 -169.5t-159 -128.5t-189 -82t-212.5 -29q-131 0 -234.5 40.5t-176.5 113.5t-111.5 173
t-38.5 219zM328 526q0 -95 22.5 -176.5t70 -142t119.5 -95t171 -34.5q77 0 148 29t133 81t113 123t87 154.5t56 177t20 189.5q0 94 -22 175.5t-66.5 142t-111.5 95t-158 34.5q-95 0 -174.5 -31t-144.5 -85.5t-114 -127.5t-82 -156.5t-50 -174t-17 -178.5z" />
    <glyph glyph-name="P" unicode="P" horiz-adv-x="1251" 
d="M378 103q52 -6 95.5 -18t81.5 -29l-12 -56h-532l12 56q44 19 86 29t83 18l244 1149q-43 7 -79 20.5t-70 27.5l12 57h175q38 0 83 2.5t92 5t93.5 5t87.5 2.5q84 0 163 -16.5t140.5 -55t99 -102t37.5 -157.5q0 -96 -25.5 -172t-70 -133.5t-105.5 -98t-131.5 -66t-148.5 -37
t-157 -11.5q-63 0 -103 1.5t-60 6.5zM768 1270q-48 0 -82 -1.5t-62 -7.5l-133 -627q19 -6 53 -8.5t91 -2.5q92 0 170 24t135 74t89.5 126t32.5 180q0 60 -21 105.5t-59 76t-92.5 46t-121.5 15.5z" />
    <glyph glyph-name="Q" unicode="Q" horiz-adv-x="1479" 
d="M1365 -223q-45 -35 -91.5 -66t-93 -53.5t-93 -35.5t-91.5 -12q-78 1 -159 30t-171 69.5t-193 85t-225 77.5l67 39q92 12 175.5 -0.5t165 -35t162 -49t166 -42.5t178.5 -14.5t199 34.5zM123 522q0 117 27.5 226.5t78 204.5t122.5 173.5t161.5 134.5t194 87t220.5 31
q137 0 239.5 -41t170.5 -114.5t102 -177t34 -227.5q0 -121 -27.5 -230.5t-78.5 -203.5t-122.5 -169.5t-159 -128.5t-189 -82t-212.5 -29q-131 0 -234.5 40.5t-176.5 113.5t-111.5 173t-38.5 219zM328 526q0 -95 22.5 -176.5t70 -142t119.5 -95t171 -34.5q77 0 148 29t133 81
t113 123t87 154.5t56 177t20 189.5q0 94 -22 175.5t-66.5 142t-111.5 95t-158 34.5q-95 0 -174.5 -31t-144.5 -85.5t-114 -127.5t-82 -156.5t-50 -174t-17 -178.5z" />
    <glyph glyph-name="R" unicode="R" horiz-adv-x="1251" 
d="M340 103q42 -9 81 -19.5t74 -27.5l-12 -56h-510l12 56q47 19 88 29t81 18l244 1149q-47 10 -83.5 22.5t-65.5 25.5l12 57h171q39 0 82.5 2.5t89 5t91.5 5t90 2.5q82 0 151.5 -17.5t119.5 -54.5t78 -93.5t28 -134.5q0 -86 -23.5 -157.5t-68 -128t-109 -97.5t-146.5 -66
q28 -65 56 -133.5t58.5 -135t65 -130t75.5 -119.5l92 -57l-10 -48h-235l-62 54q-30 48 -58 109t-53.5 131t-49 147.5t-46.5 159.5h-202zM720 1270q-47 0 -77 -1.5t-57 -7.5l-123 -579h160q80 0 144 29t108.5 79.5t68 118.5t23.5 147q0 54 -17.5 94.5t-49.5 67t-77.5 39.5
t-102.5 13z" />
    <glyph glyph-name="S" unicode="S" 
d="M206 143q8 -11 23.5 -22.5t42.5 -21t67 -15.5t96 -6q69 0 128 19.5t102.5 53.5t68 78.5t24.5 94.5q0 55 -23.5 97.5t-61.5 77t-87 65t-100 61t-100 64.5t-87 77t-61.5 97t-23.5 125q0 87 41 159t110 123.5t161 80t194 28.5q64 0 121 -6t105 -16.5t85 -23.5t63 -27
q-8 -32 -21.5 -74.5t-29.5 -87t-33 -87t-31 -75.5h-50l-23 256q-15 8 -39.5 15.5t-53 13t-60 9t-61.5 3.5q-56 0 -107.5 -17t-92 -47t-64.5 -71.5t-24 -90.5q0 -52 23.5 -93t61.5 -76t87 -65.5t100.5 -61.5t100.5 -65t87 -75.5t61.5 -93t23.5 -117.5q0 -87 -34 -165
t-101 -137t-167 -93.5t-232 -34.5q-86 0 -153 10t-116.5 25t-82 33t-49.5 34q8 33 23 78t32 92t34.5 92t31.5 78h50z" />
    <glyph glyph-name="T" unicode="T" horiz-adv-x="1139" 
d="M738 0h-545l12 56q46 15 92 27t98 20l245 1152h-277l-161 -277h-49q2 39 8.5 88.5t15 101t17.5 101t17 88.5h1086q-9 -39 -21 -88t-25.5 -100.5t-27.5 -101t-29 -89.5h-50l-41 277h-277l-245 -1152q48 -9 89.5 -19.5t79.5 -27.5z" />
    <glyph glyph-name="U" unicode="U" horiz-adv-x="1479" 
d="M279 1357h493l-12 -57q-81 -32 -158 -48l-169 -793q-7 -33 -10.5 -62t-3.5 -55q0 -68 22 -114.5t62 -75.5t95.5 -41.5t122.5 -12.5q76 0 145.5 20.5t126.5 64.5t98 112.5t62 165.5l164 774q-42 14 -77 31t-61 34l12 57h412l-12 -57q-84 -46 -165 -65l-165 -778
q-26 -123 -82.5 -212.5t-134 -147.5t-172 -86t-197.5 -28q-102 0 -184 19.5t-139.5 59.5t-89.5 100t-34 140q-2 60 13 127l175 823q-38 5 -76 18t-73 30z" />
    <glyph glyph-name="V" unicode="V" horiz-adv-x="1251" 
d="M1122 1252q-45 10 -83.5 22.5t-73.5 25.5l12 57h436l-12 -57q-32 -16 -70 -28t-80 -20l-683 -1252l-132 -24l-203 1276q-36 10 -70.5 22.5t-66.5 25.5l12 57h514l-12 -57q-37 -13 -80.5 -25.5t-88.5 -22.5l120 -886l10 -174l10 -1l88 179z" />
    <glyph glyph-name="W" unicode="W" horiz-adv-x="1706" 
d="M1632 1252q-39 5 -76.5 18t-79.5 30l12 57h434l-12 -57q-37 -16 -74.5 -28t-75.5 -20l-581 -1252l-126 -24l-97 1038l-501 -1014l-124 -24l-43 1276q-38 8 -72 21t-66 27l12 57h504l-12 -57q-40 -13 -81.5 -26.5t-86.5 -21.5l-3 -781l-12 -252h4l123 256l432 882h66
l84 -883l15 -251h4l99 256z" />
    <glyph glyph-name="X" unicode="X" horiz-adv-x="1251" 
d="M977 1357h446l-12 -57q-35 -13 -75 -25.5t-81 -22.5l-484 -536l297 -613q44 -8 81 -19t66 -28l-12 -56h-524l12 56q81 35 156 47l-219 494l-423 -497q41 -5 78.5 -14.5t69.5 -29.5l-12 -56h-448l12 56q41 19 79 29t75 18l523 584l-264 565q-37 11 -71.5 23t-70.5 25
l12 57h522l-12 -57q-32 -11 -70.5 -23t-87.5 -25l183 -457l391 457q-70 16 -149 48z" />
    <glyph glyph-name="Y" unicode="Y" horiz-adv-x="1139" 
d="M947 1357h426l-12 -57q-39 -17 -79.5 -30t-77.5 -18l-506 -705l-94 -444q35 -5 70 -16.5t67 -30.5l-12 -56h-492l12 56q78 35 169 47l94 442l-231 707q-44 7 -79 20.5t-68 27.5l12 57h523l-12 -57q-32 -11 -70.5 -24t-88.5 -24l170 -600l416 600q-42 10 -79.5 22.5
t-69.5 25.5z" />
    <glyph glyph-name="Z" unicode="Z" horiz-adv-x="1139" 
d="M1012 372h50q-2 -39 -8 -87t-14 -98.5t-17.5 -99t-18.5 -87.5h-968l21 98l912 1157h-517l-177 -271h-48q3 40 8.5 89t13 99.5t16.5 98.5t18 86h920l-21 -102l-908 -1155h562z" />
    <glyph glyph-name="bracketleft" unicode="[" horiz-adv-x="797" 
d="M485 1357h367l-17 -82h-202l-349 -1641h202l-17 -80h-367z" />
    <glyph glyph-name="backslash" unicode="\" horiz-adv-x="569" 
d="M1101 -207l-80 -45l-804 1589l81 42z" />
    <glyph glyph-name="bracketright" unicode="]" horiz-adv-x="797" 
d="M291 -446h-366l17 80h201l349 1641h-201l17 82h366z" />
    <glyph glyph-name="asciicircum" unicode="^" horiz-adv-x="864" 
d="M415 1377h62l330 -536h-171l-171 292l-46 130l-62 -132l-194 -290h-108z" />
    <glyph glyph-name="underscore" unicode="_" 
d="M-16 -277h1024v-102h-1024v102z" />
    <glyph glyph-name="grave" unicode="`" horiz-adv-x="682" 
d="M682 1116l-48 -32l-324 270l2 39q13 10 40.5 18.5t57.5 14.5t58 8.5t43 0.5z" />
    <glyph glyph-name="a" unicode="a" 
d="M324 88q32 0 68.5 21t73.5 55.5t73 77.5t67 87.5t55 86t37 72.5l56 301q-26 17 -64 24t-90 7q-59 0 -111 -23t-95.5 -63t-78.5 -93.5t-59.5 -114t-37.5 -125.5t-13 -127q0 -90 32.5 -138t86.5 -48zM662 345q-23 -63 -67 -128t-100 -118t-120 -87t-125 -34q-91 0 -147 68
t-56 199q0 82 17.5 162.5t51 152.5t82.5 133.5t112 106.5t138.5 70.5t163.5 25.5q53 0 91 -7.5t76 -23.5q72 37 147 37l-158 -805h128v-45q-35 -28 -84 -45t-97 -17q-26 0 -44 6t-29.5 15.5t-16.5 22t-5 24.5q0 67 49 287h-7z" />
    <glyph glyph-name="b" unicode="b" 
d="M296 1250l-123 16v40q28 11 62 22t68.5 20t67.5 15.5t61 9.5l37 -19l-171 -783h10q31 63 74 123t96 106t115 74t133 28q58 0 101.5 -19.5t72.5 -53.5t43.5 -80.5t14.5 -100.5q0 -111 -25 -204t-69.5 -167t-104.5 -130.5t-130.5 -93.5t-148 -56t-156.5 -19q-43 0 -84.5 6
t-77.5 16.5t-64 24t-45 27.5zM652 793q-38 0 -76.5 -19t-75 -50t-70 -70t-62 -79.5t-50.5 -78.5t-35 -66l-70 -339q26 -17 66 -27t78 -10q77 0 156 39t143.5 113.5t105 181t40.5 241.5q0 33 -7.5 62.5t-25.5 52t-46.5 36t-70.5 13.5z" />
    <glyph glyph-name="c" unicode="c" horiz-adv-x="909" 
d="M810 238q-28 -49 -69 -95.5t-93.5 -83t-115.5 -59t-135 -22.5q-155 0 -242 86t-87 248q0 78 18.5 152t52 139.5t81 120.5t106 94.5t127 61.5t143.5 22q48 0 94 -9.5t84.5 -27t67 -43t42.5 -58.5q-2 -24 -17.5 -48.5t-38 -43.5t-49 -31t-49.5 -12v150q-22 16 -62.5 30
t-82.5 14q-65 0 -128 -40t-112.5 -106.5t-80 -153t-30.5 -179.5q0 -60 16.5 -107.5t44 -80.5t64 -50.5t76.5 -17.5q103 0 184.5 51.5t157.5 141.5z" />
    <glyph glyph-name="d" unicode="d" 
d="M326 88q32 0 69.5 21t76 55.5t75.5 77.5t69 87.5t56.5 86t37.5 72.5l49 279q-37 29 -80.5 43.5t-83.5 14.5q-68 0 -123.5 -23t-100 -63t-77 -92t-54.5 -110t-32.5 -118.5t-10.5 -115.5q0 -49 10 -88.5t27.5 -67.5t41 -43.5t50.5 -15.5zM675 345q-23 -63 -69 -128.5
t-104 -118.5t-123 -86.5t-127 -33.5q-45 0 -83.5 18t-67.5 55t-45.5 94.5t-16.5 136.5q0 74 15.5 149t47 144t78 128.5t108.5 104t138.5 69.5t168.5 25q23 0 48 -4.5t49 -12t45 -17.5t38 -21l85 403l-123 16v44q25 10 57.5 20t67 18t69 14.5t64.5 10.5l37 -13l-251 -1263
h128v-45q-35 -28 -84.5 -45t-97.5 -17q-51 0 -72.5 21.5t-21.5 46.5q0 32 11.5 104.5t37.5 182.5h-7z" />
    <glyph glyph-name="e" unicode="e" horiz-adv-x="909" 
d="M796 231q-22 -42 -59 -87t-88.5 -82t-118 -60.5t-146.5 -23.5t-140 26t-100 70t-60.5 103.5t-20.5 127.5q0 81 19.5 156.5t54.5 142t84.5 121.5t109.5 94.5t128.5 61t142.5 21.5q63 0 111 -14t80.5 -38t48.5 -56t16 -68q0 -69 -48.5 -122t-132.5 -89.5t-198 -55.5
t-245 -19q-8 -29 -10.5 -56t-2.5 -45q0 -54 14 -100t42.5 -79.5t72 -52.5t102.5 -19q70 0 152.5 44t162.5 132zM548 824q-38 0 -81 -16.5t-84.5 -53t-77.5 -95.5t-59 -143q89 -6 172 5t147.5 37.5t103 66.5t38.5 91q0 22 -10.5 41.5t-30.5 34.5t-49.5 23.5t-68.5 8.5z" />
    <glyph glyph-name="f" unicode="f" horiz-adv-x="569" 
d="M262 793h-128v45q34 20 73.5 34.5t76.5 23.5l22 104q23 109 63 181t93 115t117 60t135 17q15 0 33.5 -2t38 -5.5t37.5 -8.5t32 -12q-2 -38 -18 -80t-50 -71l-134 109q-31 -8 -58.5 -20.5t-51.5 -42.5t-45.5 -84.5t-40.5 -145.5l-27 -129h165q4 -20 0 -43t-17 -45h-166
l-113 -717q-13 -83 -39.5 -148t-60 -114t-71.5 -84t-73.5 -58t-65.5 -35.5t-48 -17.5l-15 38q21 11 53 39.5t64.5 76t61 114.5t43.5 155z" />
    <glyph glyph-name="g" unicode="g" 
d="M575 902q49 0 87.5 -5.5t68 -15t50.5 -21.5t36 -25q16 14 42 28t56 26.5t61.5 23t60.5 18.5q5 -8 8.5 -25.5t3 -38.5t-6.5 -43.5t-19 -40.5l-181 13q15 -19 20.5 -38.5t5.5 -42.5q0 -70 -25.5 -129.5t-76 -103t-126 -68t-174.5 -24.5q-31 0 -49.5 0.5t-40.5 5.5
q-8 -9 -20 -19t-23 -22t-19 -25t-8 -27q0 -22 24 -36.5t63 -25.5t89.5 -20t102.5 -21t102.5 -28t89.5 -41t63 -60t24 -85q0 -82 -46 -148t-124 -113t-182 -72.5t-220 -25.5q-81 0 -143.5 17t-105.5 45.5t-65.5 65.5t-22.5 77q0 49 22.5 91.5t62.5 80t94 69.5t116 61
q-27 14 -44 38t-17 53q0 27 18 56.5t41.5 55t47.5 45.5t36 28q-30 7 -58.5 21.5t-51 38.5t-36 58t-13.5 80q0 61 26.5 114.5t77.5 93.5t126 63t172 23zM373 -298q54 0 112.5 15.5t107.5 45t80.5 72.5t31.5 98q0 35 -22.5 59.5t-58.5 41.5t-81.5 28t-92 20t-89.5 17t-74 19
q-83 -60 -129 -124.5t-46 -122.5q0 -39 21 -70t56.5 -53t83 -34t100.5 -12zM561 832q-51 0 -95.5 -15t-78 -43t-52.5 -68t-19 -91q0 -43 12.5 -72.5t35 -48t52.5 -26.5t66 -8q52 0 95 15.5t74 45t48 71t17 93.5q0 65 -40 106t-115 41z" />
    <glyph glyph-name="h" unicode="h" 
d="M192 1266v40q27 11 60 22.5t67.5 21t68.5 16t63 7.5l37 -15l-168 -789h9q34 70 78 131t96 106t110.5 70.5t121.5 25.5q40 0 69 -12.5t48 -34t27.5 -51.5t8.5 -64q0 -48 -9 -103t-21 -106l-100 -434h130v-45q-35 -28 -84.5 -45t-98.5 -17q-50 0 -70 21.5t-20 45.5
q0 32 9 71.5t17 79.5l64 294q12 54 22 101.5t10 92.5t-15.5 71t-50.5 26q-39 0 -77.5 -18.5t-75.5 -48t-71 -66.5t-62 -75.5t-49.5 -74t-33.5 -61.5l-93 -449h-148l251 1250z" />
    <glyph glyph-name="i" unicode="i" horiz-adv-x="569" 
d="M141 795v43q26 11 60 22.5t68.5 20.5t67 15t56.5 6l32 -21l-165 -784h130v-45q-38 -28 -87 -45t-97 -17q-51 0 -72.5 22.5t-21.5 52.5q0 36 5.5 69.5t13.5 73.5l123 569zM296 1260q0 45 28.5 70.5t76.5 25.5q47 0 75 -25.5t28 -70.5q0 -46 -28 -71t-75 -25
q-48 0 -76.5 25t-28.5 71z" />
    <glyph glyph-name="j" unicode="j" horiz-adv-x="569" 
d="M265 778l-108 17v43q27 12 58.5 23.5t64 20.5t63.5 14.5t58 5.5l35 -21l-174 -813q-17 -84 -44.5 -148.5t-59.5 -112.5t-66.5 -81.5t-67 -55.5t-60.5 -34t-47 -17l-20 38q22 11 50 36.5t56.5 70.5t55 111.5t46.5 158.5zM309 1260q0 45 28.5 70.5t76.5 25.5q47 0 75 -25.5
t28 -70.5q0 -46 -28 -71t-75 -25q-48 0 -76.5 25t-28.5 71z" />
    <glyph glyph-name="k" unicode="k" horiz-adv-x="909" 
d="M696 -10q-36 0 -74 27.5t-75 70t-71 93.5t-62 98.5t-48 85.5t-28 54l-84 18l-82 -437h-152l252 1250l-123 16v44q25 11 57.5 22t67 19.5t69.5 14.5t65 7l37 -19l-179 -872h72q37 24 83 60t90 74t79.5 73.5t50.5 58.5q3 13 4.5 31t2 37t0.5 36.5t-1 28.5q30 10 63 16.5
t63 6.5q32 0 59 -6.5t47 -16.5q-11 -29 -39.5 -65t-66.5 -74.5t-82 -77t-86 -72.5t-77.5 -61.5t-56.5 -42.5q10 -25 29 -58.5t43 -70t51.5 -74.5t55 -73t53 -65t46.5 -50h111v-45q-36 -28 -76.5 -45t-87.5 -17z" />
    <glyph glyph-name="l" unicode="l" horiz-adv-x="569" 
d="M355 1250l-125 16v44q25 10 58 21.5t68.5 20.5t70.5 15t64 6l35 -19l-260 -1257h129v-45q-35 -28 -85.5 -45t-97.5 -17q-51 0 -75 22.5t-24 52.5q0 36 5.5 69.5t14.5 73.5z" />
    <glyph glyph-name="m" unicode="m" horiz-adv-x="1479" 
d="M1144 528q11 43 20.5 89t9.5 75q0 47 -13.5 74t-53.5 27q-42 0 -89 -33.5t-90.5 -84.5t-79.5 -111t-57 -113l-108 -451h-140l111 494q11 55 20 105.5t9 104.5q0 42 -14 65.5t-49 23.5q-36 0 -81 -33.5t-89.5 -84.5t-82 -111.5t-57.5 -114.5l-94 -449h-151l164 778
l-108 17v43q29 15 61.5 26.5t65 20t62.5 13t54 4.5l37 -21l-77 -312h6q14 33 37.5 70.5t53.5 74.5t65.5 71t73.5 60t77.5 41.5t77.5 15.5q21 0 42 -7t37.5 -25.5t26.5 -50.5t10 -81q0 -38 -7.5 -82.5t-18.5 -86.5q27 60 70.5 119.5t95 107t108.5 77t113 29.5q66 0 100.5 -43
t34.5 -116q0 -57 -10.5 -107t-23.5 -108l-114 -431h131v-45q-36 -28 -86.5 -45t-97.5 -17q-51 0 -70.5 22.5t-19.5 54.5q0 24 7 60.5t18 80.5z" />
    <glyph glyph-name="n" unicode="n" 
d="M733 502q12 54 21.5 101.5t9.5 92.5q0 20 -6 38t-18.5 31t-33 20.5t-49.5 7.5q-32 0 -66 -18t-67.5 -47.5t-65 -66.5t-58 -75.5t-47.5 -74.5t-33 -62l-93 -449h-148l154 778l-107 17l3 43q25 13 56 24.5t63.5 20.5t63.5 14t57 5l36 -21l-67 -312h8q34 70 80 131t98.5 106
t108.5 70.5t111 25.5q36 0 67.5 -12.5t54.5 -34.5t36.5 -52t13.5 -65q0 -19 -2.5 -44t-6.5 -53t-9.5 -56.5t-11.5 -53.5l-110 -434h130v-45q-36 -28 -85.5 -45t-97.5 -17q-50 0 -70 21.5t-20 45.5q0 33 9 72t18 81z" />
    <glyph glyph-name="o" unicode="o" 
d="M75 328q0 62 15.5 128.5t46 130.5t76 121t105 100t133.5 68.5t162 25.5q77 0 139 -21.5t106 -64t67.5 -105t23.5 -144.5q0 -126 -38 -233.5t-106.5 -186.5t-164 -124t-209.5 -45q-83 0 -149 22t-112 66t-70.5 109.5t-24.5 152.5zM577 824q-80 0 -144 -42t-108.5 -113
t-68 -164t-23.5 -195q0 -120 59.5 -188t170.5 -68q55 0 112.5 34t104.5 100t77 164t30 227q0 115 -53.5 180t-156.5 65z" />
    <glyph glyph-name="p" unicode="p" 
d="M161 -271q31 -5 62.5 -16.5t60.5 -27.5v-52h-277l-15 17l243 1128l-108 17v43q59 24 123 44t120 20l35 -21l-72 -310h7q31 70 77 130.5t100 105t113 70t116 25.5q47 0 86 -15.5t66.5 -46t43 -76t15.5 -105.5q0 -152 -46.5 -277t-123.5 -215t-177 -139.5t-207 -49.5
q-61 0 -102 9t-79 27zM680 793q-38 0 -76.5 -18.5t-75.5 -48.5t-71 -68.5t-62.5 -79t-50.5 -80t-35 -70.5l-69 -333q48 -41 169 -41q47 0 93.5 21t89 58.5t79 89.5t63.5 114.5t42.5 133.5t15.5 146q0 49 -8 82.5t-23 54.5t-35.5 30t-45.5 9z" />
    <glyph glyph-name="q" unicode="q" 
d="M697 -271q31 -5 62 -16.5t61 -27.5v-52h-276l-16 15l163 695h-7q-23 -62 -63 -126.5t-92.5 -117.5t-116 -87t-132.5 -34q-52 0 -94 17.5t-72 51t-46.5 84t-16.5 116.5q0 83 17 164t50.5 154t83 134.5t113.5 106.5t143 70.5t171 25.5q47 0 95 -6t90 -15t75 -19.5t50 -19.5
zM338 88q46 0 99.5 37t105 95t97.5 128.5t79 137.5l58 310q-10 7 -28 12.5t-40.5 9.5t-47.5 6t-48 2q-65 0 -120 -23.5t-100 -64t-79.5 -95t-58.5 -116t-36 -126.5t-12 -127q0 -90 35 -138t96 -48z" />
    <glyph glyph-name="r" unicode="r" horiz-adv-x="797" 
d="M624 773q-36 -3 -75 -25t-76 -58.5t-69 -87t-54 -111.5l-106 -491h-151l164 778l-108 17v43q60 28 124.5 43t118.5 21l35 -21l-49 -234h7q26 57 69 104t92.5 80.5t100 52t92.5 18.5q23 0 45.5 -5t43.5 -16q0 -17 -5.5 -42t-14.5 -51.5t-21 -50t-24 -36.5z" />
    <glyph glyph-name="s" unicode="s" horiz-adv-x="797" 
d="M467 208q0 42 -22.5 73t-56 59t-73 56t-73 63t-56 80t-22.5 108t24.5 110.5t68.5 79.5t104.5 48.5t132.5 16.5q36 0 72.5 -7t68.5 -20t57.5 -31.5t37.5 -40.5q0 -19 -8.5 -39.5t-21.5 -39.5t-29.5 -34t-32.5 -22l-61 137q-8 7 -29.5 13t-53.5 6q-36 0 -68 -7t-56 -22.5
t-37.5 -41.5t-13.5 -64q0 -45 23 -78.5t57 -62t74.5 -56t74.5 -62t57 -79t23 -106.5q0 -63 -26.5 -113t-71.5 -84t-104 -52t-124 -18q-51 0 -99 11.5t-87.5 32.5t-69 50.5t-44.5 66.5q5 23 17 43t28 37t35 30.5t38 24.5l53 -180q13 -17 41.5 -28.5t66.5 -11.5q30 0 62.5 9
t60 28t45.5 48t18 69z" />
    <glyph glyph-name="t" unicode="t" horiz-adv-x="569" 
d="M115 838q35 20 75 35.5t79 24.5l38 188q25 20 57.5 35t67.5 29l37 -22l-53 -247h179q2 -22 -0.5 -45t-17.5 -43h-179l-111 -511q-6 -34 -9.5 -59t-3.5 -47q0 -47 16 -67.5t48 -20.5q43 0 79 16.5t78 38.5l19 -32q-16 -23 -44.5 -46.5t-64.5 -42.5t-78 -31.5t-86 -12.5
q-126 0 -126 145q0 26 4.5 55.5t11.5 61.5l116 553h-133z" />
    <glyph glyph-name="u" unicode="u" 
d="M914 97v-45q-35 -28 -85 -45t-98 -17q-51 0 -73 21.5t-22 45.5q0 32 15 106.5t44 181.5h-7q-15 -32 -37.5 -72t-52 -81t-65 -79.5t-76.5 -68.5t-86.5 -48t-95.5 -18q-89 0 -127.5 44t-38.5 122q0 26 7 69.5t18.5 97t26 114t29.5 122.5t29.5 121t25.5 110l-108 17v43
q28 11 60.5 21.5t65 19t63 15t54.5 8.5l39 -21q-11 -61 -27.5 -129t-34 -136.5t-35 -134.5t-31.5 -124.5t-22.5 -106.5t-8.5 -79q0 -38 20 -60.5t66 -22.5q40 0 81 24.5t80.5 63t75.5 86.5t64.5 94t49 85t28.5 61l83 379h141l-165 -784h130z" />
    <glyph glyph-name="v" unicode="v" horiz-adv-x="909" 
d="M515 266q30 43 64.5 93.5t67 104t60.5 107.5t45 104q-1 19 -6.5 49.5t-12 61.5t-13.5 57.5t-10 37.5q51 21 105 22t94 -22q1 -55 -20 -123t-57.5 -144t-85 -156.5t-102.5 -160t-109.5 -155.5t-105.5 -142l-84 -22q-33 202 -71 401t-89 399l-112 15v44q10 7 30.5 18
t46 21.5t53.5 18t53 7.5q38 0 55 -19.5t22 -47.5q35 -144 63 -286.5t48 -286.5l4 -94h3z" />
    <glyph glyph-name="w" unicode="w" horiz-adv-x="1366" 
d="M994 279q71 103 115.5 197t77.5 193q-1 19 -5 50.5t-9 64t-10 59.5t-8 38q25 10 53 15.5t54 5.5q27 0 50 -5.5t43 -15.5q-9 -86 -49 -193t-102 -223t-143 -235t-172 -230l-83 -22l-64 501v144h-5l-71 -144q-49 -115 -114 -238t-133 -241l-97 -22q-17 200 -45 398t-70 402
l-112 15v44q10 7 30.5 18t46 21.5t53.5 18t53 7.5q38 0 56.5 -19t25.5 -48q8 -36 18.5 -96.5t21 -135t20.5 -158t18 -166.5l-1 -82h3l43 91l289 571l60 22q44 -301 83 -602l10 -104h3z" />
    <glyph glyph-name="x" unicode="x" horiz-adv-x="909" 
d="M390 379q-26 -21 -56 -46.5t-58.5 -53t-52.5 -54.5t-36 -49q-3 -12 -4.5 -35.5t-2 -48.5t-0.5 -47.5t2 -32.5q-31 -11 -62 -16.5t-59 -5.5q-56 0 -96 22q10 35 38 77t65.5 85t80.5 85.5t83.5 79.5t74.5 66t53 45l-140 318l-112 14v44q10 8 30.5 19t45.5 21.5t52 17.5
t51 7q19 0 33 -5.5t24 -15t16.5 -21.5t11.5 -25l118 -315q25 22 53.5 47t55 51t48 51.5t33.5 47.5q3 13 2.5 36t-2 48t-4 47t-3.5 33q31 11 60 17t58 6q28 0 53 -6t45 -17q-10 -35 -36.5 -75.5t-61.5 -82.5t-75.5 -82.5t-78.5 -75.5t-70 -63t-50 -44l147 -336l114 -14v-45
q-10 -6 -30 -16.5t-44 -20.5t-50.5 -17.5t-50.5 -7.5q-38 0 -56.5 19.5t-28.5 47.5z" />
    <glyph glyph-name="y" unicode="y" horiz-adv-x="909" 
d="M403 0q-14 69 -32 149t-38.5 161t-43 158t-44.5 140.5t-43 108.5t-39 61l-113 15v44q9 6 29.5 17t46 21.5t54 18.5t53.5 8q37 0 55.5 -20t30.5 -48q22 -51 47 -118t49.5 -145t46.5 -163.5t37 -172.5l5 -105h4l44 103q25 49 51.5 104t51 111.5t45.5 112t35 105.5
q-1 19 -6 51t-12 65t-13.5 60.5t-9.5 38.5q25 10 53 15.5t54 5.5t50 -5.5t44 -15.5q-8 -59 -27.5 -126t-46.5 -138t-60 -144.5t-68.5 -144t-71 -136t-67.5 -122.5q-68 -120 -124.5 -205.5t-110.5 -139.5t-109.5 -79.5t-121.5 -25.5q-21 0 -44 7t-50 21q-2 20 3.5 45t17.5 49
t30 45t41 33l143 -74q13 9 36 33t48 58.5t49.5 76.5t40.5 86z" />
    <glyph glyph-name="z" unicode="z" horiz-adv-x="797" 
d="M617 750q-80 -5 -166 0t-184 21l-81 -126l-44 10l25 180q10 69 95 69q31 0 71.5 -5.5t93 -13t118.5 -15.5t149 -13l40 45q23 -5 43 -18t24 -39l-577 -667q103 -19 188.5 -52t168.5 -79l102 116l43 -24l-62 -179q-8 -27 -31.5 -44.5t-56.5 -17.5t-78.5 22t-102.5 50.5
t-125 56.5t-146 40l-61 -77q-23 4 -42.5 20.5t-21.5 42.5z" />
    <glyph glyph-name="braceleft" unicode="{" horiz-adv-x="819" 
d="M287 215q21 100 -6.5 156t-102.5 56l12 57q37 0 69 16t57.5 43.5t43.5 65t27 79.5l99 463q10 46 29.5 84t48.5 65t67 42t85 15h174l-18 -82h-92q-54 0 -83 -26.5t-43 -89.5l-95 -451q-14 -64 -44 -108.5t-67.5 -73t-78.5 -43t-76 -18.5l-3 -12q33 -3 67.5 -19t60 -46.5
t36 -76t-2.5 -108.5l-96 -453q-13 -60 4.5 -88t72.5 -28h91l-17 -80h-174q-87 0 -125.5 51t-16.5 153z" />
    <glyph glyph-name="bar" unicode="|" horiz-adv-x="563" 
d="M238 1357h101v-1609h-101v1609z" />
    <glyph glyph-name="braceright" unicode="}" horiz-adv-x="819" 
d="M529 697q-21 -100 7.5 -155.5t103.5 -55.5l-12 -57q-37 0 -69.5 -16t-58 -44t-44 -65t-27.5 -79l-99 -465q-10 -46 -29.5 -84t-48.5 -65t-67 -42t-84 -15h-175l17 80h96q54 0 82.5 26.5t42.5 89.5l96 455q13 64 40 108.5t61 72.5t72 42.5t73 18.5l2 12q-32 4 -63 20
t-52.5 46t-30 75.5t5.5 108.5l95 450q13 60 -4.5 88t-72.5 28h-94l17 82h177q87 0 124.5 -51t15.5 -153z" />
    <glyph glyph-name="asciitilde" unicode="~" horiz-adv-x="1108" 
d="M20 623q35 52 68.5 87.5t65 57t62 31t59.5 9.5q49 0 95.5 -20.5t91.5 -45.5t90 -45.5t93 -20.5q35 0 73 14.5t77 51.5l25 -41q-55 -81 -110.5 -115t-108.5 -34q-50 0 -97.5 20.5t-94 45.5t-93 45.5t-93.5 20.5q-42 0 -85.5 -23.5t-88.5 -83.5z" />
    <glyph glyph-name="exclamdown" unicode="&#xa1;" horiz-adv-x="797" 
d="M440 554l-10 -341l-122 -573q-47 -23 -92.5 -23t-81.5 23l122 573l134 341h50zM347 865q0 58 37 92.5t95 34.5q60 0 97 -34.5t37 -92.5q0 -57 -37 -91.5t-97 -34.5q-58 0 -95 34.5t-37 91.5z" />
    <glyph glyph-name="cent" unicode="&#xa2;" 
d="M806 128q-25 -33 -58.5 -60.5t-73.5 -47t-86 -31t-96 -12.5l-61 -288h-97l63 297q-66 6 -120 35.5t-92 77.5t-59 111.5t-21 136.5q0 123 40.5 225t108.5 177.5t157 122t187 58.5l59 279h97l-58 -272q88 0 154.5 -15t111.5 -41q-9 -30 -22 -65.5t-28 -70.5t-31.5 -67
t-32.5 -57h-46l-29 217q-10 9 -25.5 13.5t-52.5 4.5h-18l-161 -759q31 -6 63 -6q66 0 117 18.5t89 44.5zM290 381q0 -41 7.5 -80t24 -72.5t42.5 -60.5t64 -45l153 719q-68 -19 -122 -62t-91.5 -104t-57.5 -136t-20 -159z" />
    <glyph glyph-name="sterling" unicode="&#xa3;" 
d="M140 738h165q-10 36 -17 84.5t-7 100.5q0 109 37.5 194t103.5 143t155.5 88.5t192.5 30.5q111 0 184.5 -19.5t123.5 -45.5q-9 -32 -23 -75t-30.5 -89t-33.5 -90t-31 -78h-49l-21 266q-33 16 -66 23.5t-78 7.5q-80 0 -133 -30t-85 -79t-45.5 -111.5t-13.5 -128.5
q0 -53 5.5 -100t12.5 -92h302l-21 -99h-267q2 -48 -0.5 -95t-16.5 -104q-17 -66 -54 -125.5t-101 -105.5l-75 -54l-2 -7l112 11h356l140 217h49q-6 -42 -13 -93t-15 -102t-16 -98.5t-15 -82.5h-850l13 60q74 40 133.5 86.5t101.5 103.5t65 127t23 158q0 28 -1.5 56t-5.5 48
h-210z" />
    <glyph glyph-name="currency" unicode="&#xa4;" 
d="M90 329l161 159l67 22q-28 33 -39 73t-11 88q0 45 12 85.5t38 75.5l-67 20l-159 161l104 105l159 -161l23 -66q34 25 73 38.5t86 13.5q47 -2 88 -14.5t71 -37.5l25 66l159 159l103 -105l-161 -159l-62 -20q22 -32 33 -74t11 -87q2 -49 -9.5 -88.5t-34.5 -74.5l62 -20
l159 -161l-103 -104l-159 158l-23 66q-30 -22 -71 -34t-88 -12t-86.5 12t-75.5 34l-20 -63l-161 -159zM537 512q35 0 65 11.5t52.5 32.5t35 50.5t12.5 64.5q0 34 -12.5 63.5t-35 51.5t-52.5 34t-65 12t-64.5 -12t-52 -33.5t-35 -51.5t-12.5 -64q0 -35 12.5 -64.5t35 -50.5
t52 -32.5t64.5 -11.5z" />
    <glyph glyph-name="yen" unicode="&#xa5;" 
d="M820 1357h407l-12 -57q-35 -17 -68 -30t-70 -18l-378 -603h279l-22 -100h-315l-26 -122h315l-21 -102h-315l-47 -222q35 -5 69.5 -16.5t67.5 -30.5l-12 -56h-492l12 56q78 35 169 47l47 222h-316l21 102h316l26 122h-316l22 100h275l-143 603q-38 7 -75.5 21.5
t-61.5 26.5l12 57h503l-12 -57q-32 -11 -70.5 -24t-88.5 -24l116 -572l341 572q-42 10 -82.5 23t-66.5 25z" />
    <glyph glyph-name="brokenbar" unicode="&#xa6;" horiz-adv-x="563" 
d="M238 368h101v-620h-101v620zM339 736h-101v621h101v-621z" />
    <glyph glyph-name="section" unicode="&#xa7;" 
d="M608 107q0 36 -20 62t-52.5 46t-74 37t-85 34.5t-85 39t-74 50.5t-52.5 68.5t-20 93.5q0 62 26 112t70 90t102 72t123 58q-30 16 -56.5 36.5t-46 46.5t-31 58.5t-11.5 73.5q0 65 29 119t79.5 93t119 60.5t148.5 21.5q52 0 96 -2.5t81.5 -8t70 -13.5t61.5 -20
q-10 -31 -19 -53.5t-19 -43.5t-22.5 -44t-29.5 -55h-48l-79 140q-22 8 -41.5 11.5t-50.5 3.5q-46 0 -82.5 -15t-61.5 -38t-38 -52t-13 -57q0 -37 20 -64t52 -49.5t73.5 -41.5t85 -38.5t85 -41.5t73.5 -50.5t52 -65.5t20 -86q0 -65 -30.5 -118t-77.5 -95t-103 -73t-107 -52
q31 -15 57.5 -33.5t46.5 -41t31.5 -50.5t11.5 -63q0 -72 -33 -132.5t-92 -104t-140.5 -67.5t-178.5 -24q-85 0 -159 14.5t-143 41.5q9 35 18.5 60t20 46.5t23 44t29.5 52.5h48l92 -152q17 -18 38 -21t47 -3q51 0 96 15t78.5 40.5t52.5 58.5t19 69zM779 632q0 40 -20 69
t-53 51.5t-75 41.5t-85 38q-39 -17 -78 -41t-70 -54t-50 -64t-19 -71q0 -42 20.5 -73.5t53.5 -56t75.5 -43.5t86.5 -37q40 22 78.5 50.5t68.5 60t48.5 64.5t18.5 65z" />
    <glyph glyph-name="dieresis" unicode="&#xa8;" horiz-adv-x="682" 
d="M268 1262q0 44 27 70.5t71 26.5q45 0 72 -26.5t27 -70.5q0 -42 -27 -68t-72 -26q-44 0 -71 26t-27 68zM634 1262q0 44 27.5 70.5t70.5 26.5q45 0 72.5 -26.5t27.5 -70.5q0 -42 -27.5 -68t-72.5 -26q-43 0 -70.5 26t-27.5 68z" />
    <glyph glyph-name="copyright" unicode="&#xa9;" horiz-adv-x="1556" 
d="M139 562q0 107 26 199t72.5 168t110.5 134.5t140 98.5t161 61t174 21t174 -21t160.5 -61t139.5 -98.5t110 -134.5t72 -168t26 -199t-26 -199.5t-72 -168t-110 -134t-139.5 -99t-160.5 -61t-174 -20.5q-140 0 -264.5 46t-217.5 134t-147.5 214.5t-54.5 287.5zM240 562
q0 -134 46 -243t125 -186.5t185 -119.5t227 -42t227 42t185 119.5t124.5 186.5t45.5 243t-48.5 243t-129 186.5t-185.5 119.5t-219 42q-128 0 -235 -42.5t-184.5 -120t-120.5 -186.5t-43 -242zM1028 399h49q4 -15 7 -38t4.5 -50t1.5 -54.5t-3 -51.5q-17 -13 -43 -22t-56 -14
t-60.5 -7.5t-55.5 -2.5q-95 0 -174 26t-136 77.5t-88.5 127t-31.5 174.5q0 100 35.5 176t93 127t130 76.5t146.5 25.5q75 0 134.5 -10.5t99.5 -30.5q2 -17 2 -45.5t-2.5 -59t-6.5 -60t-9 -48.5h-48l-58 161q-14 8 -42.5 9.5t-56.5 1.5q-55 0 -98.5 -22.5t-74 -64.5
t-46.5 -101.5t-16 -134.5q0 -65 14 -124t45 -104t79 -71.5t117 -26.5q38 0 62.5 8t31.5 15z" />
    <glyph glyph-name="ordfeminine" unicode="&#xaa;" horiz-adv-x="565" 
d="M538 913q-13 -25 -36 -58t-56 -63t-75 -51t-92 -21q-81 0 -126 53.5t-45 150.5q0 89 30 161.5t81 123t118 78t141 27.5q34 0 73 -8t68 -26l105 27l30 -14l-100 -480l89 -16v-32q-28 -18 -71.5 -31.5t-96.5 -13.5q-36 0 -47.5 19.5t-7.5 43.5l25 130h-7zM340 808
q31 0 64 20t63 49.5t54.5 64t38.5 65.5l41 206q-24 11 -51.5 21.5t-58.5 10.5q-44 0 -86 -19.5t-75 -58t-53.5 -97.5t-20.5 -135q0 -55 21 -91t63 -36z" />
    <glyph glyph-name="guillemotleft" unicode="&#xab;" 
d="M489 501l414 398l40 -37l-279 -346l138 -367l-54 -38zM114 501l497 401l43 -38l-345 -350l205 -366l-59 -41z" />
    <glyph glyph-name="logicalnot" unicode="&#xac;" horiz-adv-x="1382" 
d="M150 750h823v-366h-120v244h-703v122z" />
    <glyph glyph-name="registered" unicode="&#xae;" horiz-adv-x="1556" 
d="M139 874q0 124 41.5 220t112.5 161.5t164.5 99.5t198.5 34q108 0 202.5 -34t164.5 -99.5t110 -161.5t40 -220q0 -125 -41.5 -221.5t-112 -162t-164.5 -99.5t-199 -34q-108 0 -202 34t-164 99.5t-110.5 162t-40.5 221.5zM229 874q0 -101 34 -181.5t92 -137t136 -87
t165 -30.5q91 0 169 30t135 86.5t89.5 137t32.5 182.5q0 100 -33.5 180.5t-91.5 137t-135.5 87t-165.5 30.5q-92 0 -170.5 -30.5t-135.5 -87t-89 -137t-32 -180.5zM590 662q25 -2 42 -6.5t30 -10.5v-46h-241v46q17 6 33 10t35 7v452q-20 2 -35.5 7.5t-32.5 13.5v43h74
q18 0 39.5 1t44 2.5t43.5 2.5t36 1q43 0 82.5 -9t69.5 -28.5t48 -50.5t18 -74q0 -30 -11.5 -53.5t-30 -41.5t-43.5 -30.5t-52 -21.5q18 -29 34 -56t34 -54t39 -53t48 -51l45 -23v-40h-98l-54 21q-48 58 -76.5 120t-50.5 118h-70v-196zM648 1124q-20 0 -33 -1.5t-25 -4.5
v-203h62q57 0 85.5 28t26.5 80q-2 51 -33.5 76t-82.5 25z" />
    <glyph glyph-name="macron" unicode="&#xaf;" 
d="M197 1227v95h463v-95h-463z" />
    <glyph glyph-name="degree" unicode="&#xb0;" horiz-adv-x="819" 
d="M213 1106q0 60 21.5 110.5t59 86.5t87.5 56t107 20t107 -17t87 -51.5t58.5 -85.5t21.5 -119q0 -64 -21.5 -114.5t-58.5 -86t-87 -54t-107 -18.5t-107 18.5t-87.5 54t-59 86t-21.5 114.5zM322 1106q0 -39 13.5 -71.5t36.5 -56.5t53 -37t63 -13q75 0 121 46.5t46 131.5
q0 41 -12.5 74t-34.5 56.5t-53 36t-67 12.5q-37 0 -67.5 -13t-52.5 -36.5t-34 -56.5t-12 -73z" />
    <glyph glyph-name="plusminus" unicode="&#xb1;" horiz-adv-x="1124" 
d="M53 950h385v407h102v-407h386v-103h-386v-298h-102v298h-385v103zM53 446h873v-104h-873v104z" />
    <glyph glyph-name="twosuperior" unicode="&#xb2;" horiz-adv-x="614" 
d="M337 1250h-45q-6 19 -13 52t-12.5 69t-9 69.5t-3.5 53.5q7 5 31.5 18.5t60 27.5t79.5 24.5t89 10.5q58 0 97 -16.5t64 -43.5q27 -29 38.5 -65.5t11.5 -74.5q0 -45 -20.5 -93.5t-54 -96t-76 -94t-86.5 -87.5t-85 -76t-72 -60l-2 -11l63 13h155l112 130h43q-1 -26 -5 -60.5
t-9 -70t-11 -68t-10 -53.5h-527l13 64q47 36 96.5 78t96 88t87.5 95t71.5 99t48 100t17.5 98q0 25 -5.5 44.5t-15.5 33.5q-11 16 -31 25t-43 9q-20 0 -39.5 -4.5t-35.5 -12.5z" />
    <glyph glyph-name="threesuperior" unicode="&#xb3;" horiz-adv-x="614" 
d="M377 819q54 0 89.5 16.5t56.5 43t29.5 60t8.5 66.5q0 53 -37.5 84t-127.5 31h-24l11 50l186 211l87 81l1 4l-122 -8h-102l-98 -178h-42q-5 25 -6.5 63.5t-0.5 79t4 77.5t8 58h515l-15 -70l-203 -206l-78 -77v-2l46 -4q25 -2 54 -12.5t53.5 -29t40.5 -46t16 -64.5
q0 -70 -24.5 -127.5t-90.5 -108.5q-54 -42 -115.5 -61.5t-141.5 -19.5q-21 0 -49 4t-59 13.5t-61.5 27t-55.5 44.5l104 179h35q3 -12 5.5 -31t5 -39t4.5 -38.5t5 -29.5q10 -17 36.5 -29t51.5 -12z" />
    <glyph glyph-name="acute" unicode="&#xb4;" horiz-adv-x="682" 
d="M649 1426q15 2 46 1t63 -5t59.5 -10.5t35.5 -15.5l-2 -35l-382 -271l-52 39z" />
    <glyph glyph-name="mu" unicode="&#xb5;" horiz-adv-x="1180" 
d="M118 27l6 -338l-10 -45q-46 -11 -83 -11q-20 0 -39.5 2.5t-37.5 8.5l240 1134l-106 15v45q61 23 122.5 39.5t118.5 24.5l40 -20q-15 -65 -27 -119.5t-25 -110.5t-27 -121t-32 -151q-14 -69 -21.5 -123.5t-4 -92t19.5 -57t49 -19.5q39 0 84.5 30t90.5 82.5t86.5 124.5
t74.5 156l74 393l150 8l-146 -783l130 -2l-2 -46q-40 -26 -75 -49.5t-70 -24.5q-9 0 -19.5 2.5t-20.5 10.5l-93 64l51 289h-7q-89 -189 -183 -277t-197 -88q-31 0 -52 11t-49 38h-10z" />
    <glyph glyph-name="paragraph" unicode="&#xb6;" horiz-adv-x="1071" 
d="M719 183q0 -131 -18 -213t-50.5 -131.5t-78 -73t-101.5 -35.5q-20 -31 -43 -54.5t-48 -40t-50.5 -28t-50.5 -18.5l-23 39q43 18 79 47.5t62 78.5t41 120t15 172v555q-61 0 -122.5 19.5t-110.5 63t-80 114t-31 171.5q0 81 23.5 151.5t72 123t121.5 83t172 30.5h368v-59
q-32 -14 -68 -26.5t-79 -19.5v-1069zM494 -225q40 17 66.5 50.5t42 84.5t21.5 119t6 154v1078h-85v-1215q0 -77 -11.5 -149t-39.5 -122z" />
    <glyph glyph-name="periodcentered" unicode="&#xb7;" horiz-adv-x="512" 
d="M211 595q0 58 37 92.5t95 34.5q60 0 97 -34.5t37 -92.5q0 -57 -37 -91.5t-97 -34.5q-58 0 -95 34.5t-37 91.5z" />
    <glyph glyph-name="cedilla" unicode="&#xb8;" horiz-adv-x="682" 
d="M138 -124q99 -3 138 -38t29 -93q-10 -53 -46.5 -92t-86 -64.5t-105.5 -37.5t-104 -10l1 54q41 6 76 16t60 26.5t39 39.5t14 55q0 36 -32.5 53.5t-98.5 22.5l108 194h82z" />
    <glyph glyph-name="onesuperior" unicode="&#xb9;" horiz-adv-x="614" 
d="M605 748h-443l9 40q12 7 30 16t39 18.5t44 18t46 13.5l101 478l27 87q-24 -6 -45 -10.5t-42 -7t-44 -3t-51 0.5l12 55q84 19 152 49.5t136 71.5h61l-153 -721q19 -6 39 -15t38 -18.5t32 -18t21 -14.5z" />
    <glyph glyph-name="ordmasculine" unicode="&#xba;" horiz-adv-x="635" 
d="M157 941q0 81 31.5 149.5t84.5 118t121.5 77.5t142.5 28q61 0 108 -16.5t79 -46.5t48.5 -72t16.5 -92q0 -92 -34 -161t-88.5 -114t-122 -68.5t-134.5 -23.5q-53 0 -99 16.5t-80.5 46.5t-54 69.5t-19.5 88.5zM303 939q0 -30 6.5 -58.5t21 -48.5t37.5 -33t55 -13
q39 0 78 19.5t70.5 58t51.5 99.5t20 145q0 26 -6 51t-20 44.5t-37.5 31.5t-58.5 12q-39 0 -78 -23.5t-70 -64.5t-50.5 -97.5t-19.5 -122.5z" />
    <glyph glyph-name="guillemotright" unicode="&#xbb;" 
d="M95 111l-38 38l292 357l-131 356l55 37l245 -398zM386 107l-41 41l356 355l-194 361l58 38l327 -401z" />
    <glyph glyph-name="onequarter" unicode="&#xbc;" horiz-adv-x="1536" 
d="M525 547h-443l9 40q12 7 30 16t39 18.5t44 18t46 13.5l101 478l27 87q-24 -6 -45 -10.5t-42 -7t-44 -3t-51 0.5l12 55q84 19 152 49.5t136 71.5h61l-153 -721q19 -6 39 -15t38 -18.5t32 -18t21 -14.5zM1520 1375l55 -59l-1416 -1329l-52 61zM1276 -6h-379l8 41
q36 15 70 28t62 18l30 140h-343l10 46l544 555h70l-109 -510h104l-19 -91h-104l-30 -140q25 -9 49.5 -20.5t44.5 -25.5zM1131 524l30 83h-5l-63 -86l-170 -178l-58 -44l104 13h117z" />
    <glyph glyph-name="onehalf" unicode="&#xbd;" horiz-adv-x="1536" 
d="M525 547h-443l9 40q12 7 30 16t39 18.5t44 18t46 13.5l101 478l27 87q-24 -6 -45 -10.5t-42 -7t-44 -3t-51 0.5l12 55q84 19 152 49.5t136 71.5h61l-153 -721q19 -6 39 -15t38 -18.5t32 -18t21 -14.5zM1461 1375l55 -59l-1416 -1329l-52 61zM1079 502h-45q-6 19 -13 52
t-12.5 69t-9 69.5t-3.5 53.5q7 5 31.5 18.5t60 27.5t79.5 24.5t89 10.5q58 0 97 -16.5t64 -43.5q27 -29 38.5 -65.5t11.5 -74.5q0 -45 -20.5 -93.5t-54 -96t-76 -94t-86.5 -87.5t-85 -76t-72 -60l-2 -11l63 13h155l112 130h43q-1 -26 -5 -60.5t-9 -70t-11 -68t-10 -53.5
h-527l13 64q47 36 96.5 78t96 88t87.5 95t71.5 99t48 100t17.5 98q0 25 -5.5 44.5t-15.5 33.5q-11 16 -31 25t-43 9q-20 0 -39.5 -4.5t-35.5 -12.5z" />
    <glyph glyph-name="threequarters" unicode="&#xbe;" horiz-adv-x="1536" 
d="M346 619q54 0 89.5 16.5t56.5 43t29.5 60t8.5 66.5q0 53 -37.5 84t-127.5 31h-24l11 50l186 211l87 81l1 4l-122 -8h-102l-98 -178h-42q-5 25 -6.5 63.5t-0.5 79t4 77.5t8 58h515l-15 -70l-203 -206l-78 -77v-2l46 -4q25 -2 54 -12.5t53.5 -29t40.5 -46t16 -64.5
q0 -70 -24.5 -127.5t-90.5 -108.5q-54 -42 -115.5 -61.5t-141.5 -19.5q-21 0 -49 4t-59 13.5t-61.5 27t-55.5 44.5l104 179h35q3 -12 5.5 -31t5 -39t4.5 -38.5t5 -29.5q10 -17 36.5 -29t51.5 -12zM1530 1375l55 -59l-1416 -1329l-52 61zM1329 0h-379l8 41q36 15 70 28t62 18
l30 140h-343l10 46l544 555h70l-109 -510h104l-19 -91h-104l-30 -140q25 -9 49.5 -20.5t44.5 -25.5zM1184 530l30 83h-5l-63 -86l-170 -178l-58 -44l104 13h117z" />
    <glyph glyph-name="questiondown" unicode="&#xbf;" 
d="M653 -29h49q1 -26 3 -60.5t2.5 -73.5t-1 -80t-5.5 -79q-31 -17 -64.5 -31.5t-73.5 -25.5t-89 -17.5t-110 -6.5q-73 0 -133 21.5t-102.5 58t-65.5 85t-23 102.5q0 76 30 136t74 108t95 85t92 67q24 17 54 36t61 42t61 50.5t55.5 62.5t43.5 78t25 97h39q0 -3 0.5 -18
t0.5 -34.5v-39v-31.5q0 -48 -21 -90t-57.5 -82t-85 -81t-102.5 -87q-55 -47 -90.5 -87.5t-56 -78t-28 -73.5t-6.5 -74q1 -48 23 -78t51 -47t59 -23.5t48 -6.5q23 0 46 3t43.5 8.5t37 12t26.5 13.5zM532 865q0 58 37 92.5t95 34.5q60 0 97 -34.5t37 -92.5q0 -57 -37 -91.5
t-97 -34.5q-58 0 -95 34.5t-37 91.5z" />
    <glyph glyph-name="Agrave" unicode="&#xc0;" horiz-adv-x="1251" 
d="M352 56l-12 -56h-430l12 56q39 17 75.5 28t73.5 19l802 1276h56l169 -1276q37 -8 72.5 -18t64.5 -29l-12 -56h-488l12 56q43 15 85.5 27t83.5 20l-43 344h-467l-210 -344q41 -6 79.5 -18t76.5 -29zM813 928l-18 169h-4l-93 -173l-230 -376h392zM1001 1490l-42 -37
l-399 176l8 39q14 14 39 26t52.5 20.5t53 13t39.5 2.5z" />
    <glyph glyph-name="Aacute" unicode="&#xc1;" horiz-adv-x="1251" 
d="M352 56l-12 -56h-430l12 56q39 17 75.5 28t73.5 19l802 1276h56l169 -1276q37 -8 72.5 -18t64.5 -29l-12 -56h-488l12 56q43 15 85.5 27t83.5 20l-43 344h-467l-210 -344q41 -6 79.5 -18t76.5 -29zM813 928l-18 169h-4l-93 -173l-230 -376h392zM1108 1730q17 2 46.5 -2.5
t59.5 -13t55 -20.5t34 -26l-8 -39l-409 -180l-42 41z" />
    <glyph glyph-name="Acircumflex" unicode="&#xc2;" horiz-adv-x="1251" 
d="M352 56l-12 -56h-430l12 56q39 17 75.5 28t73.5 19l802 1276h56l169 -1276q37 -8 72.5 -18t64.5 -29l-12 -56h-488l12 56q43 15 85.5 27t83.5 20l-43 344h-467l-210 -344q41 -6 79.5 -18t76.5 -29zM813 928l-18 169h-4l-93 -173l-230 -376h392zM673 1474q-14 8 -22.5 17
t-10.5 23l292 216q13 7 26.5 7.5t23.5 -7.5l198 -211q-2 -13 -11.5 -23t-25.5 -17l-211 110z" />
    <glyph glyph-name="Atilde" unicode="&#xc3;" horiz-adv-x="1251" 
d="M352 56l-12 -56h-430l12 56q39 17 75.5 28t73.5 19l802 1276h56l169 -1276q37 -8 72.5 -18t64.5 -29l-12 -56h-488l12 56q43 15 85.5 27t83.5 20l-43 344h-467l-210 -344q41 -6 79.5 -18t76.5 -29zM813 928l-18 169h-4l-93 -173l-230 -376h392zM1242 1590
q-62 -61 -113.5 -84.5t-99.5 -23.5q-36 0 -68.5 10.5t-63 22.5t-60 22.5t-59.5 10.5q-26 0 -55 -11.5t-60 -37.5l-37 57q73 65 131 89.5t106 24.5q35 0 66.5 -9.5t61 -21.5t58.5 -21.5t60 -9.5q25 0 51.5 8.5t57.5 30.5z" />
    <glyph glyph-name="Adieresis" unicode="&#xc4;" horiz-adv-x="1251" 
d="M352 56l-12 -56h-430l12 56q39 17 75.5 28t73.5 19l802 1276h56l169 -1276q37 -8 72.5 -18t64.5 -29l-12 -56h-488l12 56q43 15 85.5 27t83.5 20l-43 344h-467l-210 -344q41 -6 79.5 -18t76.5 -29zM813 928l-18 169h-4l-93 -173l-230 -376h392zM594 1579q0 46 31.5 69
t79.5 23q47 0 77.5 -23t30.5 -69q0 -45 -30.5 -68t-77.5 -23q-48 0 -79.5 23t-31.5 68zM1027 1579q0 46 30.5 69t77.5 23q48 0 79 -23t31 -69q0 -45 -31 -68t-79 -23q-47 0 -77.5 23t-30.5 68z" />
    <glyph glyph-name="Aring" unicode="&#xc5;" horiz-adv-x="1251" 
d="M352 56l-12 -56h-430l12 56q39 17 75.5 28t73.5 19l802 1276h56l169 -1276q37 -8 72.5 -18t64.5 -29l-12 -56h-488l12 56q43 15 85.5 27t83.5 20l-43 344h-467l-210 -344q41 -6 79.5 -18t76.5 -29zM813 928l-18 169h-4l-93 -173l-230 -376h392zM704 1519q0 39 17.5 70
t48 52t71 32.5t86.5 11.5q38 0 76 -9.5t68 -29t49 -49.5t19 -72q0 -38 -17.5 -68t-47.5 -50t-68.5 -30.5t-80.5 -10.5q-49 0 -89.5 10t-70 29.5t-45.5 48t-16 65.5zM813 1519q0 -20 9.5 -34t24.5 -23t33.5 -13t36.5 -4q50 0 81.5 18t31.5 54q0 25 -10 42t-25.5 27.5
t-34.5 15t-37 4.5q-47 0 -78.5 -19t-31.5 -68z" />
    <glyph glyph-name="AE" unicode="&#xc6;" horiz-adv-x="1821" 
d="M1739 1357q-19 -78 -39 -157t-49 -158h-48l-36 213h-463l-109 -513h356l108 143h46q-13 -97 -33.5 -194t-49.5 -197h-46l-47 147h-356l-115 -541h488l144 233h50q-6 -81 -17 -164.5t-34 -168.5h-996l12 56q39 17 80.5 28t88.5 19l83 393h-380l-308 -393q40 -6 78 -18
t77 -29l-12 -56h-434l12 56q39 17 75.5 28t73.5 19l932 1160q-25 8 -52.5 17t-51.5 20l12 57h960zM457 597h322l124 586h-4l-117 -179z" />
    <glyph glyph-name="Ccedilla" unicode="&#xc7;" horiz-adv-x="1366" 
d="M1170 373h51q-1 -27 -4 -62.5t-8.5 -74.5t-13 -80t-16.5 -80q-70 -45 -178.5 -72.5t-235.5 -27.5q-141 0 -256.5 38.5t-198 111t-128 176.5t-45.5 236q0 143 34.5 261t95 211.5t142.5 162.5t176.5 115t197.5 68.5t205 22.5q81 0 148 -7.5t121 -20.5t96 -30.5t72 -36.5
q-5 -30 -16 -72.5t-25 -88.5t-29.5 -91.5t-30.5 -81.5h-50l-42 279q-9 6 -26.5 14.5t-43.5 16.5t-61 13.5t-78 5.5q-82 0 -165 -20.5t-159 -61t-142.5 -101t-115.5 -140.5t-77 -179.5t-28 -217.5q0 -120 35 -210.5t96.5 -150.5t146 -90t183.5 -30q75 0 135.5 16t95.5 39z
M717 -144q102 -3 149.5 -37.5t47.5 -90.5q0 -63 -38 -110.5t-96 -78.5t-126 -46.5t-129 -15.5l2 62q42 6 80 17.5t66.5 29.5t45 42.5t16.5 57.5q0 45 -37.5 64.5t-114.5 24.5l124 225h96z" />
    <glyph glyph-name="Egrave" unicode="&#xc8;" horiz-adv-x="1251" 
d="M1292 1357q-19 -78 -40 -157t-48 -158h-51l-34 213h-491l-109 -513h386l105 143h48q-14 -97 -35 -194t-48 -197h-48l-44 147h-386l-115 -541h515l145 233h49q-5 -81 -16.5 -164.5t-33.5 -168.5h-1026l12 56q40 17 81.5 28t87.5 19l244 1149q-38 7 -75 19.5t-74 28.5
l12 57h989zM1037 1490l-42 -37l-399 176l8 39q14 14 39 26t52.5 20.5t53 13t39.5 2.5z" />
    <glyph glyph-name="Eacute" unicode="&#xc9;" horiz-adv-x="1251" 
d="M1292 1357q-19 -78 -40 -157t-48 -158h-51l-34 213h-491l-109 -513h386l105 143h48q-14 -97 -35 -194t-48 -197h-48l-44 147h-386l-115 -541h515l145 233h49q-5 -81 -16.5 -164.5t-33.5 -168.5h-1026l12 56q40 17 81.5 28t87.5 19l244 1149q-38 7 -75 19.5t-74 28.5
l12 57h989zM967 1730q17 2 46.5 -2.5t59.5 -13t55 -20.5t34 -26l-8 -39l-409 -180l-42 41z" />
    <glyph glyph-name="Ecircumflex" unicode="&#xca;" horiz-adv-x="1251" 
d="M1292 1357q-19 -78 -40 -157t-48 -158h-51l-34 213h-491l-109 -513h386l105 143h48q-14 -97 -35 -194t-48 -197h-48l-44 147h-386l-115 -541h515l145 233h49q-5 -81 -16.5 -164.5t-33.5 -168.5h-1026l12 56q40 17 81.5 28t87.5 19l244 1149q-38 7 -75 19.5t-74 28.5
l12 57h989zM619 1474q-14 8 -22.5 17t-10.5 23l292 216q13 7 26.5 7.5t23.5 -7.5l198 -211q-2 -13 -11.5 -23t-25.5 -17l-211 110z" />
    <glyph glyph-name="Edieresis" unicode="&#xcb;" horiz-adv-x="1251" 
d="M1292 1357q-19 -78 -40 -157t-48 -158h-51l-34 213h-491l-109 -513h386l105 143h48q-14 -97 -35 -194t-48 -197h-48l-44 147h-386l-115 -541h515l145 233h49q-5 -81 -16.5 -164.5t-33.5 -168.5h-1026l12 56q40 17 81.5 28t87.5 19l244 1149q-38 7 -75 19.5t-74 28.5
l12 57h989zM514 1579q0 46 31.5 69t79.5 23q47 0 77.5 -23t30.5 -69q0 -45 -30.5 -68t-77.5 -23q-48 0 -79.5 23t-31.5 68zM947 1579q0 46 30.5 69t77.5 23q48 0 79 -23t31 -69q0 -45 -31 -68t-79 -23q-47 0 -77.5 23t-30.5 68z" />
    <glyph glyph-name="Igrave" unicode="&#xcc;" horiz-adv-x="682" 
d="M493 0h-496l12 56q42 17 82 29t83 18l244 1149q-38 7 -73 19.5t-72 28.5l12 57h496l-12 -57q-38 -16 -81.5 -28.5t-83.5 -19.5l-244 -1149q40 -8 77 -20t68 -27zM745 1490l-42 -37l-399 176l8 39q14 14 39 26t52.5 20.5t53 13t39.5 2.5z" />
    <glyph glyph-name="Iacute" unicode="&#xcd;" horiz-adv-x="682" 
d="M493 0h-496l12 56q42 17 82 29t83 18l244 1149q-38 7 -73 19.5t-72 28.5l12 57h496l-12 -57q-38 -16 -81.5 -28.5t-83.5 -19.5l-244 -1149q40 -8 77 -20t68 -27zM653 1730q17 2 46.5 -2.5t59.5 -13t55 -20.5t34 -26l-8 -39l-409 -180l-42 41z" />
    <glyph glyph-name="Icircumflex" unicode="&#xce;" horiz-adv-x="682" 
d="M493 0h-496l12 56q42 17 82 29t83 18l244 1149q-38 7 -73 19.5t-72 28.5l12 57h496l-12 -57q-38 -16 -81.5 -28.5t-83.5 -19.5l-244 -1149q40 -8 77 -20t68 -27zM333 1474q-14 8 -22.5 17t-10.5 23l292 216q13 7 26.5 7.5t23.5 -7.5l198 -211q-2 -13 -11.5 -23t-25.5 -17
l-211 110z" />
    <glyph glyph-name="Idieresis" unicode="&#xcf;" horiz-adv-x="682" 
d="M493 0h-496l12 56q42 17 82 29t83 18l244 1149q-38 7 -73 19.5t-72 28.5l12 57h496l-12 -57q-38 -16 -81.5 -28.5t-83.5 -19.5l-244 -1149q40 -8 77 -20t68 -27zM245 1579q0 46 31.5 69t79.5 23q47 0 77.5 -23t30.5 -69q0 -45 -30.5 -68t-77.5 -23q-48 0 -79.5 23
t-31.5 68zM678 1579q0 46 30.5 69t77.5 23q48 0 79 -23t31 -69q0 -45 -31 -68t-79 -23q-47 0 -77.5 23t-30.5 68z" />
    <glyph glyph-name="Eth" unicode="&#xd0;" horiz-adv-x="1479" 
d="M85 744h191l108 508q-43 10 -80 22.5t-69 25.5l12 57h198q33 0 77 2.5t92.5 5t98 5t93.5 2.5q166 0 288 -35.5t202 -102t118.5 -163.5t38.5 -220q0 -113 -24 -221.5t-74 -205t-126.5 -177.5t-181 -139.5t-238.5 -91.5t-298 -33q-39 0 -87.5 2.5t-98.5 6t-97 6t-83 2.5
h-186l12 56q39 17 81 28t88 19l114 540h-190zM799 1270h-70t-69 -0.5t-59 -2t-40 -4.5l-110 -519h305l-21 -101h-306l-117 -554q9 -2 33.5 -3t56.5 -2t67.5 -1h66.5q135 0 240 33.5t183 90t132.5 130.5t87.5 156t48 166.5t15 160.5q0 81 -22 161t-73.5 144.5t-136.5 104.5
t-211 40z" />
    <glyph glyph-name="Ntilde" unicode="&#xd1;" horiz-adv-x="1366" 
d="M1119 1357h419l-12 -57q-45 -26 -89 -46t-86 -32l-265 -1246h-111l-446 1068l-43 152h-6l-15 -152l-196 -920q37 -10 70.5 -27.5t64.5 -40.5l-12 -56h-419l12 56q41 22 84.5 38.5t88.5 29.5l237 1111q-36 14 -69.5 32t-62.5 35l11 55h327l385 -921l53 -166h8l26 166
l167 786q-38 18 -71 38t-62 40zM1247 1590q-62 -61 -113.5 -84.5t-99.5 -23.5q-36 0 -68.5 10.5t-63 22.5t-60 22.5t-59.5 10.5q-26 0 -55 -11.5t-60 -37.5l-37 57q73 65 131 89.5t106 24.5q35 0 66.5 -9.5t61 -21.5t58.5 -21.5t60 -9.5q25 0 51.5 8.5t57.5 30.5z" />
    <glyph glyph-name="Ograve" unicode="&#xd2;" horiz-adv-x="1479" 
d="M123 522q0 117 27.5 226.5t78 204.5t122.5 173.5t161.5 134.5t194 87t220.5 31q137 0 239.5 -41t170.5 -114.5t102 -177t34 -227.5q0 -121 -27.5 -230.5t-78.5 -203.5t-122.5 -169.5t-159 -128.5t-189 -82t-212.5 -29q-131 0 -234.5 40.5t-176.5 113.5t-111.5 173
t-38.5 219zM328 526q0 -95 22.5 -176.5t70 -142t119.5 -95t171 -34.5q77 0 148 29t133 81t113 123t87 154.5t56 177t20 189.5q0 94 -22 175.5t-66.5 142t-111.5 95t-158 34.5q-95 0 -174.5 -31t-144.5 -85.5t-114 -127.5t-82 -156.5t-50 -174t-17 -178.5zM1154 1490l-42 -37
l-399 176l8 39q14 14 39 26t52.5 20.5t53 13t39.5 2.5z" />
    <glyph glyph-name="Oacute" unicode="&#xd3;" horiz-adv-x="1479" 
d="M123 522q0 117 27.5 226.5t78 204.5t122.5 173.5t161.5 134.5t194 87t220.5 31q137 0 239.5 -41t170.5 -114.5t102 -177t34 -227.5q0 -121 -27.5 -230.5t-78.5 -203.5t-122.5 -169.5t-159 -128.5t-189 -82t-212.5 -29q-131 0 -234.5 40.5t-176.5 113.5t-111.5 173
t-38.5 219zM328 526q0 -95 22.5 -176.5t70 -142t119.5 -95t171 -34.5q77 0 148 29t133 81t113 123t87 154.5t56 177t20 189.5q0 94 -22 175.5t-66.5 142t-111.5 95t-158 34.5q-95 0 -174.5 -31t-144.5 -85.5t-114 -127.5t-82 -156.5t-50 -174t-17 -178.5zM1155 1730
q17 2 46.5 -2.5t59.5 -13t55 -20.5t34 -26l-8 -39l-409 -180l-42 41z" />
    <glyph glyph-name="Ocircumflex" unicode="&#xd4;" horiz-adv-x="1479" 
d="M123 522q0 117 27.5 226.5t78 204.5t122.5 173.5t161.5 134.5t194 87t220.5 31q137 0 239.5 -41t170.5 -114.5t102 -177t34 -227.5q0 -121 -27.5 -230.5t-78.5 -203.5t-122.5 -169.5t-159 -128.5t-189 -82t-212.5 -29q-131 0 -234.5 40.5t-176.5 113.5t-111.5 173
t-38.5 219zM328 526q0 -95 22.5 -176.5t70 -142t119.5 -95t171 -34.5q77 0 148 29t133 81t113 123t87 154.5t56 177t20 189.5q0 94 -22 175.5t-66.5 142t-111.5 95t-158 34.5q-95 0 -174.5 -31t-144.5 -85.5t-114 -127.5t-82 -156.5t-50 -174t-17 -178.5zM745 1474
q-14 8 -22.5 17t-10.5 23l292 216q13 7 26.5 7.5t23.5 -7.5l198 -211q-2 -13 -11.5 -23t-25.5 -17l-211 110z" />
    <glyph glyph-name="Otilde" unicode="&#xd5;" horiz-adv-x="1479" 
d="M123 522q0 117 27.5 226.5t78 204.5t122.5 173.5t161.5 134.5t194 87t220.5 31q137 0 239.5 -41t170.5 -114.5t102 -177t34 -227.5q0 -121 -27.5 -230.5t-78.5 -203.5t-122.5 -169.5t-159 -128.5t-189 -82t-212.5 -29q-131 0 -234.5 40.5t-176.5 113.5t-111.5 173
t-38.5 219zM328 526q0 -95 22.5 -176.5t70 -142t119.5 -95t171 -34.5q77 0 148 29t133 81t113 123t87 154.5t56 177t20 189.5q0 94 -22 175.5t-66.5 142t-111.5 95t-158 34.5q-95 0 -174.5 -31t-144.5 -85.5t-114 -127.5t-82 -156.5t-50 -174t-17 -178.5zM1327 1590
q-62 -61 -113.5 -84.5t-99.5 -23.5q-36 0 -68.5 10.5t-63 22.5t-60 22.5t-59.5 10.5q-26 0 -55 -11.5t-60 -37.5l-37 57q73 65 131 89.5t106 24.5q35 0 66.5 -9.5t61 -21.5t58.5 -21.5t60 -9.5q25 0 51.5 8.5t57.5 30.5z" />
    <glyph glyph-name="Odieresis" unicode="&#xd6;" horiz-adv-x="1479" 
d="M123 522q0 117 27.5 226.5t78 204.5t122.5 173.5t161.5 134.5t194 87t220.5 31q137 0 239.5 -41t170.5 -114.5t102 -177t34 -227.5q0 -121 -27.5 -230.5t-78.5 -203.5t-122.5 -169.5t-159 -128.5t-189 -82t-212.5 -29q-131 0 -234.5 40.5t-176.5 113.5t-111.5 173
t-38.5 219zM328 526q0 -95 22.5 -176.5t70 -142t119.5 -95t171 -34.5q77 0 148 29t133 81t113 123t87 154.5t56 177t20 189.5q0 94 -22 175.5t-66.5 142t-111.5 95t-158 34.5q-95 0 -174.5 -31t-144.5 -85.5t-114 -127.5t-82 -156.5t-50 -174t-17 -178.5zM664 1579
q0 46 31.5 69t79.5 23q47 0 77.5 -23t30.5 -69q0 -45 -30.5 -68t-77.5 -23q-48 0 -79.5 23t-31.5 68zM1097 1579q0 46 30.5 69t77.5 23q48 0 79 -23t31 -69q0 -45 -31 -68t-79 -23q-47 0 -77.5 23t-30.5 68z" />
    <glyph glyph-name="multiply" unicode="&#xd7;" horiz-adv-x="1382" 
d="M379 395l271 272l-268 269l72 71l270 -267l270 271l72 -72l-270 -270l276 -277l-73 -74l-277 277l-271 -271z" />
    <glyph glyph-name="Oslash" unicode="&#xd8;" horiz-adv-x="1479" 
d="M123 522q0 118 27.5 227t78 204t122.5 173.5t161.5 134.5t194 87t220.5 31q107 0 192 -25t150 -71l89 98l87 -56l-100 -111q65 -74 96.5 -174t31.5 -221t-27.5 -230.5t-78.5 -203.5t-122.5 -169.5t-159 -128.5t-189 -82t-212.5 -29q-108 0 -197 27.5t-158 78.5l-97 -108
l-78 57l103 116q-66 72 -100 167t-34 208zM328 526q0 -69 11.5 -130.5t36.5 -114.5l790 885q-45 53 -108 83t-148 30q-94 0 -174 -31t-145 -85.5t-114 -127.5t-82 -156.5t-50 -174t-17 -178.5zM1268 832q0 68 -11.5 129.5t-34.5 114.5l-792 -881q48 -55 117.5 -86t163.5 -31
q77 0 148 29t133 81t113 123t87 154.5t56 177t20 189.5z" />
    <glyph glyph-name="Ugrave" unicode="&#xd9;" horiz-adv-x="1479" 
d="M279 1357h493l-12 -57q-81 -32 -158 -48l-169 -793q-7 -33 -10.5 -62t-3.5 -55q0 -68 22 -114.5t62 -75.5t95.5 -41.5t122.5 -12.5q76 0 145.5 20.5t126.5 64.5t98 112.5t62 165.5l164 774q-42 14 -77 31t-61 34l12 57h412l-12 -57q-84 -46 -165 -65l-165 -778
q-26 -123 -82.5 -212.5t-134 -147.5t-172 -86t-197.5 -28q-102 0 -184 19.5t-139.5 59.5t-89.5 100t-34 140q-2 60 13 127l175 823q-38 5 -76 18t-73 30zM1129 1490l-42 -37l-399 176l8 39q14 14 39 26t52.5 20.5t53 13t39.5 2.5z" />
    <glyph glyph-name="Uacute" unicode="&#xda;" horiz-adv-x="1479" 
d="M279 1357h493l-12 -57q-81 -32 -158 -48l-169 -793q-7 -33 -10.5 -62t-3.5 -55q0 -68 22 -114.5t62 -75.5t95.5 -41.5t122.5 -12.5q76 0 145.5 20.5t126.5 64.5t98 112.5t62 165.5l164 774q-42 14 -77 31t-61 34l12 57h412l-12 -57q-84 -46 -165 -65l-165 -778
q-26 -123 -82.5 -212.5t-134 -147.5t-172 -86t-197.5 -28q-102 0 -184 19.5t-139.5 59.5t-89.5 100t-34 140q-2 60 13 127l175 823q-38 5 -76 18t-73 30zM1174 1730q17 2 46.5 -2.5t59.5 -13t55 -20.5t34 -26l-8 -39l-409 -180l-42 41z" />
    <glyph glyph-name="Ucircumflex" unicode="&#xdb;" horiz-adv-x="1479" 
d="M279 1357h493l-12 -57q-81 -32 -158 -48l-169 -793q-7 -33 -10.5 -62t-3.5 -55q0 -68 22 -114.5t62 -75.5t95.5 -41.5t122.5 -12.5q76 0 145.5 20.5t126.5 64.5t98 112.5t62 165.5l164 774q-42 14 -77 31t-61 34l12 57h412l-12 -57q-84 -46 -165 -65l-165 -778
q-26 -123 -82.5 -212.5t-134 -147.5t-172 -86t-197.5 -28q-102 0 -184 19.5t-139.5 59.5t-89.5 100t-34 140q-2 60 13 127l175 823q-38 5 -76 18t-73 30zM776 1474q-14 8 -22.5 17t-10.5 23l292 216q13 7 26.5 7.5t23.5 -7.5l198 -211q-2 -13 -11.5 -23t-25.5 -17l-211 110z
" />
    <glyph glyph-name="Udieresis" unicode="&#xdc;" horiz-adv-x="1479" 
d="M279 1357h493l-12 -57q-81 -32 -158 -48l-169 -793q-7 -33 -10.5 -62t-3.5 -55q0 -68 22 -114.5t62 -75.5t95.5 -41.5t122.5 -12.5q76 0 145.5 20.5t126.5 64.5t98 112.5t62 165.5l164 774q-42 14 -77 31t-61 34l12 57h412l-12 -57q-84 -46 -165 -65l-165 -778
q-26 -123 -82.5 -212.5t-134 -147.5t-172 -86t-197.5 -28q-102 0 -184 19.5t-139.5 59.5t-89.5 100t-34 140q-2 60 13 127l175 823q-38 5 -76 18t-73 30zM674 1579q0 46 31.5 69t79.5 23q47 0 77.5 -23t30.5 -69q0 -45 -30.5 -68t-77.5 -23q-48 0 -79.5 23t-31.5 68z
M1107 1579q0 46 30.5 69t77.5 23q48 0 79 -23t31 -69q0 -45 -31 -68t-79 -23q-47 0 -77.5 23t-30.5 68z" />
    <glyph glyph-name="Yacute" unicode="&#xdd;" horiz-adv-x="1139" 
d="M947 1357h426l-12 -57q-39 -17 -79.5 -30t-77.5 -18l-506 -705l-94 -444q35 -5 70 -16.5t67 -30.5l-12 -56h-492l12 56q78 35 169 47l94 442l-231 707q-44 7 -79 20.5t-68 27.5l12 57h523l-12 -57q-32 -11 -70.5 -24t-88.5 -24l170 -600l416 600q-42 10 -79.5 22.5
t-69.5 25.5zM1026 1730q17 2 46.5 -2.5t59.5 -13t55 -20.5t34 -26l-8 -39l-409 -180l-42 41z" />
    <glyph glyph-name="Thorn" unicode="&#xde;" horiz-adv-x="1251" 
d="M354 103q52 -8 95 -19.5t81 -29.5l-11 -54h-532l11 54q45 20 87 30.5t83 18.5l244 1150q-73 15 -144 49l11 55h496l-11 -55q-39 -17 -82 -29t-84 -20l-20 -94q22 1 49 2.5t55 2.5t54 1.5t47 0.5q84 0 162 -17t137 -55t94.5 -100.5t35.5 -153.5q0 -87 -25.5 -158
t-70.5 -126.5t-105.5 -96.5t-130.5 -67.5t-146 -39.5t-151 -13q-10 0 -35 0.5t-53.5 1.5t-53.5 2.5t-35 3.5zM719 1065q-48 0 -91.5 -2.5t-71.5 -8.5l-129 -607q9 -3 32 -4.5t49 -2t49.5 -0.5h34.5q79 0 153.5 23.5t132 71t92 119.5t34.5 170q0 117 -74 179t-211 62z" />
    <glyph glyph-name="germandbls" unicode="&#xdf;" 
d="M508 701q0 57 23 116t68 111.5t110 94.5t149 65q8 38 1 75.5t-28 67t-55 47.5t-80 18q-40 0 -84 -20t-83.5 -60.5t-70.5 -102.5t-45 -145l-148 -892q-13 -83 -38 -147.5t-57 -112.5t-67.5 -82t-68.5 -56t-62 -34t-47 -17l-15 38q21 11 50 38.5t58.5 73.5t55 111.5
t40.5 153.5l114 751h-128v45q34 20 73.5 34.5t76.5 23.5l12 62q14 73 43.5 132t68.5 105t85 80t93 55.5t92 32t84 10.5q80 0 135 -19.5t89 -52t49 -76t15 -91.5q0 -17 -1 -36.5t-6 -37.5q-68 -9 -130.5 -35.5t-110.5 -67t-76.5 -94.5t-28.5 -118q0 -43 22 -78.5t55 -68
t72 -65.5t72 -72.5t55 -87.5t22 -111t-29 -115.5t-79 -90t-116.5 -58t-140.5 -20.5q-72 0 -133 14.5t-96 37.5q9 48 22 90t51 77l156 -143q36 0 72.5 12t66 34.5t48 54.5t18.5 72q0 52 -21.5 91t-54.5 72t-70.5 63.5t-70.5 65.5t-54.5 79t-21.5 103z" />
    <glyph glyph-name="agrave" unicode="&#xe0;" 
d="M324 88q32 0 68.5 21t73.5 55.5t73 77.5t67 87.5t55 86t37 72.5l56 301q-26 17 -64 24t-90 7q-59 0 -111 -23t-95.5 -63t-78.5 -93.5t-59.5 -114t-37.5 -125.5t-13 -127q0 -90 32.5 -138t86.5 -48zM662 345q-23 -63 -67 -128t-100 -118t-120 -87t-125 -34q-91 0 -147 68
t-56 199q0 82 17.5 162.5t51 152.5t82.5 133.5t112 106.5t138.5 70.5t163.5 25.5q53 0 91 -7.5t76 -23.5q72 37 147 37l-158 -805h128v-45q-35 -28 -84 -45t-97 -17q-26 0 -44 6t-29.5 15.5t-16.5 22t-5 24.5q0 67 49 287h-7zM708 1116l-48 -32l-324 270l2 39
q13 10 40.5 18.5t57.5 14.5t58 8.5t43 0.5z" />
    <glyph glyph-name="aacute" unicode="&#xe1;" 
d="M324 88q32 0 68.5 21t73.5 55.5t73 77.5t67 87.5t55 86t37 72.5l56 301q-26 17 -64 24t-90 7q-59 0 -111 -23t-95.5 -63t-78.5 -93.5t-59.5 -114t-37.5 -125.5t-13 -127q0 -90 32.5 -138t86.5 -48zM662 345q-23 -63 -67 -128t-100 -118t-120 -87t-125 -34q-91 0 -147 68
t-56 199q0 82 17.5 162.5t51 152.5t82.5 133.5t112 106.5t138.5 70.5t163.5 25.5q53 0 91 -7.5t76 -23.5q72 37 147 37l-158 -805h128v-45q-35 -28 -84 -45t-97 -17q-26 0 -44 6t-29.5 15.5t-16.5 22t-5 24.5q0 67 49 287h-7zM801 1426q15 2 46 1t63 -5t59.5 -10.5
t35.5 -15.5l-2 -35l-382 -271l-52 39z" />
    <glyph glyph-name="acircumflex" unicode="&#xe2;" 
d="M324 88q32 0 68.5 21t73.5 55.5t73 77.5t67 87.5t55 86t37 72.5l56 301q-26 17 -64 24t-90 7q-59 0 -111 -23t-95.5 -63t-78.5 -93.5t-59.5 -114t-37.5 -125.5t-13 -127q0 -90 32.5 -138t86.5 -48zM662 345q-23 -63 -67 -128t-100 -118t-120 -87t-125 -34q-91 0 -147 68
t-56 199q0 82 17.5 162.5t51 152.5t82.5 133.5t112 106.5t138.5 70.5t163.5 25.5q53 0 91 -7.5t76 -23.5q72 37 147 37l-158 -805h128v-45q-35 -28 -84 -45t-97 -17q-26 0 -44 6t-29.5 15.5t-16.5 22t-5 24.5q0 67 49 287h-7zM431 1090q-17 6 -29 15.5t-19 23.5l275 331
q11 5 24 6t21 -6l138 -339q-24 -24 -55 -31l-148 174z" />
    <glyph glyph-name="atilde" unicode="&#xe3;" 
d="M324 88q32 0 68.5 21t73.5 55.5t73 77.5t67 87.5t55 86t37 72.5l56 301q-26 17 -64 24t-90 7q-59 0 -111 -23t-95.5 -63t-78.5 -93.5t-59.5 -114t-37.5 -125.5t-13 -127q0 -90 32.5 -138t86.5 -48zM662 345q-23 -63 -67 -128t-100 -118t-120 -87t-125 -34q-91 0 -147 68
t-56 199q0 82 17.5 162.5t51 152.5t82.5 133.5t112 106.5t138.5 70.5t163.5 25.5q53 0 91 -7.5t76 -23.5q72 37 147 37l-158 -805h128v-45q-35 -28 -84 -45t-97 -17q-26 0 -44 6t-29.5 15.5t-16.5 22t-5 24.5q0 67 49 287h-7zM950 1280q-60 -59 -109 -81.5t-90 -22.5
q-33 0 -62 9.5t-56.5 21.5t-54.5 21.5t-54 9.5q-23 0 -48 -9t-54 -35l-34 51q66 64 119 86t96 22q33 0 61 -9t54.5 -19.5t52 -19.5t53.5 -9q23 0 47.5 7.5t53.5 28.5z" />
    <glyph glyph-name="adieresis" unicode="&#xe4;" 
d="M324 88q32 0 68.5 21t73.5 55.5t73 77.5t67 87.5t55 86t37 72.5l56 301q-26 17 -64 24t-90 7q-59 0 -111 -23t-95.5 -63t-78.5 -93.5t-59.5 -114t-37.5 -125.5t-13 -127q0 -90 32.5 -138t86.5 -48zM662 345q-23 -63 -67 -128t-100 -118t-120 -87t-125 -34q-91 0 -147 68
t-56 199q0 82 17.5 162.5t51 152.5t82.5 133.5t112 106.5t138.5 70.5t163.5 25.5q53 0 91 -7.5t76 -23.5q72 37 147 37l-158 -805h128v-45q-35 -28 -84 -45t-97 -17q-26 0 -44 6t-29.5 15.5t-16.5 22t-5 24.5q0 67 49 287h-7zM388 1262q0 44 27 70.5t71 26.5q45 0 72 -26.5
t27 -70.5q0 -42 -27 -68t-72 -26q-44 0 -71 26t-27 68zM754 1262q0 44 27.5 70.5t70.5 26.5q45 0 72.5 -26.5t27.5 -70.5q0 -42 -27.5 -68t-72.5 -26q-43 0 -70.5 26t-27.5 68z" />
    <glyph glyph-name="aring" unicode="&#xe5;" 
d="M324 88q32 0 68.5 21t73.5 55.5t73 77.5t67 87.5t55 86t37 72.5l56 301q-26 17 -64 24t-90 7q-59 0 -111 -23t-95.5 -63t-78.5 -93.5t-59.5 -114t-37.5 -125.5t-13 -127q0 -90 32.5 -138t86.5 -48zM662 345q-23 -63 -67 -128t-100 -118t-120 -87t-125 -34q-91 0 -147 68
t-56 199q0 82 17.5 162.5t51 152.5t82.5 133.5t112 106.5t138.5 70.5t163.5 25.5q53 0 91 -7.5t76 -23.5q72 37 147 37l-158 -805h128v-45q-35 -28 -84 -45t-97 -17q-26 0 -44 6t-29.5 15.5t-16.5 22t-5 24.5q0 67 49 287h-7zM489 1270q0 37 14 69.5t38.5 56.5t58 38
t72.5 14q36 0 67 -12t54.5 -34t37 -54t13.5 -72q0 -38 -14.5 -69.5t-38.5 -54t-55.5 -35t-65.5 -12.5q-41 0 -74 11.5t-57 33.5t-37 52t-13 68zM584 1274q0 -47 25 -70.5t55 -23.5q37 0 60.5 21.5t23.5 67.5q0 49 -23 76t-58 27q-45 0 -64 -26.5t-19 -71.5z" />
    <glyph glyph-name="ae" unicode="&#xe6;" horiz-adv-x="1366" 
d="M336 88q39 0 74.5 18.5t65.5 47.5t52 65.5t34 71.5q-1 14 -0.5 31.5t1.5 35.5t2.5 35.5t3.5 31.5q-91 11 -157.5 -3.5t-110.5 -43.5t-65.5 -69t-21.5 -80q0 -39 10 -65.5t27 -43.5t39 -24.5t46 -7.5zM574 187q-25 -46 -56.5 -84.5t-69.5 -66t-83 -43t-96 -15.5
q-47 0 -88.5 16.5t-73 47.5t-49.5 74.5t-18 96.5q0 67 38 122.5t109 93.5t171.5 55t225.5 7q22 74 32 135.5t2.5 105.5t-35 68t-80.5 24q-25 0 -55.5 -3t-62.5 -14l-93 -192h-46q-32 96 -35 200q75 42 160.5 64.5t186.5 22.5q49 0 85 -8t61.5 -22t40 -33t19.5 -41
q57 48 128.5 76t156.5 28q42 0 80 -11t66 -33t44.5 -53.5t16.5 -73.5q0 -63 -30 -112.5t-94 -85.5t-163.5 -59t-238.5 -34q-12 -57 -12 -112q0 -53 13.5 -97t40.5 -76t66.5 -49.5t91.5 -17.5q34 0 66.5 10.5t61 26t52.5 33t42 32.5l27 -33q-16 -33 -45.5 -65t-70 -57.5
t-91.5 -41t-109 -15.5q-113 0 -187 52.5t-102 156.5zM994 824q-37 0 -72.5 -16.5t-67.5 -53t-60 -95.5t-51 -143q85 3 152 18t113.5 41.5t71 64t24.5 84.5q0 18 -5 36t-17.5 32.5t-33.5 23t-54 8.5z" />
    <glyph glyph-name="ccedilla" unicode="&#xe7;" horiz-adv-x="909" 
d="M810 238q-27 -46 -65 -90.5t-86.5 -80.5t-106.5 -59.5t-124 -28.5l-60 -103q99 -3 138 -38t29 -93q-10 -53 -46.5 -92t-86 -64.5t-105.5 -37.5t-104 -10l1 54q41 6 76 16t60 26.5t39 39.5t14 55q0 36 -32.5 53.5t-98.5 22.5l96 173q-134 14 -207 98t-73 233
q0 78 18.5 152t52 139.5t81 120.5t106 94.5t127 61.5t143.5 22q48 0 94 -9.5t84.5 -27t67 -43t42.5 -58.5q-2 -24 -17.5 -48.5t-38 -43.5t-49 -31t-49.5 -12v150q-22 16 -62.5 30t-82.5 14q-65 0 -128 -40t-112.5 -106.5t-80 -153t-30.5 -179.5q0 -60 16.5 -107.5t44 -80.5
t64 -50.5t76.5 -17.5q103 0 184.5 51.5t157.5 141.5z" />
    <glyph glyph-name="egrave" unicode="&#xe8;" horiz-adv-x="909" 
d="M796 231q-22 -42 -59 -87t-88.5 -82t-118 -60.5t-146.5 -23.5t-140 26t-100 70t-60.5 103.5t-20.5 127.5q0 81 19.5 156.5t54.5 142t84.5 121.5t109.5 94.5t128.5 61t142.5 21.5q63 0 111 -14t80.5 -38t48.5 -56t16 -68q0 -69 -48.5 -122t-132.5 -89.5t-198 -55.5
t-245 -19q-8 -29 -10.5 -56t-2.5 -45q0 -54 14 -100t42.5 -79.5t72 -52.5t102.5 -19q70 0 152.5 44t162.5 132zM548 824q-38 0 -81 -16.5t-84.5 -53t-77.5 -95.5t-59 -143q89 -6 172 5t147.5 37.5t103 66.5t38.5 91q0 22 -10.5 41.5t-30.5 34.5t-49.5 23.5t-68.5 8.5z
M751 1116l-48 -32l-324 270l2 39q13 10 40.5 18.5t57.5 14.5t58 8.5t43 0.5z" />
    <glyph glyph-name="eacute" unicode="&#xe9;" horiz-adv-x="909" 
d="M796 231q-22 -42 -59 -87t-88.5 -82t-118 -60.5t-146.5 -23.5t-140 26t-100 70t-60.5 103.5t-20.5 127.5q0 81 19.5 156.5t54.5 142t84.5 121.5t109.5 94.5t128.5 61t142.5 21.5q63 0 111 -14t80.5 -38t48.5 -56t16 -68q0 -69 -48.5 -122t-132.5 -89.5t-198 -55.5
t-245 -19q-8 -29 -10.5 -56t-2.5 -45q0 -54 14 -100t42.5 -79.5t72 -52.5t102.5 -19q70 0 152.5 44t162.5 132zM548 824q-38 0 -81 -16.5t-84.5 -53t-77.5 -95.5t-59 -143q89 -6 172 5t147.5 37.5t103 66.5t38.5 91q0 22 -10.5 41.5t-30.5 34.5t-49.5 23.5t-68.5 8.5z
M817 1426q15 2 46 1t63 -5t59.5 -10.5t35.5 -15.5l-2 -35l-382 -271l-52 39z" />
    <glyph glyph-name="ecircumflex" unicode="&#xea;" horiz-adv-x="909" 
d="M796 231q-22 -42 -59 -87t-88.5 -82t-118 -60.5t-146.5 -23.5t-140 26t-100 70t-60.5 103.5t-20.5 127.5q0 81 19.5 156.5t54.5 142t84.5 121.5t109.5 94.5t128.5 61t142.5 21.5q63 0 111 -14t80.5 -38t48.5 -56t16 -68q0 -69 -48.5 -122t-132.5 -89.5t-198 -55.5
t-245 -19q-8 -29 -10.5 -56t-2.5 -45q0 -54 14 -100t42.5 -79.5t72 -52.5t102.5 -19q70 0 152.5 44t162.5 132zM548 824q-38 0 -81 -16.5t-84.5 -53t-77.5 -95.5t-59 -143q89 -6 172 5t147.5 37.5t103 66.5t38.5 91q0 22 -10.5 41.5t-30.5 34.5t-49.5 23.5t-68.5 8.5z
M446 1090q-17 6 -29 15.5t-19 23.5l275 331q11 5 24 6t21 -6l138 -339q-24 -24 -55 -31l-148 174z" />
    <glyph glyph-name="edieresis" unicode="&#xeb;" horiz-adv-x="909" 
d="M796 231q-22 -42 -59 -87t-88.5 -82t-118 -60.5t-146.5 -23.5t-140 26t-100 70t-60.5 103.5t-20.5 127.5q0 81 19.5 156.5t54.5 142t84.5 121.5t109.5 94.5t128.5 61t142.5 21.5q63 0 111 -14t80.5 -38t48.5 -56t16 -68q0 -69 -48.5 -122t-132.5 -89.5t-198 -55.5
t-245 -19q-8 -29 -10.5 -56t-2.5 -45q0 -54 14 -100t42.5 -79.5t72 -52.5t102.5 -19q70 0 152.5 44t162.5 132zM548 824q-38 0 -81 -16.5t-84.5 -53t-77.5 -95.5t-59 -143q89 -6 172 5t147.5 37.5t103 66.5t38.5 91q0 22 -10.5 41.5t-30.5 34.5t-49.5 23.5t-68.5 8.5z
M387 1262q0 44 27 70.5t71 26.5q45 0 72 -26.5t27 -70.5q0 -42 -27 -68t-72 -26q-44 0 -71 26t-27 68zM753 1262q0 44 27.5 70.5t70.5 26.5q45 0 72.5 -26.5t27.5 -70.5q0 -42 -27.5 -68t-72.5 -26q-43 0 -70.5 26t-27.5 68z" />
    <glyph glyph-name="igrave" unicode="&#xec;" horiz-adv-x="569" 
d="M112 795v43q26 11 60 22.5t68.5 20.5t67 15t56.5 6l32 -21l-165 -784h130v-45q-38 -28 -87 -45t-97 -17q-51 0 -72.5 22.5t-21.5 52.5q0 36 5.5 69.5t13.5 73.5l123 569zM417 1116l-48 -32l-324 270l2 39q13 10 40.5 18.5t57.5 14.5t58 8.5t43 0.5z" />
    <glyph glyph-name="iacute" unicode="&#xed;" horiz-adv-x="569" 
d="M479 1426q15 2 46 1t63 -5t59.5 -10.5t35.5 -15.5l-2 -35l-382 -271l-52 39zM141 795v43q26 11 60 22.5t68.5 20.5t67 15t56.5 6l32 -21l-165 -784h130v-45q-38 -28 -87 -45t-97 -17q-51 0 -72.5 22.5t-21.5 52.5q0 36 5.5 69.5t13.5 73.5l123 569z" />
    <glyph glyph-name="icircumflex" unicode="&#xee;" horiz-adv-x="569" 
d="M112 795v43q26 11 60 22.5t68.5 20.5t67 15t56.5 6l32 -21l-165 -784h130v-45q-38 -28 -87 -45t-97 -17q-51 0 -72.5 22.5t-21.5 52.5q0 36 5.5 69.5t13.5 73.5l123 569zM153 1090q-17 6 -29 15.5t-19 23.5l275 331q11 5 24 6t21 -6l138 -339q-24 -24 -55 -31l-148 174z
" />
    <glyph glyph-name="idieresis" unicode="&#xef;" horiz-adv-x="569" 
d="M142 795v43q26 11 60 22.5t68.5 20.5t67 15t56.5 6l32 -21l-165 -784h130v-45q-38 -28 -87 -45t-97 -17q-51 0 -72.5 22.5t-21.5 52.5q0 36 5.5 69.5t13.5 73.5l123 569zM94 1262q0 44 27 70.5t71 26.5q45 0 72 -26.5t27 -70.5q0 -42 -27 -68t-72 -26q-44 0 -71 26
t-27 68zM460 1262q0 44 27.5 70.5t70.5 26.5q45 0 72.5 -26.5t27.5 -70.5q0 -42 -27.5 -68t-72.5 -26q-43 0 -70.5 26t-27.5 68z" />
    <glyph glyph-name="eth" unicode="&#xf0;" 
d="M404 1072l195 89q-37 48 -82.5 78t-93.5 45v37h159q32 -12 69.5 -37t73.5 -67l173 79l37 -66l-166 -78q34 -59 56.5 -140t22.5 -190q0 -120 -19.5 -229t-54.5 -202.5t-84.5 -170t-108.5 -130t-127 -83t-140 -29.5q-126 0 -192.5 84t-66.5 234q0 71 16.5 143t47.5 138
t76.5 123.5t103 99.5t127 66.5t149.5 24.5q32 0 63 -7t51 -21q0 70 -13.5 127.5t-37.5 105.5l-194 -89zM557 814q-64 0 -114.5 -24.5t-88.5 -65.5t-64.5 -94.5t-43.5 -112.5t-24.5 -118.5t-7.5 -111.5q0 -40 5 -81.5t20.5 -75t43.5 -55t75 -21.5q58 0 117 55.5t106.5 153
t77.5 230t30 285.5q-38 22 -68.5 29t-63.5 7z" />
    <glyph glyph-name="ntilde" unicode="&#xf1;" 
d="M733 502q12 54 21.5 101.5t9.5 92.5q0 20 -6 38t-18.5 31t-33 20.5t-49.5 7.5q-32 0 -66 -18t-67.5 -47.5t-65 -66.5t-58 -75.5t-47.5 -74.5t-33 -62l-93 -449h-148l154 778l-107 17l3 43q25 13 56 24.5t63.5 20.5t63.5 14t57 5l36 -21l-67 -312h8q34 70 80 131t98.5 106
t108.5 70.5t111 25.5q36 0 67.5 -12.5t54.5 -34.5t36.5 -52t13.5 -65q0 -19 -2.5 -44t-6.5 -53t-9.5 -56.5t-11.5 -53.5l-110 -434h130v-45q-36 -28 -85.5 -45t-97.5 -17q-50 0 -70 21.5t-20 45.5q0 33 9 72t18 81zM951 1280q-60 -59 -109 -81.5t-90 -22.5q-33 0 -62 9.5
t-56.5 21.5t-54.5 21.5t-54 9.5q-23 0 -48 -9t-54 -35l-34 51q66 64 119 86t96 22q33 0 61 -9t54.5 -19.5t52 -19.5t53.5 -9q23 0 47.5 7.5t53.5 28.5z" />
    <glyph glyph-name="ograve" unicode="&#xf2;" 
d="M75 328q0 62 15.5 128.5t46 130.5t76 121t105 100t133.5 68.5t162 25.5q77 0 139 -21.5t106 -64t67.5 -105t23.5 -144.5q0 -126 -38 -233.5t-106.5 -186.5t-164 -124t-209.5 -45q-83 0 -149 22t-112 66t-70.5 109.5t-24.5 152.5zM577 824q-80 0 -144 -42t-108.5 -113
t-68 -164t-23.5 -195q0 -120 59.5 -188t170.5 -68q55 0 112.5 34t104.5 100t77 164t30 227q0 115 -53.5 180t-156.5 65zM738 1116l-48 -32l-324 270l2 39q13 10 40.5 18.5t57.5 14.5t58 8.5t43 0.5z" />
    <glyph glyph-name="oacute" unicode="&#xf3;" 
d="M75 328q0 62 15.5 128.5t46 130.5t76 121t105 100t133.5 68.5t162 25.5q77 0 139 -21.5t106 -64t67.5 -105t23.5 -144.5q0 -126 -38 -233.5t-106.5 -186.5t-164 -124t-209.5 -45q-83 0 -149 22t-112 66t-70.5 109.5t-24.5 152.5zM577 824q-80 0 -144 -42t-108.5 -113
t-68 -164t-23.5 -195q0 -120 59.5 -188t170.5 -68q55 0 112.5 34t104.5 100t77 164t30 227q0 115 -53.5 180t-156.5 65zM799 1426q15 2 46 1t63 -5t59.5 -10.5t35.5 -15.5l-2 -35l-382 -271l-52 39z" />
    <glyph glyph-name="ocircumflex" unicode="&#xf4;" 
d="M75 328q0 62 15.5 128.5t46 130.5t76 121t105 100t133.5 68.5t162 25.5q77 0 139 -21.5t106 -64t67.5 -105t23.5 -144.5q0 -126 -38 -233.5t-106.5 -186.5t-164 -124t-209.5 -45q-83 0 -149 22t-112 66t-70.5 109.5t-24.5 152.5zM577 824q-80 0 -144 -42t-108.5 -113
t-68 -164t-23.5 -195q0 -120 59.5 -188t170.5 -68q55 0 112.5 34t104.5 100t77 164t30 227q0 115 -53.5 180t-156.5 65zM481 1090q-17 6 -29 15.5t-19 23.5l275 331q11 5 24 6t21 -6l138 -339q-24 -24 -55 -31l-148 174z" />
    <glyph glyph-name="otilde" unicode="&#xf5;" 
d="M75 328q0 62 15.5 128.5t46 130.5t76 121t105 100t133.5 68.5t162 25.5q77 0 139 -21.5t106 -64t67.5 -105t23.5 -144.5q0 -126 -38 -233.5t-106.5 -186.5t-164 -124t-209.5 -45q-83 0 -149 22t-112 66t-70.5 109.5t-24.5 152.5zM577 824q-80 0 -144 -42t-108.5 -113
t-68 -164t-23.5 -195q0 -120 59.5 -188t170.5 -68q55 0 112.5 34t104.5 100t77 164t30 227q0 115 -53.5 180t-156.5 65zM955 1280q-60 -59 -109 -81.5t-90 -22.5q-33 0 -62 9.5t-56.5 21.5t-54.5 21.5t-54 9.5q-23 0 -48 -9t-54 -35l-34 51q66 64 119 86t96 22q33 0 61 -9
t54.5 -19.5t52 -19.5t53.5 -9q23 0 47.5 7.5t53.5 28.5z" />
    <glyph glyph-name="odieresis" unicode="&#xf6;" 
d="M75 328q0 62 15.5 128.5t46 130.5t76 121t105 100t133.5 68.5t162 25.5q77 0 139 -21.5t106 -64t67.5 -105t23.5 -144.5q0 -126 -38 -233.5t-106.5 -186.5t-164 -124t-209.5 -45q-83 0 -149 22t-112 66t-70.5 109.5t-24.5 152.5zM577 824q-80 0 -144 -42t-108.5 -113
t-68 -164t-23.5 -195q0 -120 59.5 -188t170.5 -68q55 0 112.5 34t104.5 100t77 164t30 227q0 115 -53.5 180t-156.5 65zM378 1262q0 44 27 70.5t71 26.5q45 0 72 -26.5t27 -70.5q0 -42 -27 -68t-72 -26q-44 0 -71 26t-27 68zM744 1262q0 44 27.5 70.5t70.5 26.5
q45 0 72.5 -26.5t27.5 -70.5q0 -42 -27.5 -68t-72.5 -26q-43 0 -70.5 26t-27.5 68z" />
    <glyph glyph-name="divide" unicode="&#xf7;" horiz-adv-x="1124" 
d="M53 721h872v-103h-872v103zM347 1037q0 58 37 92.5t95 34.5q60 0 97 -34.5t37 -92.5q0 -57 -37 -91.5t-97 -34.5q-58 0 -95 34.5t-37 91.5zM347 301q0 58 37 92.5t95 34.5q60 0 97 -34.5t37 -92.5q0 -57 -37 -91.5t-97 -34.5q-58 0 -95 34.5t-37 91.5z" />
    <glyph glyph-name="oslash" unicode="&#xf8;" 
d="M110 328q0 62 13 128.5t39.5 130.5t66 121t93 100t120 68.5t146.5 25.5q58 0 104 -16.5t80 -47.5l125 145l67 -55l-139 -162q19 -40 29 -89t10 -110q0 -116 -33 -222.5t-93.5 -188t-145 -130t-186.5 -48.5q-124 0 -200 73l-138 -160l-64 57l150 173q-44 79 -44 207z
M438 54q40 0 75.5 21t64 58.5t51.5 88t38.5 109t23.5 122.5t9 128v42l-403 -468q20 -48 56 -74.5t85 -26.5zM552 824q-57 0 -99.5 -24.5t-74 -66t-52 -95t-33 -111.5t-18 -116.5t-5.5 -109.5v-22.5t2 -23.5l409 474q-38 95 -129 95z" />
    <glyph glyph-name="ugrave" unicode="&#xf9;" 
d="M914 97v-45q-35 -28 -85 -45t-98 -17q-51 0 -73 21.5t-22 45.5q0 32 15 106.5t44 181.5h-7q-15 -32 -37.5 -72t-52 -81t-65 -79.5t-76.5 -68.5t-86.5 -48t-95.5 -18q-89 0 -127.5 44t-38.5 122q0 26 7 69.5t18.5 97t26 114t29.5 122.5t29.5 121t25.5 110l-108 17v43
q28 11 60.5 21.5t65 19t63 15t54.5 8.5l39 -21q-11 -61 -27.5 -129t-34 -136.5t-35 -134.5t-31.5 -124.5t-22.5 -106.5t-8.5 -79q0 -38 20 -60.5t66 -22.5q40 0 81 24.5t80.5 63t75.5 86.5t64.5 94t49 85t28.5 61l83 379h141l-165 -784h130zM699 1116l-48 -32l-324 270l2 39
q13 10 40.5 18.5t57.5 14.5t58 8.5t43 0.5z" />
    <glyph glyph-name="uacute" unicode="&#xfa;" 
d="M914 97v-45q-35 -28 -85 -45t-98 -17q-51 0 -73 21.5t-22 45.5q0 32 15 106.5t44 181.5h-7q-15 -32 -37.5 -72t-52 -81t-65 -79.5t-76.5 -68.5t-86.5 -48t-95.5 -18q-89 0 -127.5 44t-38.5 122q0 26 7 69.5t18.5 97t26 114t29.5 122.5t29.5 121t25.5 110l-108 17v43
q28 11 60.5 21.5t65 19t63 15t54.5 8.5l39 -21q-11 -61 -27.5 -129t-34 -136.5t-35 -134.5t-31.5 -124.5t-22.5 -106.5t-8.5 -79q0 -38 20 -60.5t66 -22.5q40 0 81 24.5t80.5 63t75.5 86.5t64.5 94t49 85t28.5 61l83 379h141l-165 -784h130zM802 1426q15 2 46 1t63 -5
t59.5 -10.5t35.5 -15.5l-2 -35l-382 -271l-52 39z" />
    <glyph glyph-name="ucircumflex" unicode="&#xfb;" 
d="M914 97v-45q-35 -28 -85 -45t-98 -17q-51 0 -73 21.5t-22 45.5q0 32 15 106.5t44 181.5h-7q-15 -32 -37.5 -72t-52 -81t-65 -79.5t-76.5 -68.5t-86.5 -48t-95.5 -18q-89 0 -127.5 44t-38.5 122q0 26 7 69.5t18.5 97t26 114t29.5 122.5t29.5 121t25.5 110l-108 17v43
q28 11 60.5 21.5t65 19t63 15t54.5 8.5l39 -21q-11 -61 -27.5 -129t-34 -136.5t-35 -134.5t-31.5 -124.5t-22.5 -106.5t-8.5 -79q0 -38 20 -60.5t66 -22.5q40 0 81 24.5t80.5 63t75.5 86.5t64.5 94t49 85t28.5 61l83 379h141l-165 -784h130zM455 1090q-17 6 -29 15.5
t-19 23.5l275 331q11 5 24 6t21 -6l138 -339q-24 -24 -55 -31l-148 174z" />
    <glyph glyph-name="udieresis" unicode="&#xfc;" 
d="M914 97v-45q-35 -28 -85 -45t-98 -17q-51 0 -73 21.5t-22 45.5q0 32 15 106.5t44 181.5h-7q-15 -32 -37.5 -72t-52 -81t-65 -79.5t-76.5 -68.5t-86.5 -48t-95.5 -18q-89 0 -127.5 44t-38.5 122q0 26 7 69.5t18.5 97t26 114t29.5 122.5t29.5 121t25.5 110l-108 17v43
q28 11 60.5 21.5t65 19t63 15t54.5 8.5l39 -21q-11 -61 -27.5 -129t-34 -136.5t-35 -134.5t-31.5 -124.5t-22.5 -106.5t-8.5 -79q0 -38 20 -60.5t66 -22.5q40 0 81 24.5t80.5 63t75.5 86.5t64.5 94t49 85t28.5 61l83 379h141l-165 -784h130zM353 1262q0 44 27 70.5t71 26.5
q45 0 72 -26.5t27 -70.5q0 -42 -27 -68t-72 -26q-44 0 -71 26t-27 68zM719 1262q0 44 27.5 70.5t70.5 26.5q45 0 72.5 -26.5t27.5 -70.5q0 -42 -27.5 -68t-72.5 -26q-43 0 -70.5 26t-27.5 68z" />
    <glyph glyph-name="yacute" unicode="&#xfd;" horiz-adv-x="909" 
d="M403 0q-14 69 -32 149t-38.5 161t-43 158t-44.5 140.5t-43 108.5t-39 61l-113 15v44q9 6 29.5 17t46 21.5t54 18.5t53.5 8q37 0 55.5 -20t30.5 -48q22 -51 47 -118t49.5 -145t46.5 -163.5t37 -172.5l5 -105h4l44 103q25 49 51.5 104t51 111.5t45.5 112t35 105.5
q-1 19 -6 51t-12 65t-13.5 60.5t-9.5 38.5q25 10 53 15.5t54 5.5t50 -5.5t44 -15.5q-8 -59 -27.5 -126t-46.5 -138t-60 -144.5t-68.5 -144t-71 -136t-67.5 -122.5q-68 -120 -124.5 -205.5t-110.5 -139.5t-109.5 -79.5t-121.5 -25.5q-21 0 -44 7t-50 21q-2 20 3.5 45t17.5 49
t30 45t41 33l143 -74q13 9 36 33t48 58.5t49.5 76.5t40.5 86zM724 1426q15 2 46 1t63 -5t59.5 -10.5t35.5 -15.5l-2 -35l-382 -271l-52 39z" />
    <glyph glyph-name="thorn" unicode="&#xfe;" 
d="M159 -267q31 -5 62.5 -16.5t60.5 -27.5v-52h-277l-15 17l330 1596l-107 16v44q58 24 122.5 43.5t120.5 19.5l34 -21l-160 -781h7q31 70 69 130.5t82.5 105t96 70t108.5 25.5q39 0 73.5 -15.5t61 -46t41.5 -76t15 -105.5q0 -91 -18 -176.5t-51.5 -161.5t-80.5 -139
t-104 -108.5t-123 -70.5t-137 -25q-30 0 -50.5 2t-36.5 6.5t-30.5 11.5t-33.5 16zM610 793q-34 0 -65.5 -18.5t-61 -48.5t-56 -68.5t-49 -79t-41 -80t-31.5 -70.5l-69 -333q12 -11 24 -18.5t27.5 -12.5t36.5 -7.5t51 -2.5q47 0 90.5 24t81.5 65t69.5 96t54 117.5t35 129
t12.5 131.5q0 84 -28.5 130t-80.5 46z" />
    <glyph glyph-name="ydieresis" unicode="&#xff;" horiz-adv-x="909" 
d="M403 0q-14 69 -32 149t-38.5 161t-43 158t-44.5 140.5t-43 108.5t-39 61l-113 15v44q9 6 29.5 17t46 21.5t54 18.5t53.5 8q37 0 55.5 -20t30.5 -48q22 -51 47 -118t49.5 -145t46.5 -163.5t37 -172.5l5 -105h4l44 103q25 49 51.5 104t51 111.5t45.5 112t35 105.5
q-1 19 -6 51t-12 65t-13.5 60.5t-9.5 38.5q25 10 53 15.5t54 5.5t50 -5.5t44 -15.5q-8 -59 -27.5 -126t-46.5 -138t-60 -144.5t-68.5 -144t-71 -136t-67.5 -122.5q-68 -120 -124.5 -205.5t-110.5 -139.5t-109.5 -79.5t-121.5 -25.5q-21 0 -44 7t-50 21q-2 20 3.5 45t17.5 49
t30 45t41 33l143 -74q13 9 36 33t48 58.5t49.5 76.5t40.5 86zM249 1262q0 44 27 70.5t71 26.5q45 0 72 -26.5t27 -70.5q0 -42 -27 -68t-72 -26q-44 0 -71 26t-27 68zM615 1262q0 44 27.5 70.5t70.5 26.5q45 0 72.5 -26.5t27.5 -70.5q0 -42 -27.5 -68t-72.5 -26
q-43 0 -70.5 26t-27.5 68z" />
    <glyph glyph-name="Amacron" unicode="&#x100;" horiz-adv-x="1251" 
d="M352 56l-12 -56h-430l12 56q39 17 75.5 28t73.5 19l802 1276h56l169 -1276q37 -8 72.5 -18t64.5 -29l-12 -56h-488l12 56q43 15 85.5 27t83.5 20l-43 344h-467l-210 -344q41 -6 79.5 -18t76.5 -29zM813 928l-18 169h-4l-93 -173l-230 -376h392zM625 1527v100h583v-100
h-583z" />
    <glyph glyph-name="amacron" unicode="&#x101;" 
d="M324 88q32 0 68.5 21t73.5 55.5t73 77.5t67 87.5t55 86t37 72.5l56 301q-26 17 -64 24t-90 7q-59 0 -111 -23t-95.5 -63t-78.5 -93.5t-59.5 -114t-37.5 -125.5t-13 -127q0 -90 32.5 -138t86.5 -48zM662 345q-23 -63 -67 -128t-100 -118t-120 -87t-125 -34q-91 0 -147 68
t-56 199q0 82 17.5 162.5t51 152.5t82.5 133.5t112 106.5t138.5 70.5t163.5 25.5q53 0 91 -7.5t76 -23.5q72 37 147 37l-158 -805h128v-45q-35 -28 -84 -45t-97 -17q-26 0 -44 6t-29.5 15.5t-16.5 22t-5 24.5q0 67 49 287h-7zM435 1227v95h463v-95h-463z" />
    <glyph glyph-name="Abreve" unicode="&#x102;" horiz-adv-x="1251" 
d="M352 56l-12 -56h-430l12 56q39 17 75.5 28t73.5 19l802 1276h56l169 -1276q37 -8 72.5 -18t64.5 -29l-12 -56h-488l12 56q43 15 85.5 27t83.5 20l-43 344h-467l-210 -344q41 -6 79.5 -18t76.5 -29zM813 928l-18 169h-4l-93 -173l-230 -376h392zM1194 1710q14 2 29 -4
t27 -22q-26 -42 -63 -81t-80.5 -68.5t-91.5 -47t-97 -17.5q-106 0 -166 57t-71 169q17 19 35.5 23.5t37.5 -2.5q17 -48 59.5 -77.5t116.5 -32.5q76 -4 138.5 22t125.5 81z" />
    <glyph glyph-name="abreve" unicode="&#x103;" 
d="M324 88q32 0 68.5 21t73.5 55.5t73 77.5t67 87.5t55 86t37 72.5l56 301q-26 17 -64 24t-90 7q-59 0 -111 -23t-95.5 -63t-78.5 -93.5t-59.5 -114t-37.5 -125.5t-13 -127q0 -90 32.5 -138t86.5 -48zM662 345q-23 -63 -67 -128t-100 -118t-120 -87t-125 -34q-91 0 -147 68
t-56 199q0 82 17.5 162.5t51 152.5t82.5 133.5t112 106.5t138.5 70.5t163.5 25.5q53 0 91 -7.5t76 -23.5q72 37 147 37l-158 -805h128v-45q-35 -28 -84 -45t-97 -17q-26 0 -44 6t-29.5 15.5t-16.5 22t-5 24.5q0 67 49 287h-7zM945 1337q-18 -38 -50.5 -76t-73.5 -69
t-87.5 -50t-91.5 -19q-49 0 -86.5 16t-64 44.5t-43 69t-22.5 89.5l54 26q16 -25 33.5 -45t39.5 -34.5t50.5 -23.5t68.5 -10q60 -2 121 25.5t112 84.5z" />
    <glyph glyph-name="Aogonek" unicode="&#x104;" horiz-adv-x="1251" 
d="M352 56l-12 -56h-430l12 56q39 17 75.5 28t73.5 19l802 1276h56l169 -1276q37 -8 72.5 -18t64.5 -29l-12 -56h-488l12 56q43 15 85.5 27t83.5 20l-43 344h-467l-210 -344q41 -6 79.5 -18t76.5 -29zM813 928l-18 169h-4l-93 -173l-230 -376h392zM1222 39
q-63 -28 -123.5 -62t-108 -74t-76 -87t-28.5 -101q0 -45 27.5 -73t79.5 -28q31 0 58 3.5t51 8.5v-48q-15 -11 -36.5 -22.5t-47.5 -20.5t-55.5 -15t-61.5 -6q-39 0 -72.5 11.5t-57.5 32.5t-38 50.5t-14 65.5q0 64 31 115t85.5 94.5t128 81.5t158.5 74h100z" />
    <glyph glyph-name="aogonek" unicode="&#x105;" 
d="M324 88q32 0 68.5 21t73.5 55.5t73 77.5t67 87.5t55 86t37 72.5l56 301q-26 17 -64 24t-90 7q-59 0 -111 -23t-95.5 -63t-78.5 -93.5t-59.5 -114t-37.5 -125.5t-13 -127q0 -90 32.5 -138t86.5 -48zM662 345q-23 -63 -67 -128t-100 -118t-120 -87t-125 -34q-91 0 -147 68
t-56 199q0 82 17.5 162.5t51 152.5t82.5 133.5t112 106.5t138.5 70.5t163.5 25.5q53 0 91 -7.5t76 -23.5q72 37 147 37l-158 -805h128v-45q-35 -28 -84 -45t-97 -17q-26 0 -44 6t-29.5 15.5t-16.5 22t-5 24.5q0 67 49 287h-7zM873 37q-54 -24 -102.5 -53t-85 -63.5
t-57.5 -74t-21 -84.5q0 -15 4.5 -31t14.5 -28.5t27 -20.5t41 -8q26 0 49.5 4.5t49.5 12.5v-58q-15 -7 -35 -14t-41.5 -12.5t-43 -9t-37.5 -3.5q-96 0 -142.5 36.5t-46.5 96.5q0 54 28.5 100t77 84t114 69t139.5 57h67z" />
    <glyph glyph-name="Cacute" unicode="&#x106;" horiz-adv-x="1366" 
d="M1170 373h51q-1 -27 -4 -62.5t-8.5 -74.5t-13 -80t-16.5 -80q-70 -45 -178.5 -72.5t-235.5 -27.5q-141 0 -256.5 38.5t-198 111t-128 176.5t-45.5 236q0 143 34.5 261t95 211.5t142.5 162.5t176.5 115t197.5 68.5t205 22.5q81 0 148 -7.5t121 -20.5t96 -30.5t72 -36.5
q-5 -30 -16 -72.5t-25 -88.5t-29.5 -91.5t-30.5 -81.5h-50l-42 279q-9 6 -26.5 14.5t-43.5 16.5t-61 13.5t-78 5.5q-82 0 -165 -20.5t-159 -61t-142.5 -101t-115.5 -140.5t-77 -179.5t-28 -217.5q0 -120 35 -210.5t96.5 -150.5t146 -90t183.5 -30q75 0 135.5 16t95.5 39z
M1130 1730q17 2 46.5 -2.5t59.5 -13t55 -20.5t34 -26l-8 -39l-409 -180l-42 41z" />
    <glyph glyph-name="cacute" unicode="&#x107;" horiz-adv-x="909" 
d="M810 238q-28 -49 -69 -95.5t-93.5 -83t-115.5 -59t-135 -22.5q-155 0 -242 86t-87 248q0 78 18.5 152t52 139.5t81 120.5t106 94.5t127 61.5t143.5 22q48 0 94 -9.5t84.5 -27t67 -43t42.5 -58.5q-2 -24 -17.5 -48.5t-38 -43.5t-49 -31t-49.5 -12v150q-22 16 -62.5 30
t-82.5 14q-65 0 -128 -40t-112.5 -106.5t-80 -153t-30.5 -179.5q0 -60 16.5 -107.5t44 -80.5t64 -50.5t76.5 -17.5q103 0 184.5 51.5t157.5 141.5zM774 1426q15 2 46 1t63 -5t59.5 -10.5t35.5 -15.5l-2 -35l-382 -271l-52 39z" />
    <glyph glyph-name="Ccircumflex" unicode="&#x108;" horiz-adv-x="1366" 
d="M1170 373h51q-1 -27 -4 -62.5t-8.5 -74.5t-13 -80t-16.5 -80q-70 -45 -178.5 -72.5t-235.5 -27.5q-141 0 -256.5 38.5t-198 111t-128 176.5t-45.5 236q0 143 34.5 261t95 211.5t142.5 162.5t176.5 115t197.5 68.5t205 22.5q81 0 148 -7.5t121 -20.5t96 -30.5t72 -36.5
q-5 -30 -16 -72.5t-25 -88.5t-29.5 -91.5t-30.5 -81.5h-50l-42 279q-9 6 -26.5 14.5t-43.5 16.5t-61 13.5t-78 5.5q-82 0 -165 -20.5t-159 -61t-142.5 -101t-115.5 -140.5t-77 -179.5t-28 -217.5q0 -120 35 -210.5t96.5 -150.5t146 -90t183.5 -30q75 0 135.5 16t95.5 39z
M784 1474q-14 8 -22.5 17t-10.5 23l292 216q13 7 26.5 7.5t23.5 -7.5l198 -211q-2 -13 -11.5 -23t-25.5 -17l-211 110z" />
    <glyph glyph-name="ccircumflex" unicode="&#x109;" horiz-adv-x="909" 
d="M810 238q-28 -49 -69 -95.5t-93.5 -83t-115.5 -59t-135 -22.5q-155 0 -242 86t-87 248q0 78 18.5 152t52 139.5t81 120.5t106 94.5t127 61.5t143.5 22q48 0 94 -9.5t84.5 -27t67 -43t42.5 -58.5q-2 -24 -17.5 -48.5t-38 -43.5t-49 -31t-49.5 -12v150q-22 16 -62.5 30
t-82.5 14q-65 0 -128 -40t-112.5 -106.5t-80 -153t-30.5 -179.5q0 -60 16.5 -107.5t44 -80.5t64 -50.5t76.5 -17.5q103 0 184.5 51.5t157.5 141.5zM425 1090q-17 6 -29 15.5t-19 23.5l275 331q11 5 24 6t21 -6l138 -339q-24 -24 -55 -31l-148 174z" />
    <glyph glyph-name="Ccaron" unicode="&#x10c;" horiz-adv-x="1366" 
d="M1170 373h51q-1 -27 -4 -62.5t-8.5 -74.5t-13 -80t-16.5 -80q-70 -45 -178.5 -72.5t-235.5 -27.5q-141 0 -256.5 38.5t-198 111t-128 176.5t-45.5 236q0 143 34.5 261t95 211.5t142.5 162.5t176.5 115t197.5 68.5t205 22.5q81 0 148 -7.5t121 -20.5t96 -30.5t72 -36.5
q-5 -30 -16 -72.5t-25 -88.5t-29.5 -91.5t-30.5 -81.5h-50l-42 279q-9 6 -26.5 14.5t-43.5 16.5t-61 13.5t-78 5.5q-82 0 -165 -20.5t-159 -61t-142.5 -101t-115.5 -140.5t-77 -179.5t-28 -217.5q0 -120 35 -210.5t96.5 -150.5t146 -90t183.5 -30q75 0 135.5 16t95.5 39z
M1289 1740q9 0 18.5 -2.5t18 -7t14.5 -10.5t8 -12l-292 -218q-11 -5 -25.5 -5t-24.5 5l-198 212q3 14 17.5 23.5t34.5 9.5l199 -96z" />
    <glyph glyph-name="ccaron" unicode="&#x10d;" horiz-adv-x="909" 
d="M810 238q-28 -49 -69 -95.5t-93.5 -83t-115.5 -59t-135 -22.5q-155 0 -242 86t-87 248q0 78 18.5 152t52 139.5t81 120.5t106 94.5t127 61.5t143.5 22q48 0 94 -9.5t84.5 -27t67 -43t42.5 -58.5q-2 -24 -17.5 -48.5t-38 -43.5t-49 -31t-49.5 -12v150q-22 16 -62.5 30
t-82.5 14q-65 0 -128 -40t-112.5 -106.5t-80 -153t-30.5 -179.5q0 -60 16.5 -107.5t44 -80.5t64 -50.5t76.5 -17.5q103 0 184.5 51.5t157.5 141.5zM907 1467q17 2 30.5 -7t16.5 -22l-299 -338q-10 -5 -22.5 -5.5t-22.5 5.5l-150 336q9 14 29.5 23.5t39.5 7.5l145 -172z" />
    <glyph glyph-name="Dcaron" unicode="&#x10e;" horiz-adv-x="1479" 
d="M-41 0l12 56q39 17 81 28t88 19l244 1149q-43 10 -80 22.5t-69 25.5l12 57h198q33 0 77 2.5t92.5 5t98 5t93.5 2.5q166 0 288 -35.5t202 -102t118.5 -163.5t38.5 -220q0 -114 -24 -222t-74 -204.5t-126.5 -177.5t-181 -139.5t-238.5 -91.5t-298 -33q-39 0 -87.5 2.5
t-98.5 6t-97 6t-83 2.5h-186zM799 1270h-70t-69 -0.5t-59 -2t-40 -4.5l-249 -1174q9 -2 33.5 -3t56.5 -2t67.5 -1h66.5q135 0 240 33.5t183 90t132.5 130.5t87.5 156t48 166.5t15 160.5q0 81 -22 161t-73.5 144.5t-136.5 104.5t-211 40zM1092 1740q9 0 18.5 -2.5t18 -7
t14.5 -10.5t8 -12l-292 -218q-11 -5 -25.5 -5t-24.5 5l-198 212q3 14 17.5 23.5t34.5 9.5l199 -96z" />
    <glyph glyph-name="dcaron" unicode="&#x10f;" horiz-adv-x="1246" 
d="M326 88q32 0 69.5 21t76 55.5t75.5 77.5t69 87.5t56.5 86t37.5 72.5l49 279q-37 29 -80.5 43.5t-83.5 14.5q-68 0 -123.5 -23t-100 -63t-77 -92t-54.5 -110t-32.5 -118.5t-10.5 -115.5q0 -49 10 -88.5t27.5 -67.5t41 -43.5t50.5 -15.5zM675 345q-23 -63 -69 -128.5
t-104 -118.5t-123 -86.5t-127 -33.5q-45 0 -83.5 18t-67.5 55t-45.5 94.5t-16.5 136.5q0 74 15.5 149t47 144t78 128.5t108.5 104t138.5 69.5t168.5 25q23 0 48 -4.5t49 -12t45 -17.5t38 -21l85 403l-123 16v44q25 10 57.5 20t67 18t69 14.5t64.5 10.5l37 -13l-251 -1263
h128v-45q-35 -28 -84.5 -45t-97.5 -17q-51 0 -72.5 21.5t-21.5 46.5q0 32 11.5 104.5t37.5 182.5h-7zM1071 978q30 43 56 91.5t47 97.5t36 95.5t23 85.5l30 31q15 1 36 -1.5t43 -8.5t41 -15t28 -19q-21 -54 -57.5 -109.5t-79 -105.5t-87 -92.5t-81.5 -70.5z" />
    <glyph glyph-name="Dcroat" unicode="&#x110;" horiz-adv-x="1479" 
d="M85 744h191l108 508q-43 10 -80 22.5t-69 25.5l12 57h198q33 0 77 2.5t92.5 5t98 5t93.5 2.5q166 0 288 -35.5t202 -102t118.5 -163.5t38.5 -220q0 -113 -24 -221.5t-74 -205t-126.5 -177.5t-181 -139.5t-238.5 -91.5t-298 -33q-39 0 -87.5 2.5t-98.5 6t-97 6t-83 2.5
h-186l12 56q39 17 81 28t88 19l114 540h-190zM799 1270h-70t-69 -0.5t-59 -2t-40 -4.5l-110 -519h305l-21 -101h-306l-117 -554q9 -2 33.5 -3t56.5 -2t67.5 -1h66.5q135 0 240 33.5t183 90t132.5 130.5t87.5 156t48 166.5t15 160.5q0 81 -22 161t-73.5 144.5t-136.5 104.5
t-211 40z" />
    <glyph glyph-name="dcroat" unicode="&#x111;" 
d="M675 345q-23 -63 -69 -128.5t-104 -118.5t-123 -86.5t-127 -33.5q-45 0 -83.5 18t-67.5 55t-45.5 94.5t-16.5 136.5q0 74 15.5 149t47 144t78 128.5t108.5 104t138.5 69.5t168.5 25q23 0 48 -4.5t49 -12t45 -17.5t38 -21l33 158h-286l20 91h285l33 154l-123 16v44
q25 10 57.5 20t67 18t69 14.5t64.5 10.5l37 -13l-53 -264h155l-22 -91h-151l-180 -908h128v-45q-35 -28 -84.5 -45t-97.5 -17q-51 0 -72.5 21.5t-21.5 46.5q0 32 11.5 104.5t37.5 182.5h-7zM326 88q32 0 69.5 21t76 55.5t75.5 77.5t69 87.5t56.5 86t37.5 72.5l49 279
q-37 29 -80.5 43.5t-83.5 14.5q-68 0 -123.5 -23t-100 -63t-77 -92t-54.5 -110t-32.5 -118.5t-10.5 -115.5q0 -49 10 -88.5t27.5 -67.5t41 -43.5t50.5 -15.5z" />
    <glyph glyph-name="Emacron" unicode="&#x112;" horiz-adv-x="1251" 
d="M1292 1357q-19 -78 -40 -157t-48 -158h-51l-34 213h-491l-109 -513h386l105 143h48q-14 -97 -35 -194t-48 -197h-48l-44 147h-386l-115 -541h515l145 233h49q-5 -81 -16.5 -164.5t-33.5 -168.5h-1026l12 56q40 17 81.5 28t87.5 19l244 1149q-38 7 -75 19.5t-74 28.5
l12 57h989zM534 1527v100h583v-100h-583z" />
    <glyph glyph-name="emacron" unicode="&#x113;" horiz-adv-x="909" 
d="M796 231q-22 -42 -59 -87t-88.5 -82t-118 -60.5t-146.5 -23.5t-140 26t-100 70t-60.5 103.5t-20.5 127.5q0 81 19.5 156.5t54.5 142t84.5 121.5t109.5 94.5t128.5 61t142.5 21.5q63 0 111 -14t80.5 -38t48.5 -56t16 -68q0 -69 -48.5 -122t-132.5 -89.5t-198 -55.5
t-245 -19q-8 -29 -10.5 -56t-2.5 -45q0 -54 14 -100t42.5 -79.5t72 -52.5t102.5 -19q70 0 152.5 44t162.5 132zM548 824q-38 0 -81 -16.5t-84.5 -53t-77.5 -95.5t-59 -143q89 -6 172 5t147.5 37.5t103 66.5t38.5 91q0 22 -10.5 41.5t-30.5 34.5t-49.5 23.5t-68.5 8.5z
M456 1227v95h463v-95h-463z" />
    <glyph glyph-name="Edotaccent" unicode="&#x116;" horiz-adv-x="1251" 
d="M1292 1357q-19 -78 -40 -157t-48 -158h-51l-34 213h-491l-109 -513h386l105 143h48q-14 -97 -35 -194t-48 -197h-48l-44 147h-386l-115 -541h515l145 233h49q-5 -81 -16.5 -164.5t-33.5 -168.5h-1026l12 56q40 17 81.5 28t87.5 19l244 1149q-38 7 -75 19.5t-74 28.5
l12 57h989zM721 1583q0 25 10 45t27 33t40 20t49 7q53 0 87.5 -27t34.5 -78t-34.5 -77.5t-87.5 -26.5q-26 0 -49 6.5t-40 20t-27 32.5t-10 45z" />
    <glyph glyph-name="edotaccent" unicode="&#x117;" horiz-adv-x="909" 
d="M796 231q-22 -42 -59 -87t-88.5 -82t-118 -60.5t-146.5 -23.5t-140 26t-100 70t-60.5 103.5t-20.5 127.5q0 81 19.5 156.5t54.5 142t84.5 121.5t109.5 94.5t128.5 61t142.5 21.5q63 0 111 -14t80.5 -38t48.5 -56t16 -68q0 -69 -48.5 -122t-132.5 -89.5t-198 -55.5
t-245 -19q-8 -29 -10.5 -56t-2.5 -45q0 -54 14 -100t42.5 -79.5t72 -52.5t102.5 -19q70 0 152.5 44t162.5 132zM548 824q-38 0 -81 -16.5t-84.5 -53t-77.5 -95.5t-59 -143q89 -6 172 5t147.5 37.5t103 66.5t38.5 91q0 22 -10.5 41.5t-30.5 34.5t-49.5 23.5t-68.5 8.5z
M579 1260q0 45 28.5 70.5t76.5 25.5q47 0 75 -25.5t28 -70.5q0 -46 -28 -71t-75 -25q-48 0 -76.5 25t-28.5 71z" />
    <glyph glyph-name="Eogonek" unicode="&#x118;" horiz-adv-x="1251" 
d="M1292 1357q-19 -78 -40 -157t-48 -158h-51l-34 213h-491l-109 -513h386l105 143h48q-14 -97 -35 -194t-48 -197h-48l-44 147h-386l-115 -541h515l145 233h49q-5 -81 -16.5 -164.5t-33.5 -168.5h-1026l12 56q40 17 81.5 28t87.5 19l244 1149q-38 7 -75 19.5t-74 28.5
l12 57h989zM1026 39q-63 -28 -123.5 -62t-108 -74t-76 -87t-28.5 -101q0 -45 27.5 -73t79.5 -28q31 0 58 3.5t51 8.5v-48q-15 -11 -36.5 -22.5t-47.5 -20.5t-55.5 -15t-61.5 -6q-39 0 -72.5 11.5t-57.5 32.5t-38 50.5t-14 65.5q0 64 31 115t85.5 94.5t128 81.5t158.5 74h100
z" />
    <glyph glyph-name="eogonek" unicode="&#x119;" horiz-adv-x="909" 
d="M796 231q-22 -42 -59 -87t-88.5 -82t-118 -60.5t-146.5 -23.5t-140 26t-100 70t-60.5 103.5t-20.5 127.5q0 81 19.5 156.5t54.5 142t84.5 121.5t109.5 94.5t128.5 61t142.5 21.5q63 0 111 -14t80.5 -38t48.5 -56t16 -68q0 -69 -48.5 -122t-132.5 -89.5t-198 -55.5
t-245 -19q-8 -29 -10.5 -56t-2.5 -45q0 -54 14 -100t42.5 -79.5t72 -52.5t102.5 -19q70 0 152.5 44t162.5 132zM548 824q-38 0 -81 -16.5t-84.5 -53t-77.5 -95.5t-59 -143q89 -6 172 5t147.5 37.5t103 66.5t38.5 91q0 22 -10.5 41.5t-30.5 34.5t-49.5 23.5t-68.5 8.5z
M605 37q-54 -24 -102.5 -53t-85 -63.5t-57.5 -74t-21 -84.5q0 -15 4.5 -31t14.5 -28.5t27 -20.5t41 -8q26 0 49.5 4.5t49.5 12.5v-58q-15 -7 -35 -14t-41.5 -12.5t-43 -9t-37.5 -3.5q-96 0 -142.5 36.5t-46.5 96.5q0 54 28.5 100t77 84t114 69t139.5 57h67z" />
    <glyph glyph-name="Ecaron" unicode="&#x11a;" horiz-adv-x="1251" 
d="M1292 1357q-19 -78 -40 -157t-48 -158h-51l-34 213h-491l-109 -513h386l105 143h48q-14 -97 -35 -194t-48 -197h-48l-44 147h-386l-115 -541h515l145 233h49q-5 -81 -16.5 -164.5t-33.5 -168.5h-1026l12 56q40 17 81.5 28t87.5 19l244 1149q-38 7 -75 19.5t-74 28.5
l12 57h989zM1119 1740q9 0 18.5 -2.5t18 -7t14.5 -10.5t8 -12l-292 -218q-11 -5 -25.5 -5t-24.5 5l-198 212q3 14 17.5 23.5t34.5 9.5l199 -96z" />
    <glyph glyph-name="ecaron" unicode="&#x11b;" horiz-adv-x="909" 
d="M796 231q-22 -42 -59 -87t-88.5 -82t-118 -60.5t-146.5 -23.5t-140 26t-100 70t-60.5 103.5t-20.5 127.5q0 81 19.5 156.5t54.5 142t84.5 121.5t109.5 94.5t128.5 61t142.5 21.5q63 0 111 -14t80.5 -38t48.5 -56t16 -68q0 -69 -48.5 -122t-132.5 -89.5t-198 -55.5
t-245 -19q-8 -29 -10.5 -56t-2.5 -45q0 -54 14 -100t42.5 -79.5t72 -52.5t102.5 -19q70 0 152.5 44t162.5 132zM548 824q-38 0 -81 -16.5t-84.5 -53t-77.5 -95.5t-59 -143q89 -6 172 5t147.5 37.5t103 66.5t38.5 91q0 22 -10.5 41.5t-30.5 34.5t-49.5 23.5t-68.5 8.5z
M917 1467q17 2 30.5 -7t16.5 -22l-299 -338q-10 -5 -22.5 -5.5t-22.5 5.5l-150 336q9 14 29.5 23.5t39.5 7.5l145 -172z" />
    <glyph glyph-name="Gcircumflex" unicode="&#x11c;" horiz-adv-x="1479" 
d="M1233 123q-41 -30 -97 -56.5t-117.5 -47t-124.5 -32t-117 -11.5q-128 0 -243.5 33t-202.5 102t-138.5 175.5t-51.5 254.5q0 139 35 255.5t96 209.5t143.5 163t177.5 116.5t197.5 70t203.5 23.5q88 0 160 -9t129 -22.5t99 -30.5t72 -33q-6 -29 -17 -72t-24.5 -89.5
t-28.5 -92t-30 -80.5h-51l-41 279q-10 6 -33 14.5t-57.5 16.5t-80 13.5t-99.5 5.5q-77 0 -155 -21t-150 -62t-135.5 -102.5t-110.5 -142.5t-74 -181.5t-27 -219.5q0 -108 36.5 -195t98.5 -148.5t144.5 -95t175.5 -33.5q94 0 166.5 25t112.5 63l78 370q-49 5 -91.5 18
t-84.5 29l12 56h475l-12 -56q-21 -13 -50.5 -25t-79.5 -22zM804 1474q-14 8 -22.5 17t-10.5 23l292 216q13 7 26.5 7.5t23.5 -7.5l198 -211q-2 -13 -11.5 -23t-25.5 -17l-211 110z" />
    <glyph glyph-name="gcircumflex" unicode="&#x11d;" 
d="M575 902q49 0 87.5 -5.5t68 -15t50.5 -21.5t36 -25q16 14 42 28t56 26.5t61.5 23t60.5 18.5q5 -8 8.5 -25.5t3 -38.5t-6.5 -43.5t-19 -40.5l-181 13q15 -19 20.5 -38.5t5.5 -42.5q0 -70 -25.5 -129.5t-76 -103t-126 -68t-174.5 -24.5q-31 0 -49.5 0.5t-40.5 5.5
q-8 -9 -20 -19t-23 -22t-19 -25t-8 -27q0 -22 24 -36.5t63 -25.5t89.5 -20t102.5 -21t102.5 -28t89.5 -41t63 -60t24 -85q0 -82 -46 -148t-124 -113t-182 -72.5t-220 -25.5q-81 0 -143.5 17t-105.5 45.5t-65.5 65.5t-22.5 77q0 49 22.5 91.5t62.5 80t94 69.5t116 61
q-27 14 -44 38t-17 53q0 27 18 56.5t41.5 55t47.5 45.5t36 28q-30 7 -58.5 21.5t-51 38.5t-36 58t-13.5 80q0 61 26.5 114.5t77.5 93.5t126 63t172 23zM373 -298q54 0 112.5 15.5t107.5 45t80.5 72.5t31.5 98q0 35 -22.5 59.5t-58.5 41.5t-81.5 28t-92 20t-89.5 17t-74 19
q-83 -60 -129 -124.5t-46 -122.5q0 -39 21 -70t56.5 -53t83 -34t100.5 -12zM561 832q-51 0 -95.5 -15t-78 -43t-52.5 -68t-19 -91q0 -43 12.5 -72.5t35 -48t52.5 -26.5t66 -8q52 0 95 15.5t74 45t48 71t17 93.5q0 65 -40 106t-115 41zM404 1090q-17 6 -29 15.5t-19 23.5
l275 331q11 5 24 6t21 -6l138 -339q-24 -24 -55 -31l-148 174z" />
    <glyph glyph-name="Gbreve" unicode="&#x11e;" horiz-adv-x="1479" 
d="M1233 123q-41 -30 -97 -56.5t-117.5 -47t-124.5 -32t-117 -11.5q-128 0 -243.5 33t-202.5 102t-138.5 175.5t-51.5 254.5q0 139 35 255.5t96 209.5t143.5 163t177.5 116.5t197.5 70t203.5 23.5q88 0 160 -9t129 -22.5t99 -30.5t72 -33q-6 -29 -17 -72t-24.5 -89.5
t-28.5 -92t-30 -80.5h-51l-41 279q-10 6 -33 14.5t-57.5 16.5t-80 13.5t-99.5 5.5q-77 0 -155 -21t-150 -62t-135.5 -102.5t-110.5 -142.5t-74 -181.5t-27 -219.5q0 -108 36.5 -195t98.5 -148.5t144.5 -95t175.5 -33.5q94 0 166.5 25t112.5 63l78 370q-49 5 -91.5 18
t-84.5 29l12 56h475l-12 -56q-21 -13 -50.5 -25t-79.5 -22zM1342 1710q14 2 29 -4t27 -22q-26 -42 -63 -81t-80.5 -68.5t-91.5 -47t-97 -17.5q-106 0 -166 57t-71 169q17 19 35.5 23.5t37.5 -2.5q17 -48 59.5 -77.5t116.5 -32.5q76 -4 138.5 22t125.5 81z" />
    <glyph glyph-name="gbreve" unicode="&#x11f;" 
d="M575 902q49 0 87.5 -5.5t68 -15t50.5 -21.5t36 -25q16 14 42 28t56 26.5t61.5 23t60.5 18.5q5 -8 8.5 -25.5t3 -38.5t-6.5 -43.5t-19 -40.5l-181 13q15 -19 20.5 -38.5t5.5 -42.5q0 -70 -25.5 -129.5t-76 -103t-126 -68t-174.5 -24.5q-31 0 -49.5 0.5t-40.5 5.5
q-8 -9 -20 -19t-23 -22t-19 -25t-8 -27q0 -22 24 -36.5t63 -25.5t89.5 -20t102.5 -21t102.5 -28t89.5 -41t63 -60t24 -85q0 -82 -46 -148t-124 -113t-182 -72.5t-220 -25.5q-81 0 -143.5 17t-105.5 45.5t-65.5 65.5t-22.5 77q0 49 22.5 91.5t62.5 80t94 69.5t116 61
q-27 14 -44 38t-17 53q0 27 18 56.5t41.5 55t47.5 45.5t36 28q-30 7 -58.5 21.5t-51 38.5t-36 58t-13.5 80q0 61 26.5 114.5t77.5 93.5t126 63t172 23zM373 -298q54 0 112.5 15.5t107.5 45t80.5 72.5t31.5 98q0 35 -22.5 59.5t-58.5 41.5t-81.5 28t-92 20t-89.5 17t-74 19
q-83 -60 -129 -124.5t-46 -122.5q0 -39 21 -70t56.5 -53t83 -34t100.5 -12zM561 832q-51 0 -95.5 -15t-78 -43t-52.5 -68t-19 -91q0 -43 12.5 -72.5t35 -48t52.5 -26.5t66 -8q52 0 95 15.5t74 45t48 71t17 93.5q0 65 -40 106t-115 41zM888 1337q-18 -38 -50.5 -76t-73.5 -69
t-87.5 -50t-91.5 -19q-49 0 -86.5 16t-64 44.5t-43 69t-22.5 89.5l54 26q16 -25 33.5 -45t39.5 -34.5t50.5 -23.5t68.5 -10q60 -2 121 25.5t112 84.5z" />
    <glyph glyph-name="Gcommaaccent" unicode="&#x122;" horiz-adv-x="1479" 
d="M1233 123q-41 -30 -97 -56.5t-117.5 -47t-124.5 -32t-117 -11.5q-128 0 -243.5 33t-202.5 102t-138.5 175.5t-51.5 254.5q0 139 35 255.5t96 209.5t143.5 163t177.5 116.5t197.5 70t203.5 23.5q88 0 160 -9t129 -22.5t99 -30.5t72 -33q-6 -29 -17 -72t-24.5 -89.5
t-28.5 -92t-30 -80.5h-51l-41 279q-10 6 -33 14.5t-57.5 16.5t-80 13.5t-99.5 5.5q-77 0 -155 -21t-150 -62t-135.5 -102.5t-110.5 -142.5t-74 -181.5t-27 -219.5q0 -108 36.5 -195t98.5 -148.5t144.5 -95t175.5 -33.5q94 0 166.5 25t112.5 63l78 370q-49 5 -91.5 18
t-84.5 29l12 56h475l-12 -56q-21 -13 -50.5 -25t-79.5 -22zM534 -459q19 7 40 20t39.5 31.5t32 42t16.5 51.5q-20 17 -53.5 34.5t-61.5 27.5q-2 31 12 59.5t36.5 51t48.5 36.5t47 16q27 -3 51.5 -13t43 -28t29.5 -43t11 -58q0 -51 -19.5 -97t-55.5 -84t-87 -67.5t-114 -45.5
z" />
    <glyph glyph-name="gcommaaccent" unicode="&#x123;" 
d="M575 902q49 0 87.5 -5.5t68 -15t50.5 -21.5t36 -25q16 14 42 28t56 26.5t61.5 23t60.5 18.5q5 -8 8.5 -25.5t3 -38.5t-6.5 -43.5t-19 -40.5l-181 13q15 -19 20.5 -38.5t5.5 -42.5q0 -70 -25.5 -129.5t-76 -103t-126 -68t-174.5 -24.5q-31 0 -49.5 0.5t-40.5 5.5
q-8 -9 -20 -19t-23 -22t-19 -25t-8 -27q0 -22 24 -36.5t63 -25.5t89.5 -20t102.5 -21t102.5 -28t89.5 -41t63 -60t24 -85q0 -82 -46 -148t-124 -113t-182 -72.5t-220 -25.5q-81 0 -143.5 17t-105.5 45.5t-65.5 65.5t-22.5 77q0 49 22.5 91.5t62.5 80t94 69.5t116 61
q-27 14 -44 38t-17 53q0 27 18 56.5t41.5 55t47.5 45.5t36 28q-30 7 -58.5 21.5t-51 38.5t-36 58t-13.5 80q0 61 26.5 114.5t77.5 93.5t126 63t172 23zM373 -298q54 0 112.5 15.5t107.5 45t80.5 72.5t31.5 98q0 35 -22.5 59.5t-58.5 41.5t-81.5 28t-92 20t-89.5 17t-74 19
q-83 -60 -129 -124.5t-46 -122.5q0 -39 21 -70t56.5 -53t83 -34t100.5 -12zM561 832q-51 0 -95.5 -15t-78 -43t-52.5 -68t-19 -91q0 -43 12.5 -72.5t35 -48t52.5 -26.5t66 -8q52 0 95 15.5t74 45t48 71t17 93.5q0 65 -40 106t-115 41zM753.008 1384.95
q-29.9961 -9.99805 -52.4941 -25.4971q-22.4971 -15.498 -37.9951 -33.4951q-15.498 -17.998 -24.4971 -36.9961q-8.99902 -18.9971 -12.998 -36.9951q16.998 -17.998 48.4941 -33.4961t57.4932 -25.4971q1.99902 -28.9961 -10.999 -55.9932
q-12.998 -26.9961 -33.4961 -47.9941q-20.4971 -20.9971 -44.4941 -33.9951q-23.9971 -12.999 -43.9951 -13.999q-50.9932 5 -82.4893 35.9961t-31.4961 90.9883q0 49.9941 20.4971 95.9883q20.4971 45.9951 55.4932 83.4902t80.9902 63.4922t95.9883 35.9951z" />
    <glyph glyph-name="Hcircumflex" unicode="&#x124;" horiz-adv-x="1479" 
d="M478 0h-491l12 56q44 17 86 28t83 19l244 1149q-45 7 -82.5 19.5t-66.5 28.5l12 57h491l-12 -57q-74 -34 -156 -48l-108 -507h609l108 507q-40 8 -72.5 21t-63.5 27l12 57h491l-12 -57q-39 -19 -82.5 -30t-86.5 -18l-244 -1149q44 -8 82 -19t67 -28l-12 -56h-491l12 56
q39 17 77.5 28t78.5 19l115 542h-609l-115 -542q37 -8 71.5 -19t64.5 -28zM728 1474q-14 8 -22.5 17t-10.5 23l292 216q13 7 26.5 7.5t23.5 -7.5l198 -211q-2 -13 -11.5 -23t-25.5 -17l-211 110z" />
    <glyph glyph-name="hcircumflex" unicode="&#x125;" 
d="M192 1266v40q27 11 60 22.5t67.5 21t68.5 16t63 7.5l37 -15l-168 -789h9q34 70 78 131t96 106t110.5 70.5t121.5 25.5q40 0 69 -12.5t48 -34t27.5 -51.5t8.5 -64q0 -48 -9 -103t-21 -106l-100 -434h130v-45q-35 -28 -84.5 -45t-98.5 -17q-50 0 -70 21.5t-20 45.5
q0 32 9 71.5t17 79.5l64 294q12 54 22 101.5t10 92.5t-15.5 71t-50.5 26q-39 0 -77.5 -18.5t-75.5 -48t-71 -66.5t-62 -75.5t-49.5 -74t-33.5 -61.5l-93 -449h-148l251 1250zM345 1474q-14 8 -22.5 17t-10.5 23l292 216q13 7 26.5 7.5t23.5 -7.5l198 -211q-2 -13 -11.5 -23
t-25.5 -17l-211 110z" />
    <glyph glyph-name="Hbar" unicode="&#x126;" horiz-adv-x="1479" 
d="M478 0h-491l12 56q44 17 86 28t83 19l186 877h-136l22 101h135l37 171q-45 7 -82.5 19.5t-66.5 28.5l12 57h491l-12 -57q-74 -34 -156 -48l-37 -171h610l36 171q-40 8 -72.5 21t-63.5 27l12 57h491l-12 -57q-39 -19 -82.5 -30t-86.5 -18l-36 -171h138l-22 -101h-138
l-186 -877q44 -8 82 -19t67 -28l-12 -56h-491l12 56q39 17 77.5 28t78.5 19l115 542h-609l-115 -542q37 -8 71.5 -19t64.5 -28zM540 980l-50 -235h609l50 235h-609z" />
    <glyph glyph-name="hbar" unicode="&#x127;" 
d="M192 1266v40q27 11 60 22.5t67.5 21t68.5 16t63 7.5l37 -15l-59 -280h293l-24 -90h-289l-89 -419h9q34 70 78 131t96 106t110.5 70.5t121.5 25.5q40 0 69 -12.5t48 -34t27.5 -51.5t8.5 -64q0 -48 -9 -103t-21 -106l-100 -434h130v-45q-35 -28 -84.5 -45t-98.5 -17
q-50 0 -70 21.5t-20 45.5q0 32 9 71.5t17 79.5l64 294q12 54 22 101.5t10 92.5t-15.5 71t-50.5 26q-39 0 -77.5 -18.5t-75.5 -48t-71 -66.5t-62 -75.5t-49.5 -74t-33.5 -61.5l-93 -449h-148l199 988h-152l22 90h148l34 172z" />
    <glyph glyph-name="Imacron" unicode="&#x12a;" horiz-adv-x="682" 
d="M493 0h-496l12 56q42 17 82 29t83 18l244 1149q-38 7 -73 19.5t-72 28.5l12 57h496l-12 -57q-38 -16 -81.5 -28.5t-83.5 -19.5l-244 -1149q40 -8 77 -20t68 -27zM255 1527v100h583v-100h-583z" />
    <glyph glyph-name="imacron" unicode="&#x12b;" horiz-adv-x="569" 
d="M137 795v43q26 11 60 22.5t68.5 20.5t67 15t56.5 6l32 -21l-165 -784h130v-45q-38 -28 -87 -45t-97 -17q-51 0 -72.5 22.5t-21.5 52.5q0 36 5.5 69.5t13.5 73.5l123 569zM139 1227v95h463v-95h-463z" />
    <glyph glyph-name="Iogonek" unicode="&#x12e;" horiz-adv-x="682" 
d="M493 0h-496l12 56q42 17 82 29t83 18l244 1149q-38 7 -73 19.5t-72 28.5l12 57h496l-12 -57q-38 -16 -81.5 -28.5t-83.5 -19.5l-244 -1149q40 -8 77 -20t68 -27zM505 39q-63 -28 -123.5 -62t-108 -74t-76 -87t-28.5 -101q0 -45 27.5 -73t79.5 -28q31 0 58 3.5t51 8.5v-48
q-15 -11 -36.5 -22.5t-47.5 -20.5t-55.5 -15t-61.5 -6q-39 0 -72.5 11.5t-57.5 32.5t-38 50.5t-14 65.5q0 64 31 115t85.5 94.5t128 81.5t158.5 74h100z" />
    <glyph glyph-name="iogonek" unicode="&#x12f;" horiz-adv-x="569" 
d="M141 795v43q26 11 60 22.5t68.5 20.5t67 15t56.5 6l32 -21l-165 -784h130v-45q-38 -28 -87 -45t-97 -17q-51 0 -72.5 22.5t-21.5 52.5q0 36 5.5 69.5t13.5 73.5l123 569zM297 1260q0 45 28.5 70.5t76.5 25.5q47 0 75 -25.5t28 -70.5q0 -46 -28 -71t-75 -25
q-48 0 -76.5 25t-28.5 71zM369 37q-54 -24 -102.5 -53t-85 -63.5t-57.5 -74t-21 -84.5q0 -15 4.5 -31t14.5 -28.5t27 -20.5t41 -8q26 0 49.5 4.5t49.5 12.5v-58q-15 -7 -35 -14t-41.5 -12.5t-43 -9t-37.5 -3.5q-96 0 -142.5 36.5t-46.5 96.5q0 54 28.5 100t77 84t114 69
t139.5 57h67z" />
    <glyph glyph-name="Idotaccent" unicode="&#x130;" horiz-adv-x="682" 
d="M493 0h-496l12 56q42 17 82 29t83 18l244 1149q-38 7 -73 19.5t-72 28.5l12 57h496l-12 -57q-38 -16 -81.5 -28.5t-83.5 -19.5l-244 -1149q40 -8 77 -20t68 -27zM427 1583q0 25 10 45t27 33t40 20t49 7q53 0 87.5 -27t34.5 -78t-34.5 -77.5t-87.5 -26.5q-26 0 -49 6.5
t-40 20t-27 32.5t-10 45z" />
    <glyph glyph-name="dotlessi" unicode="&#x131;" horiz-adv-x="569" 
d="M117 795v43q26 11 60 22.5t68.5 20.5t67 15t56.5 6l32 -21l-165 -784h130v-45q-38 -28 -87 -45t-97 -17q-51 0 -72.5 22.5t-21.5 52.5q0 36 5.5 69.5t13.5 73.5l123 569z" />
    <glyph glyph-name="Jcircumflex" unicode="&#x134;" horiz-adv-x="909" 
d="M458 1359l487 -2l-12 -57q-38 -16 -78 -28.5t-80 -19.5l-231 -1086q-19 -90 -48 -158.5t-63.5 -119t-72.5 -85.5t-76 -57.5t-73.5 -35.5t-65.5 -20l-15 29q34 25 65.5 56.5t60 80.5t53.5 119t46 171l235 1106q-42 8 -79.5 20t-69.5 28zM470 1474q-14 8 -22.5 17t-10.5 23
l292 216q13 7 26.5 7.5t23.5 -7.5l198 -211q-2 -13 -11.5 -23t-25.5 -17l-211 110z" />
    <glyph glyph-name="jcircumflex" unicode="&#x135;" horiz-adv-x="569" 
d="M271 778l-108 17v43q27 12 58.5 23.5t64 20.5t63.5 14.5t58 5.5l35 -21l-174 -813q-17 -84 -44.5 -148.5t-59.5 -112.5t-66.5 -81.5t-67 -55.5t-60.5 -34t-47 -17l-20 38q22 11 50 36.5t56.5 70.5t55 111.5t46.5 158.5zM146 1090q-17 6 -29 15.5t-19 23.5l275 331
q11 5 24 6t21 -6l138 -339q-24 -24 -55 -31l-148 174z" />
    <glyph glyph-name="Kcommaaccent" unicode="&#x136;" horiz-adv-x="1366" 
d="M1057 1357h428l-12 -57q-84 -35 -157 -48l-599 -516q24 -42 59.5 -94.5t77 -110t88 -117.5t92.5 -117.5t90.5 -109t83.5 -92.5l82 -47l-10 -48h-262l-56 46q-45 54 -98 125t-106.5 151t-104.5 164t-91 163h-134l-116 -546q41 -8 75.5 -19t60.5 -28l-12 -56h-491l12 56
q44 17 85.5 28t83.5 19l244 1149q-44 5 -82 18t-67 30l12 57h491l-12 -57q-33 -13 -72.5 -25.5t-83.5 -22.5l-114 -537l162 27l571 510q-38 8 -70.5 21t-59.5 27zM456 -459q19 7 40 20t39.5 31.5t32 42t16.5 51.5q-20 17 -53.5 34.5t-61.5 27.5q-2 31 12 59.5t36.5 51
t48.5 36.5t47 16q27 -3 51.5 -13t43 -28t29.5 -43t11 -58q0 -51 -19.5 -97t-55.5 -84t-87 -67.5t-114 -45.5z" />
    <glyph glyph-name="kcommaaccent" unicode="&#x137;" horiz-adv-x="909" 
d="M696 -10q-36 0 -74 27.5t-75 70t-71 93.5t-62 98.5t-48 85.5t-28 54l-84 18l-82 -437h-152l252 1250l-123 16v44q25 11 57.5 22t67 19.5t69.5 14.5t65 7l37 -19l-179 -872h72q37 24 83 60t90 74t79.5 73.5t50.5 58.5q3 13 4.5 31t2 37t0.5 36.5t-1 28.5q30 10 63 16.5
t63 6.5q32 0 59 -6.5t47 -16.5q-11 -29 -39.5 -65t-66.5 -74.5t-82 -77t-86 -72.5t-77.5 -61.5t-56.5 -42.5q10 -25 29 -58.5t43 -70t51.5 -74.5t55 -73t53 -65t46.5 -50h111v-45q-36 -28 -76.5 -45t-87.5 -17zM217 -430q30 10 52.5 25.5t38 33.5t24.5 37t13 37
q-17 18 -48.5 33.5t-57.5 25.5q-2 29 11 56t33.5 48t44.5 34t44 14q51 -5 82.5 -36t31.5 -91q0 -50 -20.5 -96t-55.5 -83.5t-81 -63.5t-96 -36z" />
    <glyph glyph-name="Lacute" unicode="&#x139;" horiz-adv-x="1139" 
d="M292 1357h532l-12 -57q-51 -17 -99.5 -30t-96.5 -18l-245 -1152h455l182 312h50q-3 -40 -9.5 -93.5t-16 -110t-20.5 -111t-22 -97.5h-986l12 56q53 22 92.5 31.5t76.5 15.5l244 1149q-44 7 -81 19.5t-68 28.5zM786 1730q17 2 46.5 -2.5t59.5 -13t55 -20.5t34 -26l-8 -39
l-409 -180l-42 41z" />
    <glyph glyph-name="lacute" unicode="&#x13a;" horiz-adv-x="569" 
d="M355 1250l-125 16v44q25 10 58 21.5t68.5 20.5t70.5 15t64 6l35 -19l-260 -1257h129v-45q-35 -28 -85.5 -45t-97.5 -17q-51 0 -75 22.5t-24 52.5q0 36 5.5 69.5t14.5 73.5zM620 1747q17 2 46.5 -2.5t59.5 -13t55 -20.5t34 -26l-8 -39l-409 -180l-42 41z" />
    <glyph glyph-name="Lcommaaccent" unicode="&#x13b;" horiz-adv-x="1139" 
d="M292 1357h532l-12 -57q-51 -17 -99.5 -30t-96.5 -18l-245 -1152h455l182 312h50q-3 -40 -9.5 -93.5t-16 -110t-20.5 -111t-22 -97.5h-986l12 56q53 22 92.5 31.5t76.5 15.5l244 1149q-44 7 -81 19.5t-68 28.5zM362 -459q19 7 40 20t39.5 31.5t32 42t16.5 51.5
q-20 17 -53.5 34.5t-61.5 27.5q-2 31 12 59.5t36.5 51t48.5 36.5t47 16q27 -3 51.5 -13t43 -28t29.5 -43t11 -58q0 -51 -19.5 -97t-55.5 -84t-87 -67.5t-114 -45.5z" />
    <glyph glyph-name="lcommaaccent" unicode="&#x13c;" horiz-adv-x="569" 
d="M227 1250l-125 16v44q25 10 58 21.5t68.5 20.5t70.5 15t64 6l35 -19l-260 -1257h129v-45q-35 -28 -85.5 -45t-97.5 -17q-51 0 -75 22.5t-24 52.5q0 36 5.5 69.5t14.5 73.5zM-84 -430q30 10 52.5 25.5t38 33.5t24.5 37t13 37q-17 18 -48.5 33.5t-57.5 25.5q-2 29 11 56
t33.5 48t44.5 34t44 14q51 -5 82.5 -36t31.5 -91q0 -50 -20.5 -96t-55.5 -83.5t-81 -63.5t-96 -36z" />
    <glyph glyph-name="Lcaron" unicode="&#x13d;" horiz-adv-x="1139" 
d="M292 1357h532l-12 -57q-51 -17 -99.5 -30t-96.5 -18l-245 -1152h455l182 312h50q-3 -40 -9.5 -93.5t-16 -110t-20.5 -111t-22 -97.5h-986l12 56q53 22 92.5 31.5t76.5 15.5l244 1149q-44 7 -81 19.5t-68 28.5zM932 976q30 44 56 93t47 98.5t36 96t23 84.5l31 31
q16 1 39.5 -3t48 -12.5t45 -20.5t30.5 -27q-20 -53 -58 -108t-84 -103.5t-93.5 -88t-85.5 -61.5z" />
    <glyph glyph-name="lcaron" unicode="&#x13e;" horiz-adv-x="745" 
d="M354 1250l-125 16v44q25 10 58 21.5t68.5 20.5t70.5 15t64 6l35 -19l-260 -1257h129v-45q-35 -28 -85.5 -45t-97.5 -17q-51 0 -75 22.5t-24 52.5q0 36 5.5 69.5t14.5 73.5zM603 978q30 43 56 91.5t47 97.5t36 95.5t23 85.5l30 31q15 1 36 -1.5t43 -8.5t41 -15t28 -19
q-21 -54 -57.5 -109.5t-79 -105.5t-87 -92.5t-81.5 -70.5z" />
    <glyph glyph-name="Lslash" unicode="&#x141;" horiz-adv-x="1139" 
d="M292 1357h532l-12 -57q-51 -17 -99.5 -30t-96.5 -18l-100 -468l268 148l-27 -127l-268 -148l-118 -557h455l182 312h50q-3 -40 -9.5 -93.5t-16 -110t-20.5 -111t-22 -97.5h-986l12 56q53 22 92.5 31.5t76.5 15.5l93 439l-27 -15h-1l-204 -110l26 126l205 110h1l26 15
l125 584q-44 7 -81 19.5t-68 28.5z" />
    <glyph glyph-name="lslash" unicode="&#x142;" horiz-adv-x="569" 
d="M47 519l174 102l134 629l-125 16v44q25 10 58 21.5t68.5 20.5t70.5 15t64 6l35 -19l-130 -632l183 108l-24 -117l-184 -106l-105 -510h129v-45q-35 -28 -85.5 -45t-97.5 -17q-51 0 -75 22.5t-24 52.5q0 36 5.5 69.5t14.5 73.5l63 297l-174 -102z" />
    <glyph glyph-name="Nacute" unicode="&#x143;" horiz-adv-x="1366" 
d="M1119 1357h419l-12 -57q-45 -26 -89 -46t-86 -32l-265 -1246h-111l-446 1068l-43 152h-6l-15 -152l-196 -920q37 -10 70.5 -27.5t64.5 -40.5l-12 -56h-419l12 56q41 22 84.5 38.5t88.5 29.5l237 1111q-36 14 -69.5 32t-62.5 35l11 55h327l385 -921l53 -166h8l26 166
l167 786q-38 18 -71 38t-62 40zM1080 1730q17 2 46.5 -2.5t59.5 -13t55 -20.5t34 -26l-8 -39l-409 -180l-42 41z" />
    <glyph glyph-name="nacute" unicode="&#x144;" 
d="M733 502q12 54 21.5 101.5t9.5 92.5q0 20 -6 38t-18.5 31t-33 20.5t-49.5 7.5q-32 0 -66 -18t-67.5 -47.5t-65 -66.5t-58 -75.5t-47.5 -74.5t-33 -62l-93 -449h-148l154 778l-107 17l3 43q25 13 56 24.5t63.5 20.5t63.5 14t57 5l36 -21l-67 -312h8q34 70 80 131t98.5 106
t108.5 70.5t111 25.5q36 0 67.5 -12.5t54.5 -34.5t36.5 -52t13.5 -65q0 -19 -2.5 -44t-6.5 -53t-9.5 -56.5t-11.5 -53.5l-110 -434h130v-45q-36 -28 -85.5 -45t-97.5 -17q-50 0 -70 21.5t-20 45.5q0 33 9 72t18 81zM788 1426q15 2 46 1t63 -5t59.5 -10.5t35.5 -15.5l-2 -35
l-382 -271l-52 39z" />
    <glyph glyph-name="Ncommaaccent" unicode="&#x145;" horiz-adv-x="1366" 
d="M1119 1357h419l-12 -57q-45 -26 -89 -46t-86 -32l-265 -1246h-111l-446 1068l-43 152h-6l-15 -152l-196 -920q37 -10 70.5 -27.5t64.5 -40.5l-12 -56h-419l12 56q41 22 84.5 38.5t88.5 29.5l237 1111q-36 14 -69.5 32t-62.5 35l11 55h327l385 -921l53 -166h8l26 166
l167 786q-38 18 -71 38t-62 40zM471 -459q19 7 40 20t39.5 31.5t32 42t16.5 51.5q-20 17 -53.5 34.5t-61.5 27.5q-2 31 12 59.5t36.5 51t48.5 36.5t47 16q27 -3 51.5 -13t43 -28t29.5 -43t11 -58q0 -51 -19.5 -97t-55.5 -84t-87 -67.5t-114 -45.5z" />
    <glyph glyph-name="ncommaaccent" unicode="&#x146;" 
d="M733 502q12 54 21.5 101.5t9.5 92.5q0 20 -6 38t-18.5 31t-33 20.5t-49.5 7.5q-32 0 -66 -18t-67.5 -47.5t-65 -66.5t-58 -75.5t-47.5 -74.5t-33 -62l-93 -449h-148l154 778l-107 17l3 43q25 13 56 24.5t63.5 20.5t63.5 14t57 5l36 -21l-67 -312h8q34 70 80 131t98.5 106
t108.5 70.5t111 25.5q36 0 67.5 -12.5t54.5 -34.5t36.5 -52t13.5 -65q0 -19 -2.5 -44t-6.5 -53t-9.5 -56.5t-11.5 -53.5l-110 -434h130v-45q-36 -28 -85.5 -45t-97.5 -17q-50 0 -70 21.5t-20 45.5q0 33 9 72t18 81zM267 -430q30 10 52.5 25.5t38 33.5t24.5 37t13 37
q-17 18 -48.5 33.5t-57.5 25.5q-2 29 11 56t33.5 48t44.5 34t44 14q51 -5 82.5 -36t31.5 -91q0 -50 -20.5 -96t-55.5 -83.5t-81 -63.5t-96 -36z" />
    <glyph glyph-name="Ncaron" unicode="&#x147;" horiz-adv-x="1366" 
d="M1119 1357h419l-12 -57q-45 -26 -89 -46t-86 -32l-265 -1246h-111l-446 1068l-43 152h-6l-15 -152l-196 -920q37 -10 70.5 -27.5t64.5 -40.5l-12 -56h-419l12 56q41 22 84.5 38.5t88.5 29.5l237 1111q-36 14 -69.5 32t-62.5 35l11 55h327l385 -921l53 -166h8l26 166
l167 786q-38 18 -71 38t-62 40zM1182 1740q9 0 18.5 -2.5t18 -7t14.5 -10.5t8 -12l-292 -218q-11 -5 -25.5 -5t-24.5 5l-198 212q3 14 17.5 23.5t34.5 9.5l199 -96z" />
    <glyph glyph-name="ncaron" unicode="&#x148;" 
d="M733 502q12 54 21.5 101.5t9.5 92.5q0 20 -6 38t-18.5 31t-33 20.5t-49.5 7.5q-32 0 -66 -18t-67.5 -47.5t-65 -66.5t-58 -75.5t-47.5 -74.5t-33 -62l-93 -449h-148l154 778l-107 17l3 43q25 13 56 24.5t63.5 20.5t63.5 14t57 5l36 -21l-67 -312h8q34 70 80 131t98.5 106
t108.5 70.5t111 25.5q36 0 67.5 -12.5t54.5 -34.5t36.5 -52t13.5 -65q0 -19 -2.5 -44t-6.5 -53t-9.5 -56.5t-11.5 -53.5l-110 -434h130v-45q-36 -28 -85.5 -45t-97.5 -17q-50 0 -70 21.5t-20 45.5q0 33 9 72t18 81zM924 1467q17 2 30.5 -7t16.5 -22l-299 -338
q-10 -5 -22.5 -5.5t-22.5 5.5l-150 336q9 14 29.5 23.5t39.5 7.5l145 -172z" />
    <glyph glyph-name="Omacron" unicode="&#x14c;" horiz-adv-x="1479" 
d="M123 522q0 117 27.5 226.5t78 204.5t122.5 173.5t161.5 134.5t194 87t220.5 31q137 0 239.5 -41t170.5 -114.5t102 -177t34 -227.5q0 -121 -27.5 -230.5t-78.5 -203.5t-122.5 -169.5t-159 -128.5t-189 -82t-212.5 -29q-131 0 -234.5 40.5t-176.5 113.5t-111.5 173
t-38.5 219zM328 526q0 -95 22.5 -176.5t70 -142t119.5 -95t171 -34.5q77 0 148 29t133 81t113 123t87 154.5t56 177t20 189.5q0 94 -22 175.5t-66.5 142t-111.5 95t-158 34.5q-95 0 -174.5 -31t-144.5 -85.5t-114 -127.5t-82 -156.5t-50 -174t-17 -178.5zM708 1527v100h583
v-100h-583z" />
    <glyph glyph-name="omacron" unicode="&#x14d;" 
d="M75 328q0 62 15.5 128.5t46 130.5t76 121t105 100t133.5 68.5t162 25.5q77 0 139 -21.5t106 -64t67.5 -105t23.5 -144.5q0 -126 -38 -233.5t-106.5 -186.5t-164 -124t-209.5 -45q-83 0 -149 22t-112 66t-70.5 109.5t-24.5 152.5zM577 824q-80 0 -144 -42t-108.5 -113
t-68 -164t-23.5 -195q0 -120 59.5 -188t170.5 -68q55 0 112.5 34t104.5 100t77 164t30 227q0 115 -53.5 180t-156.5 65zM449 1227v95h463v-95h-463z" />
    <glyph glyph-name="Ohungarumlaut" unicode="&#x150;" horiz-adv-x="1479" 
d="M123 522q0 117 27.5 226.5t78 204.5t122.5 173.5t161.5 134.5t194 87t220.5 31q137 0 239.5 -41t170.5 -114.5t102 -177t34 -227.5q0 -121 -27.5 -230.5t-78.5 -203.5t-122.5 -169.5t-159 -128.5t-189 -82t-212.5 -29q-131 0 -234.5 40.5t-176.5 113.5t-111.5 173
t-38.5 219zM328 526q0 -95 22.5 -176.5t70 -142t119.5 -95t171 -34.5q77 0 148 29t133 81t113 123t87 154.5t56 177t20 189.5q0 94 -22 175.5t-66.5 142t-111.5 95t-158 34.5q-95 0 -174.5 -31t-144.5 -85.5t-114 -127.5t-82 -156.5t-50 -174t-17 -178.5zM974 1721
q13 1 35.5 -2.5t45.5 -10t41.5 -16t22.5 -19.5l-5 -26l-292 -179l-30 35zM1311 1721q13 1 36 -2.5t46.5 -11t43.5 -17.5t26 -22l-6 -19l-382 -185l-34 35z" />
    <glyph glyph-name="ohungarumlaut" unicode="&#x151;" 
d="M75 328q0 62 15.5 128.5t46 130.5t76 121t105 100t133.5 68.5t162 25.5q77 0 139 -21.5t106 -64t67.5 -105t23.5 -144.5q0 -126 -38 -233.5t-106.5 -186.5t-164 -124t-209.5 -45q-83 0 -149 22t-112 66t-70.5 109.5t-24.5 152.5zM577 824q-80 0 -144 -42t-108.5 -113
t-68 -164t-23.5 -195q0 -120 59.5 -188t170.5 -68q55 0 112.5 34t104.5 100t77 164t30 227q0 115 -53.5 180t-156.5 65zM659 1416q12 1 34.5 -1.5t45.5 -8t41.5 -13t23.5 -16.5l-6 -27l-304 -245l-37 29zM974 1416q13 1 35 -2t44.5 -9.5t41 -16.5t24.5 -23l-5 -23l-414 -237
l-28 33z" />
    <glyph glyph-name="OE" unicode="&#x152;" horiz-adv-x="1933" 
d="M856 0q-26 -5 -60 -9.5t-69.5 -7.5t-69.5 -5t-60 -2q-120 0 -211.5 40t-152.5 111.5t-92 169.5t-31 215t25.5 227t73.5 206.5t117.5 176t157 137t191 89t221.5 31.5q22 0 53 -1.5t64.5 -4t67 -6.5t60.5 -10h830q-20 -78 -41 -157t-47 -158h-51l-37 213h-490l-109 -513
h385l108 143h46q-17 -97 -37.5 -194t-46.5 -197h-46l-45 147h-385l-115 -541h516l142 233h50q-5 -81 -15.5 -164.5t-33.5 -168.5h-863zM636 78q25 0 56 2t63 6.5t63.5 11.5t58.5 16l238 1119q-23 10 -54 18.5t-65.5 14.5t-70 9.5t-67.5 3.5q-97 0 -175 -35t-138.5 -94.5
t-104 -137.5t-71.5 -164t-41.5 -174.5t-13.5 -168.5q0 -90 19 -168t58 -135.5t100 -90.5t145 -33z" />
    <glyph glyph-name="oe" unicode="&#x153;" horiz-adv-x="1366" 
d="M495 824q-57 0 -100 -25.5t-75 -68t-52.5 -97.5t-33.5 -114.5t-18 -119t-5 -110.5q0 -52 12 -95t34.5 -74t54 -48.5t69.5 -17.5q61 0 110 47t83 123.5t52.5 173t18.5 195.5q0 52 -9 94.5t-27.5 73t-46.5 47t-67 16.5zM657 131q-33 -44 -72.5 -73t-80.5 -47t-81 -25.5
t-74 -7.5q-68 0 -122.5 22t-93 66t-59.5 109.5t-21 152.5q0 62 13 128.5t39.5 130.5t66 121t93 100t120 68.5t146.5 25.5q85 0 151 -39t92 -115q37 43 79 72.5t85 47.5t86.5 26t85.5 8q43 0 80.5 -11t65.5 -33t44 -53.5t16 -73.5q0 -63 -29.5 -112.5t-93 -85.5t-162.5 -59
t-238 -34q-7 -29 -9.5 -57.5t-2.5 -54.5q0 -53 13.5 -97t40 -76t65.5 -49.5t91 -17.5q35 0 67.5 10.5t61 26t52 33t41.5 32.5l27 -33q-16 -33 -45.5 -65t-70.5 -57.5t-91.5 -41t-107.5 -15.5q-56 0 -100 13t-77 34t-55.5 48.5t-35.5 57.5zM1057 824q-38 0 -74 -16.5t-68 -53
t-60 -95.5t-50 -143q85 3 151.5 18t112.5 41.5t70.5 64t24.5 84.5q0 18 -5 36t-17 32.5t-32.5 23t-52.5 8.5z" />
    <glyph glyph-name="Racute" unicode="&#x154;" horiz-adv-x="1251" 
d="M340 103q42 -9 81 -19.5t74 -27.5l-12 -56h-510l12 56q47 19 88 29t81 18l244 1149q-47 10 -83.5 22.5t-65.5 25.5l12 57h171q39 0 82.5 2.5t89 5t91.5 5t90 2.5q82 0 151.5 -17.5t119.5 -54.5t78 -93.5t28 -134.5q0 -86 -23.5 -157.5t-68 -128t-109 -97.5t-146.5 -66
q28 -65 56 -133.5t58.5 -135t65 -130t75.5 -119.5l92 -57l-10 -48h-235l-62 54q-30 48 -58 109t-53.5 131t-49 147.5t-46.5 159.5h-202zM720 1270q-47 0 -77 -1.5t-57 -7.5l-123 -579h160q80 0 144 29t108.5 79.5t68 118.5t23.5 147q0 54 -17.5 94.5t-49.5 67t-77.5 39.5
t-102.5 13zM876 1730q17 2 46.5 -2.5t59.5 -13t55 -20.5t34 -26l-8 -39l-409 -180l-42 41z" />
    <glyph glyph-name="racute" unicode="&#x155;" horiz-adv-x="797" 
d="M624 773q-36 -3 -75 -25t-76 -58.5t-69 -87t-54 -111.5l-106 -491h-151l164 778l-108 17v43q60 28 124.5 43t118.5 21l35 -21l-49 -234h7q26 57 69 104t92.5 80.5t100 52t92.5 18.5q23 0 45.5 -5t43.5 -16q0 -17 -5.5 -42t-14.5 -51.5t-21 -50t-24 -36.5zM717 1426
q15 2 46 1t63 -5t59.5 -10.5t35.5 -15.5l-2 -35l-382 -271l-52 39z" />
    <glyph glyph-name="Rcommaaccent" unicode="&#x156;" horiz-adv-x="1251" 
d="M340 103q42 -9 81 -19.5t74 -27.5l-12 -56h-510l12 56q47 19 88 29t81 18l244 1149q-47 10 -83.5 22.5t-65.5 25.5l12 57h171q39 0 82.5 2.5t89 5t91.5 5t90 2.5q82 0 151.5 -17.5t119.5 -54.5t78 -93.5t28 -134.5q0 -86 -23.5 -157.5t-68 -128t-109 -97.5t-146.5 -66
q28 -65 56 -133.5t58.5 -135t65 -130t75.5 -119.5l92 -57l-10 -48h-235l-62 54q-30 48 -58 109t-53.5 131t-49 147.5t-46.5 159.5h-202zM720 1270q-47 0 -77 -1.5t-57 -7.5l-123 -579h160q80 0 144 29t108.5 79.5t68 118.5t23.5 147q0 54 -17.5 94.5t-49.5 67t-77.5 39.5
t-102.5 13zM480 -459q19 7 40 20t39.5 31.5t32 42t16.5 51.5q-20 17 -53.5 34.5t-61.5 27.5q-2 31 12 59.5t36.5 51t48.5 36.5t47 16q27 -3 51.5 -13t43 -28t29.5 -43t11 -58q0 -51 -19.5 -97t-55.5 -84t-87 -67.5t-114 -45.5z" />
    <glyph glyph-name="rcommaaccent" unicode="&#x157;" horiz-adv-x="797" 
d="M602 773q-36 -3 -75 -25t-76 -58.5t-69 -87t-54 -111.5l-106 -491h-151l164 778l-108 17v43q60 28 124.5 43t118.5 21l35 -21l-49 -234h7q26 57 69 104t92.5 80.5t100 52t92.5 18.5q23 0 45.5 -5t43.5 -16q0 -17 -5.5 -42t-14.5 -51.5t-21 -50t-24 -36.5zM-17 -430
q30 10 52.5 25.5t38 33.5t24.5 37t13 37q-17 18 -48.5 33.5t-57.5 25.5q-2 29 11 56t33.5 48t44.5 34t44 14q51 -5 82.5 -36t31.5 -91q0 -50 -20.5 -96t-55.5 -83.5t-81 -63.5t-96 -36z" />
    <glyph glyph-name="Rcaron" unicode="&#x158;" horiz-adv-x="1251" 
d="M340 103q42 -9 81 -19.5t74 -27.5l-12 -56h-510l12 56q47 19 88 29t81 18l244 1149q-47 10 -83.5 22.5t-65.5 25.5l12 57h171q39 0 82.5 2.5t89 5t91.5 5t90 2.5q82 0 151.5 -17.5t119.5 -54.5t78 -93.5t28 -134.5q0 -86 -23.5 -157.5t-68 -128t-109 -97.5t-146.5 -66
q28 -65 56 -133.5t58.5 -135t65 -130t75.5 -119.5l92 -57l-10 -48h-235l-62 54q-30 48 -58 109t-53.5 131t-49 147.5t-46.5 159.5h-202zM720 1270q-47 0 -77 -1.5t-57 -7.5l-123 -579h160q80 0 144 29t108.5 79.5t68 118.5t23.5 147q0 54 -17.5 94.5t-49.5 67t-77.5 39.5
t-102.5 13zM983 1740q9 0 18.5 -2.5t18 -7t14.5 -10.5t8 -12l-292 -218q-11 -5 -25.5 -5t-24.5 5l-198 212q3 14 17.5 23.5t34.5 9.5l199 -96z" />
    <glyph glyph-name="rcaron" unicode="&#x159;" horiz-adv-x="797" 
d="M624 773q-36 -3 -75 -25t-76 -58.5t-69 -87t-54 -111.5l-106 -491h-151l164 778l-108 17v43q60 28 124.5 43t118.5 21l35 -21l-49 -234h7q26 57 69 104t92.5 80.5t100 52t92.5 18.5q23 0 45.5 -5t43.5 -16q0 -17 -5.5 -42t-14.5 -51.5t-21 -50t-24 -36.5zM810 1467
q17 2 30.5 -7t16.5 -22l-299 -338q-10 -5 -22.5 -5.5t-22.5 5.5l-150 336q9 14 29.5 23.5t39.5 7.5l145 -172z" />
    <glyph glyph-name="Sacute" unicode="&#x15a;" 
d="M206 143q8 -11 23.5 -22.5t42.5 -21t67 -15.5t96 -6q69 0 128 19.5t102.5 53.5t68 78.5t24.5 94.5q0 55 -23.5 97.5t-61.5 77t-87 65t-100 61t-100 64.5t-87 77t-61.5 97t-23.5 125q0 87 41 159t110 123.5t161 80t194 28.5q64 0 121 -6t105 -16.5t85 -23.5t63 -27
q-8 -32 -21.5 -74.5t-29.5 -87t-33 -87t-31 -75.5h-50l-23 256q-15 8 -39.5 15.5t-53 13t-60 9t-61.5 3.5q-56 0 -107.5 -17t-92 -47t-64.5 -71.5t-24 -90.5q0 -52 23.5 -93t61.5 -76t87 -65.5t100.5 -61.5t100.5 -65t87 -75.5t61.5 -93t23.5 -117.5q0 -87 -34 -165
t-101 -137t-167 -93.5t-232 -34.5q-86 0 -153 10t-116.5 25t-82 33t-49.5 34q8 33 23 78t32 92t34.5 92t31.5 78h50zM931 1730q17 2 46.5 -2.5t59.5 -13t55 -20.5t34 -26l-8 -39l-409 -180l-42 41z" />
    <glyph glyph-name="sacute" unicode="&#x15b;" horiz-adv-x="797" 
d="M467 208q0 42 -22.5 73t-56 59t-73 56t-73 63t-56 80t-22.5 108t24.5 110.5t68.5 79.5t104.5 48.5t132.5 16.5q36 0 72.5 -7t68.5 -20t57.5 -31.5t37.5 -40.5q0 -19 -8.5 -39.5t-21.5 -39.5t-29.5 -34t-32.5 -22l-61 137q-8 7 -29.5 13t-53.5 6q-36 0 -68 -7t-56 -22.5
t-37.5 -41.5t-13.5 -64q0 -45 23 -78.5t57 -62t74.5 -56t74.5 -62t57 -79t23 -106.5q0 -63 -26.5 -113t-71.5 -84t-104 -52t-124 -18q-51 0 -99 11.5t-87.5 32.5t-69 50.5t-44.5 66.5q5 23 17 43t28 37t35 30.5t38 24.5l53 -180q13 -17 41.5 -28.5t66.5 -11.5q30 0 62.5 9
t60 28t45.5 48t18 69zM676 1426q15 2 46 1t63 -5t59.5 -10.5t35.5 -15.5l-2 -35l-382 -271l-52 39z" />
    <glyph glyph-name="Scircumflex" unicode="&#x15c;" 
d="M206 143q8 -11 23.5 -22.5t42.5 -21t67 -15.5t96 -6q69 0 128 19.5t102.5 53.5t68 78.5t24.5 94.5q0 55 -23.5 97.5t-61.5 77t-87 65t-100 61t-100 64.5t-87 77t-61.5 97t-23.5 125q0 87 41 159t110 123.5t161 80t194 28.5q64 0 121 -6t105 -16.5t85 -23.5t63 -27
q-8 -32 -21.5 -74.5t-29.5 -87t-33 -87t-31 -75.5h-50l-23 256q-15 8 -39.5 15.5t-53 13t-60 9t-61.5 3.5q-56 0 -107.5 -17t-92 -47t-64.5 -71.5t-24 -90.5q0 -52 23.5 -93t61.5 -76t87 -65.5t100.5 -61.5t100.5 -65t87 -75.5t61.5 -93t23.5 -117.5q0 -87 -34 -165
t-101 -137t-167 -93.5t-232 -34.5q-86 0 -153 10t-116.5 25t-82 33t-49.5 34q8 33 23 78t32 92t34.5 92t31.5 78h50zM529 1474q-14 8 -22.5 17t-10.5 23l292 216q13 7 26.5 7.5t23.5 -7.5l198 -211q-2 -13 -11.5 -23t-25.5 -17l-211 110z" />
    <glyph glyph-name="scircumflex" unicode="&#x15d;" horiz-adv-x="797" 
d="M467 208q0 42 -22.5 73t-56 59t-73 56t-73 63t-56 80t-22.5 108t24.5 110.5t68.5 79.5t104.5 48.5t132.5 16.5q36 0 72.5 -7t68.5 -20t57.5 -31.5t37.5 -40.5q0 -19 -8.5 -39.5t-21.5 -39.5t-29.5 -34t-32.5 -22l-61 137q-8 7 -29.5 13t-53.5 6q-36 0 -68 -7t-56 -22.5
t-37.5 -41.5t-13.5 -64q0 -45 23 -78.5t57 -62t74.5 -56t74.5 -62t57 -79t23 -106.5q0 -63 -26.5 -113t-71.5 -84t-104 -52t-124 -18q-51 0 -99 11.5t-87.5 32.5t-69 50.5t-44.5 66.5q5 23 17 43t28 37t35 30.5t38 24.5l53 -180q13 -17 41.5 -28.5t66.5 -11.5q30 0 62.5 9
t60 28t45.5 48t18 69zM305 1090q-17 6 -29 15.5t-19 23.5l275 331q11 5 24 6t21 -6l138 -339q-24 -24 -55 -31l-148 174z" />
    <glyph glyph-name="Scedilla" unicode="&#x15e;" 
d="M206 143q8 -11 23.5 -22.5t42.5 -21t67 -15.5t96 -6q69 0 128 19.5t102.5 53.5t68 78.5t24.5 94.5q0 55 -23.5 97.5t-61.5 77t-87 65t-100 61t-100 64.5t-87 77t-61.5 97t-23.5 125q0 87 41 159t110 123.5t161 80t194 28.5q64 0 121 -6t105 -16.5t85 -23.5t63 -27
q-8 -32 -21.5 -74.5t-29.5 -87t-33 -87t-31 -75.5h-50l-23 256q-15 8 -39.5 15.5t-53 13t-60 9t-61.5 3.5q-56 0 -107.5 -17t-92 -47t-64.5 -71.5t-24 -90.5q0 -52 23.5 -93t61.5 -76t87 -65.5t100.5 -61.5t100.5 -65t87 -75.5t61.5 -93t23.5 -117.5q0 -87 -34 -165
t-101 -137t-167 -93.5t-232 -34.5q-86 0 -153 10t-116.5 25t-82 33t-49.5 34q8 33 23 78t32 92t34.5 92t31.5 78h50zM418 -144q102 -3 149.5 -37.5t47.5 -90.5q0 -63 -38 -110.5t-96 -78.5t-126 -46.5t-129 -15.5l2 62q42 6 80 17.5t66.5 29.5t45 42.5t16.5 57.5
q0 45 -37.5 64.5t-114.5 24.5l124 225h96z" />
    <glyph glyph-name="scedilla" unicode="&#x15f;" horiz-adv-x="797" 
d="M467 208q0 42 -22.5 73t-56 59t-73 56t-73 63t-56 80t-22.5 108t24.5 110.5t68.5 79.5t104.5 48.5t132.5 16.5q36 0 72.5 -7t68.5 -20t57.5 -31.5t37.5 -40.5q0 -19 -8.5 -39.5t-21.5 -39.5t-29.5 -34t-32.5 -22l-61 137q-8 7 -29.5 13t-53.5 6q-36 0 -68 -7t-56 -22.5
t-37.5 -41.5t-13.5 -64q0 -45 23 -78.5t57 -62t74.5 -56t74.5 -62t57 -79t23 -106.5q0 -63 -26.5 -113t-71.5 -84t-104 -52t-124 -18q-51 0 -99 11.5t-87.5 32.5t-69 50.5t-44.5 66.5q5 23 17 43t28 37t35 30.5t38 24.5l53 -180q13 -17 41.5 -28.5t66.5 -11.5q30 0 62.5 9
t60 28t45.5 48t18 69zM258 -124q99 -3 138 -38t29 -93q-10 -53 -46.5 -92t-86 -64.5t-105.5 -37.5t-104 -10l1 54q41 6 76 16t60 26.5t39 39.5t14 55q0 36 -32.5 53.5t-98.5 22.5l108 194h82z" />
    <glyph glyph-name="Scaron" unicode="&#x160;" 
d="M206 143q8 -11 23.5 -22.5t42.5 -21t67 -15.5t96 -6q69 0 128 19.5t102.5 53.5t68 78.5t24.5 94.5q0 55 -23.5 97.5t-61.5 77t-87 65t-100 61t-100 64.5t-87 77t-61.5 97t-23.5 125q0 87 41 159t110 123.5t161 80t194 28.5q64 0 121 -6t105 -16.5t85 -23.5t63 -27
q-8 -32 -21.5 -74.5t-29.5 -87t-33 -87t-31 -75.5h-50l-23 256q-15 8 -39.5 15.5t-53 13t-60 9t-61.5 3.5q-56 0 -107.5 -17t-92 -47t-64.5 -71.5t-24 -90.5q0 -52 23.5 -93t61.5 -76t87 -65.5t100.5 -61.5t100.5 -65t87 -75.5t61.5 -93t23.5 -117.5q0 -87 -34 -165
t-101 -137t-167 -93.5t-232 -34.5q-86 0 -153 10t-116.5 25t-82 33t-49.5 34q8 33 23 78t32 92t34.5 92t31.5 78h50zM993 1740q9 0 18.5 -2.5t18 -7t14.5 -10.5t8 -12l-292 -218q-11 -5 -25.5 -5t-24.5 5l-198 212q3 14 17.5 23.5t34.5 9.5l199 -96z" />
    <glyph glyph-name="scaron" unicode="&#x161;" horiz-adv-x="797" 
d="M467 208q0 42 -22.5 73t-56 59t-73 56t-73 63t-56 80t-22.5 108t24.5 110.5t68.5 79.5t104.5 48.5t132.5 16.5q36 0 72.5 -7t68.5 -20t57.5 -31.5t37.5 -40.5q0 -19 -8.5 -39.5t-21.5 -39.5t-29.5 -34t-32.5 -22l-61 137q-8 7 -29.5 13t-53.5 6q-36 0 -68 -7t-56 -22.5
t-37.5 -41.5t-13.5 -64q0 -45 23 -78.5t57 -62t74.5 -56t74.5 -62t57 -79t23 -106.5q0 -63 -26.5 -113t-71.5 -84t-104 -52t-124 -18q-51 0 -99 11.5t-87.5 32.5t-69 50.5t-44.5 66.5q5 23 17 43t28 37t35 30.5t38 24.5l53 -180q13 -17 41.5 -28.5t66.5 -11.5q30 0 62.5 9
t60 28t45.5 48t18 69zM771 1467q17 2 30.5 -7t16.5 -22l-299 -338q-10 -5 -22.5 -5.5t-22.5 5.5l-150 336q9 14 29.5 23.5t39.5 7.5l145 -172z" />
    <glyph glyph-name="Tcedilla" unicode="&#x162;" horiz-adv-x="1139" 
d="M738 0h-545l12 56q46 15 92 27t98 20l245 1152h-277l-161 -277h-49q2 39 8.5 88.5t15 101t17.5 101t17 88.5h1086q-9 -39 -21 -88t-25.5 -100.5t-27.5 -101t-29 -89.5h-50l-41 277h-277l-245 -1152q48 -9 89.5 -19.5t79.5 -27.5zM428 -144q102 -3 149.5 -37.5t47.5 -90.5
q0 -63 -38 -110.5t-96 -78.5t-126 -46.5t-129 -15.5l2 62q42 6 80 17.5t66.5 29.5t45 42.5t16.5 57.5q0 45 -37.5 64.5t-114.5 24.5l124 225h96z" />
    <glyph glyph-name="tcedilla" unicode="&#x163;" horiz-adv-x="569" 
d="M115 838q35 20 75 35.5t79 24.5l38 188q25 20 57.5 35t67.5 29l37 -22l-53 -247h179q2 -22 -0.5 -45t-17.5 -43h-179l-111 -511q-6 -34 -9.5 -59t-3.5 -47q0 -47 16 -67.5t48 -20.5q43 0 79 16.5t78 38.5l19 -32q-16 -23 -44.5 -46.5t-64.5 -42.5t-78 -31.5t-86 -12.5
q-126 0 -126 145q0 26 4.5 55.5t11.5 61.5l116 553h-133zM214 -124q99 -3 138 -38t29 -93q-10 -53 -46.5 -92t-86 -64.5t-105.5 -37.5t-104 -10l1 54q41 6 76 16t60 26.5t39 39.5t14 55q0 36 -32.5 53.5t-98.5 22.5l108 194h82z" />
    <glyph glyph-name="Tcaron" unicode="&#x164;" horiz-adv-x="1139" 
d="M738 0h-545l12 56q46 15 92 27t98 20l245 1152h-277l-161 -277h-49q2 39 8.5 88.5t15 101t17.5 101t17 88.5h1086q-9 -39 -21 -88t-25.5 -100.5t-27.5 -101t-29 -89.5h-50l-41 277h-277l-245 -1152q48 -9 89.5 -19.5t79.5 -27.5zM1029 1740q9 0 18.5 -2.5t18 -7
t14.5 -10.5t8 -12l-292 -218q-11 -5 -25.5 -5t-24.5 5l-198 212q3 14 17.5 23.5t34.5 9.5l199 -96z" />
    <glyph glyph-name="tcaron" unicode="&#x165;" horiz-adv-x="745" 
d="M117 838q35 20 75 35.5t79 24.5l38 188q25 20 57.5 35t67.5 29l37 -22l-53 -247h179q2 -22 -0.5 -45t-17.5 -43h-179l-111 -511q-6 -34 -9.5 -59t-3.5 -47q0 -47 16 -67.5t48 -20.5q43 0 79 16.5t78 38.5l19 -32q-16 -23 -44.5 -46.5t-64.5 -42.5t-78 -31.5t-86 -12.5
q-126 0 -126 145q0 26 4.5 55.5t11.5 61.5l116 553h-133zM571 978q30 43 56 91.5t47 97.5t36 95.5t23 85.5l30 31q15 1 36 -1.5t43 -8.5t41 -15t28 -19q-21 -54 -57.5 -109.5t-79 -105.5t-87 -92.5t-81.5 -70.5z" />
    <glyph glyph-name="Umacron" unicode="&#x16a;" horiz-adv-x="1479" 
d="M279 1357h493l-12 -57q-81 -32 -158 -48l-169 -793q-7 -33 -10.5 -62t-3.5 -55q0 -68 22 -114.5t62 -75.5t95.5 -41.5t122.5 -12.5q76 0 145.5 20.5t126.5 64.5t98 112.5t62 165.5l164 774q-42 14 -77 31t-61 34l12 57h412l-12 -57q-84 -46 -165 -65l-165 -778
q-26 -123 -82.5 -212.5t-134 -147.5t-172 -86t-197.5 -28q-102 0 -184 19.5t-139.5 59.5t-89.5 100t-34 140q-2 60 13 127l175 823q-38 5 -76 18t-73 30zM708 1527v100h583v-100h-583z" />
    <glyph glyph-name="umacron" unicode="&#x16b;" 
d="M914 97v-45q-35 -28 -85 -45t-98 -17q-51 0 -73 21.5t-22 45.5q0 32 15 106.5t44 181.5h-7q-15 -32 -37.5 -72t-52 -81t-65 -79.5t-76.5 -68.5t-86.5 -48t-95.5 -18q-89 0 -127.5 44t-38.5 122q0 26 7 69.5t18.5 97t26 114t29.5 122.5t29.5 121t25.5 110l-108 17v43
q28 11 60.5 21.5t65 19t63 15t54.5 8.5l39 -21q-11 -61 -27.5 -129t-34 -136.5t-35 -134.5t-31.5 -124.5t-22.5 -106.5t-8.5 -79q0 -38 20 -60.5t66 -22.5q40 0 81 24.5t80.5 63t75.5 86.5t64.5 94t49 85t28.5 61l83 379h141l-165 -784h130zM421 1227v95h463v-95h-463z" />
    <glyph glyph-name="Ubreve" unicode="&#x16c;" horiz-adv-x="1479" 
d="M279 1357h493l-12 -57q-81 -32 -158 -48l-169 -793q-7 -33 -10.5 -62t-3.5 -55q0 -68 22 -114.5t62 -75.5t95.5 -41.5t122.5 -12.5q76 0 145.5 20.5t126.5 64.5t98 112.5t62 165.5l164 774q-42 14 -77 31t-61 34l12 57h412l-12 -57q-84 -46 -165 -65l-165 -778
q-26 -123 -82.5 -212.5t-134 -147.5t-172 -86t-197.5 -28q-102 0 -184 19.5t-139.5 59.5t-89.5 100t-34 140q-2 60 13 127l175 823q-38 5 -76 18t-73 30zM1299 1710q14 2 29 -4t27 -22q-26 -42 -63 -81t-80.5 -68.5t-91.5 -47t-97 -17.5q-106 0 -166 57t-71 169
q17 19 35.5 23.5t37.5 -2.5q17 -48 59.5 -77.5t116.5 -32.5q76 -4 138.5 22t125.5 81z" />
    <glyph glyph-name="ubreve" unicode="&#x16d;" 
d="M914 97v-45q-35 -28 -85 -45t-98 -17q-51 0 -73 21.5t-22 45.5q0 32 15 106.5t44 181.5h-7q-15 -32 -37.5 -72t-52 -81t-65 -79.5t-76.5 -68.5t-86.5 -48t-95.5 -18q-89 0 -127.5 44t-38.5 122q0 26 7 69.5t18.5 97t26 114t29.5 122.5t29.5 121t25.5 110l-108 17v43
q28 11 60.5 21.5t65 19t63 15t54.5 8.5l39 -21q-11 -61 -27.5 -129t-34 -136.5t-35 -134.5t-31.5 -124.5t-22.5 -106.5t-8.5 -79q0 -38 20 -60.5t66 -22.5q40 0 81 24.5t80.5 63t75.5 86.5t64.5 94t49 85t28.5 61l83 379h141l-165 -784h130zM956 1337q-18 -38 -50.5 -76
t-73.5 -69t-87.5 -50t-91.5 -19q-49 0 -86.5 16t-64 44.5t-43 69t-22.5 89.5l54 26q16 -25 33.5 -45t39.5 -34.5t50.5 -23.5t68.5 -10q60 -2 121 25.5t112 84.5z" />
    <glyph glyph-name="Uring" unicode="&#x16e;" horiz-adv-x="1479" 
d="M279 1357h493l-12 -57q-81 -32 -158 -48l-169 -793q-7 -33 -10.5 -62t-3.5 -55q0 -68 22 -114.5t62 -75.5t95.5 -41.5t122.5 -12.5q76 0 145.5 20.5t126.5 64.5t98 112.5t62 165.5l164 774q-42 14 -77 31t-61 34l12 57h412l-12 -57q-84 -46 -165 -65l-165 -778
q-26 -123 -82.5 -212.5t-134 -147.5t-172 -86t-197.5 -28q-102 0 -184 19.5t-139.5 59.5t-89.5 100t-34 140q-2 60 13 127l175 823q-38 5 -76 18t-73 30zM779 1577q0 39 17.5 70t48 52t71 32.5t86.5 11.5q38 0 76 -9.5t68 -29t49 -49.5t19 -72q0 -38 -17.5 -68t-47.5 -50
t-68.5 -30.5t-80.5 -10.5q-49 0 -89.5 10t-70 29.5t-45.5 48t-16 65.5zM888 1577q0 -20 9.5 -34t24.5 -23t33.5 -13t36.5 -4q50 0 81.5 18t31.5 54q0 25 -10 42t-25.5 27.5t-34.5 15t-37 4.5q-47 0 -78.5 -19t-31.5 -68z" />
    <glyph glyph-name="uring" unicode="&#x16f;" 
d="M914 97v-45q-35 -28 -85 -45t-98 -17q-51 0 -73 21.5t-22 45.5q0 32 15 106.5t44 181.5h-7q-15 -32 -37.5 -72t-52 -81t-65 -79.5t-76.5 -68.5t-86.5 -48t-95.5 -18q-89 0 -127.5 44t-38.5 122q0 26 7 69.5t18.5 97t26 114t29.5 122.5t29.5 121t25.5 110l-108 17v43
q28 11 60.5 21.5t65 19t63 15t54.5 8.5l39 -21q-11 -61 -27.5 -129t-34 -136.5t-35 -134.5t-31.5 -124.5t-22.5 -106.5t-8.5 -79q0 -38 20 -60.5t66 -22.5q40 0 81 24.5t80.5 63t75.5 86.5t64.5 94t49 85t28.5 61l83 379h141l-165 -784h130zM499 1270q0 37 14 69.5
t38.5 56.5t58 38t72.5 14q36 0 67 -12t54.5 -34t37 -54t13.5 -72q0 -38 -14.5 -69.5t-38.5 -54t-55.5 -35t-65.5 -12.5q-41 0 -74 11.5t-57 33.5t-37 52t-13 68zM594 1274q0 -47 25 -70.5t55 -23.5q37 0 60.5 21.5t23.5 67.5q0 49 -23 76t-58 27q-45 0 -64 -26.5t-19 -71.5z
" />
    <glyph glyph-name="Uhungarumlaut" unicode="&#x170;" horiz-adv-x="1479" 
d="M279 1357h493l-12 -57q-81 -32 -158 -48l-169 -793q-7 -33 -10.5 -62t-3.5 -55q0 -68 22 -114.5t62 -75.5t95.5 -41.5t122.5 -12.5q76 0 145.5 20.5t126.5 64.5t98 112.5t62 165.5l164 774q-42 14 -77 31t-61 34l12 57h412l-12 -57q-84 -46 -165 -65l-165 -778
q-26 -123 -82.5 -212.5t-134 -147.5t-172 -86t-197.5 -28q-102 0 -184 19.5t-139.5 59.5t-89.5 100t-34 140q-2 60 13 127l175 823q-38 5 -76 18t-73 30zM1005 1721q13 1 35.5 -2.5t45.5 -10t41.5 -16t22.5 -19.5l-5 -26l-292 -179l-30 35zM1342 1721q13 1 36 -2.5t46.5 -11
t43.5 -17.5t26 -22l-6 -19l-382 -185l-34 35z" />
    <glyph glyph-name="uhungarumlaut" unicode="&#x171;" 
d="M914 97v-45q-35 -28 -85 -45t-98 -17q-51 0 -73 21.5t-22 45.5q0 32 15 106.5t44 181.5h-7q-15 -32 -37.5 -72t-52 -81t-65 -79.5t-76.5 -68.5t-86.5 -48t-95.5 -18q-89 0 -127.5 44t-38.5 122q0 26 7 69.5t18.5 97t26 114t29.5 122.5t29.5 121t25.5 110l-108 17v43
q28 11 60.5 21.5t65 19t63 15t54.5 8.5l39 -21q-11 -61 -27.5 -129t-34 -136.5t-35 -134.5t-31.5 -124.5t-22.5 -106.5t-8.5 -79q0 -38 20 -60.5t66 -22.5q40 0 81 24.5t80.5 63t75.5 86.5t64.5 94t49 85t28.5 61l83 379h141l-165 -784h130zM688 1416q12 1 34.5 -1.5
t45.5 -8t41.5 -13t23.5 -16.5l-6 -27l-304 -245l-37 29zM1003 1416q13 1 35 -2t44.5 -9.5t41 -16.5t24.5 -23l-5 -23l-414 -237l-28 33z" />
    <glyph glyph-name="Uogonek" unicode="&#x172;" horiz-adv-x="1479" 
d="M279 1357h493l-12 -57q-81 -32 -158 -48l-169 -793q-7 -33 -10.5 -62t-3.5 -55q0 -68 22 -114.5t62 -75.5t95.5 -41.5t122.5 -12.5q76 0 145.5 20.5t126.5 64.5t98 112.5t62 165.5l164 774q-42 14 -77 31t-61 34l12 57h412l-12 -57q-84 -46 -165 -65l-165 -778
q-26 -123 -82.5 -212.5t-134 -147.5t-172 -86t-197.5 -28q-102 0 -184 19.5t-139.5 59.5t-89.5 100t-34 140q-2 60 13 127l175 823q-38 5 -76 18t-73 30zM969 39q-63 -28 -123.5 -62t-108 -74t-76 -87t-28.5 -101q0 -45 27.5 -73t79.5 -28q31 0 58 3.5t51 8.5v-48
q-15 -11 -36.5 -22.5t-47.5 -20.5t-55.5 -15t-61.5 -6q-39 0 -72.5 11.5t-57.5 32.5t-38 50.5t-14 65.5q0 64 31 115t85.5 94.5t128 81.5t158.5 74h100z" />
    <glyph glyph-name="uogonek" unicode="&#x173;" 
d="M914 97v-45q-35 -28 -85 -45t-98 -17q-51 0 -73 21.5t-22 45.5q0 32 15 106.5t44 181.5h-7q-15 -32 -37.5 -72t-52 -81t-65 -79.5t-76.5 -68.5t-86.5 -48t-95.5 -18q-89 0 -127.5 44t-38.5 122q0 26 7 69.5t18.5 97t26 114t29.5 122.5t29.5 121t25.5 110l-108 17v43
q28 11 60.5 21.5t65 19t63 15t54.5 8.5l39 -21q-11 -61 -27.5 -129t-34 -136.5t-35 -134.5t-31.5 -124.5t-22.5 -106.5t-8.5 -79q0 -38 20 -60.5t66 -22.5q40 0 81 24.5t80.5 63t75.5 86.5t64.5 94t49 85t28.5 61l83 379h141l-165 -784h130zM883 37q-54 -24 -102.5 -53
t-85 -63.5t-57.5 -74t-21 -84.5q0 -15 4.5 -31t14.5 -28.5t27 -20.5t41 -8q26 0 49.5 4.5t49.5 12.5v-58q-15 -7 -35 -14t-41.5 -12.5t-43 -9t-37.5 -3.5q-96 0 -142.5 36.5t-46.5 96.5q0 54 28.5 100t77 84t114 69t139.5 57h67z" />
    <glyph glyph-name="Ydieresis" unicode="&#x178;" horiz-adv-x="1139" 
d="M947 1357h426l-12 -57q-39 -17 -79.5 -30t-77.5 -18l-506 -705l-94 -444q35 -5 70 -16.5t67 -30.5l-12 -56h-492l12 56q78 35 169 47l94 442l-231 707q-44 7 -79 20.5t-68 27.5l12 57h523l-12 -57q-32 -11 -70.5 -24t-88.5 -24l170 -600l416 600q-42 10 -79.5 22.5
t-69.5 25.5zM493 1579q0 46 31.5 69t79.5 23q47 0 77.5 -23t30.5 -69q0 -45 -30.5 -68t-77.5 -23q-48 0 -79.5 23t-31.5 68zM926 1579q0 46 30.5 69t77.5 23q48 0 79 -23t31 -69q0 -45 -31 -68t-79 -23q-47 0 -77.5 23t-30.5 68z" />
    <glyph glyph-name="Zacute" unicode="&#x179;" horiz-adv-x="1139" 
d="M1012 372h50q-2 -39 -8 -87t-14 -98.5t-17.5 -99t-18.5 -87.5h-968l21 98l912 1157h-517l-177 -271h-48q3 40 8.5 89t13 99.5t16.5 98.5t18 86h920l-21 -102l-908 -1155h562zM932 1730q17 2 46.5 -2.5t59.5 -13t55 -20.5t34 -26l-8 -39l-409 -180l-42 41z" />
    <glyph glyph-name="zacute" unicode="&#x17a;" horiz-adv-x="797" 
d="M617 750q-80 -5 -166 0t-184 21l-81 -126l-44 10l25 180q10 69 95 69q31 0 71.5 -5.5t93 -13t118.5 -15.5t149 -13l40 45q23 -5 43 -18t24 -39l-577 -667q103 -19 188.5 -52t168.5 -79l102 116l43 -24l-62 -179q-8 -27 -31.5 -44.5t-56.5 -17.5t-78.5 22t-102.5 50.5
t-125 56.5t-146 40l-61 -77q-23 4 -42.5 20.5t-21.5 42.5zM678 1426q15 2 46 1t63 -5t59.5 -10.5t35.5 -15.5l-2 -35l-382 -271l-52 39z" />
    <glyph glyph-name="Zdotaccent" unicode="&#x17b;" horiz-adv-x="1139" 
d="M1012 372h50q-2 -39 -8 -87t-14 -98.5t-17.5 -99t-18.5 -87.5h-968l21 98l912 1157h-517l-177 -271h-48q3 40 8.5 89t13 99.5t16.5 98.5t18 86h920l-21 -102l-908 -1155h562zM641 1583q0 25 10 45t27 33t40 20t49 7q53 0 87.5 -27t34.5 -78t-34.5 -77.5t-87.5 -26.5
q-26 0 -49 6.5t-40 20t-27 32.5t-10 45z" />
    <glyph glyph-name="zdotaccent" unicode="&#x17c;" horiz-adv-x="797" 
d="M617 750q-80 -5 -166 0t-184 21l-81 -126l-44 10l25 180q10 69 95 69q31 0 71.5 -5.5t93 -13t118.5 -15.5t149 -13l40 45q23 -5 43 -18t24 -39l-577 -667q103 -19 188.5 -52t168.5 -79l102 116l43 -24l-62 -179q-8 -27 -31.5 -44.5t-56.5 -17.5t-78.5 22t-102.5 50.5
t-125 56.5t-146 40l-61 -77q-23 4 -42.5 20.5t-21.5 42.5zM443 1260q0 45 28.5 70.5t76.5 25.5q47 0 75 -25.5t28 -70.5q0 -46 -28 -71t-75 -25q-48 0 -76.5 25t-28.5 71z" />
    <glyph glyph-name="Zcaron" unicode="&#x17d;" horiz-adv-x="1139" 
d="M1012 372h50q-2 -39 -8 -87t-14 -98.5t-17.5 -99t-18.5 -87.5h-968l21 98l912 1157h-517l-177 -271h-48q3 40 8.5 89t13 99.5t16.5 98.5t18 86h920l-21 -102l-908 -1155h562zM1020 1740q9 0 18.5 -2.5t18 -7t14.5 -10.5t8 -12l-292 -218q-11 -5 -25.5 -5t-24.5 5
l-198 212q3 14 17.5 23.5t34.5 9.5l199 -96z" />
    <glyph glyph-name="zcaron" unicode="&#x17e;" horiz-adv-x="797" 
d="M617 750q-80 -5 -166 0t-184 21l-81 -126l-44 10l25 180q10 69 95 69q31 0 71.5 -5.5t93 -13t118.5 -15.5t149 -13l40 45q23 -5 43 -18t24 -39l-577 -667q103 -19 188.5 -52t168.5 -79l102 116l43 -24l-62 -179q-8 -27 -31.5 -44.5t-56.5 -17.5t-78.5 22t-102.5 50.5
t-125 56.5t-146 40l-61 -77q-23 4 -42.5 20.5t-21.5 42.5zM792 1467q17 2 30.5 -7t16.5 -22l-299 -338q-10 -5 -22.5 -5.5t-22.5 5.5l-150 336q9 14 29.5 23.5t39.5 7.5l145 -172z" />
    <glyph glyph-name="longs" unicode="&#x17f;" horiz-adv-x="569" 
d="M244 793h-128v45q34 20 73.5 34.5t76.5 23.5l12 62q23 109 62.5 180t92 112.5t116.5 57.5t135 16q15 0 33.5 -2t38 -5.5t37.5 -8.5t32 -12q-2 -38 -18 -80t-50 -71l-134 109q-31 -8 -58 -19.5t-50.5 -40t-45 -82t-40.5 -144.5l-148 -892q-13 -83 -38 -147.5t-57 -112.5
t-67.5 -82t-68.5 -56t-62 -34t-47 -17l-15 38q21 11 50 38.5t58.5 73.5t55 111.5t40.5 153.5z" />
    <glyph glyph-name="florin" unicode="&#x192;" 
d="M336 793h-128v45q34 20 73.5 34.5t76.5 23.5l22 104q23 109 63 181t93 115t117 60t135 17q15 0 33.5 -2t38 -5.5t37.5 -8.5t32 -12q-2 -38 -18 -80t-50 -71l-134 109q-31 -8 -58.5 -20.5t-51.5 -42.5t-45.5 -84.5t-40.5 -145.5l-27 -129h165q4 -20 0 -43t-17 -45h-166
l-113 -717q-13 -83 -39.5 -148t-60 -114t-71.5 -84t-73.5 -58t-65.5 -35.5t-48 -17.5l-15 38q21 11 53 39.5t64.5 76t61 114.5t43.5 155z" />
    <glyph glyph-name="uni01F4" unicode="&#x1f4;" horiz-adv-x="1479" 
d="M1233 123q-41 -30 -97 -56.5t-117.5 -47t-124.5 -32t-117 -11.5q-128 0 -243.5 33t-202.5 102t-138.5 175.5t-51.5 254.5q0 139 35 255.5t96 209.5t143.5 163t177.5 116.5t197.5 70t203.5 23.5q88 0 160 -9t129 -22.5t99 -30.5t72 -33q-6 -29 -17 -72t-24.5 -89.5
t-28.5 -92t-30 -80.5h-51l-41 279q-10 6 -33 14.5t-57.5 16.5t-80 13.5t-99.5 5.5q-77 0 -155 -21t-150 -62t-135.5 -102.5t-110.5 -142.5t-74 -181.5t-27 -219.5q0 -108 36.5 -195t98.5 -148.5t144.5 -95t175.5 -33.5q94 0 166.5 25t112.5 63l78 370q-49 5 -91.5 18
t-84.5 29l12 56h475l-12 -56q-21 -13 -50.5 -25t-79.5 -22zM1217 1730q17 2 46.5 -2.5t59.5 -13t55 -20.5t34 -26l-8 -39l-409 -180l-42 41z" />
    <glyph glyph-name="uni01F5" unicode="&#x1f5;" 
d="M575 902q49 0 87.5 -5.5t68 -15t50.5 -21.5t36 -25q16 14 42 28t56 26.5t61.5 23t60.5 18.5q5 -8 8.5 -25.5t3 -38.5t-6.5 -43.5t-19 -40.5l-181 13q15 -19 20.5 -38.5t5.5 -42.5q0 -70 -25.5 -129.5t-76 -103t-126 -68t-174.5 -24.5q-31 0 -49.5 0.5t-40.5 5.5
q-8 -9 -20 -19t-23 -22t-19 -25t-8 -27q0 -22 24 -36.5t63 -25.5t89.5 -20t102.5 -21t102.5 -28t89.5 -41t63 -60t24 -85q0 -82 -46 -148t-124 -113t-182 -72.5t-220 -25.5q-81 0 -143.5 17t-105.5 45.5t-65.5 65.5t-22.5 77q0 49 22.5 91.5t62.5 80t94 69.5t116 61
q-27 14 -44 38t-17 53q0 27 18 56.5t41.5 55t47.5 45.5t36 28q-30 7 -58.5 21.5t-51 38.5t-36 58t-13.5 80q0 61 26.5 114.5t77.5 93.5t126 63t172 23zM373 -298q54 0 112.5 15.5t107.5 45t80.5 72.5t31.5 98q0 35 -22.5 59.5t-58.5 41.5t-81.5 28t-92 20t-89.5 17t-74 19
q-83 -60 -129 -124.5t-46 -122.5q0 -39 21 -70t56.5 -53t83 -34t100.5 -12zM561 832q-51 0 -95.5 -15t-78 -43t-52.5 -68t-19 -91q0 -43 12.5 -72.5t35 -48t52.5 -26.5t66 -8q52 0 95 15.5t74 45t48 71t17 93.5q0 65 -40 106t-115 41zM737 1426q15 2 46 1t63 -5t59.5 -10.5
t35.5 -15.5l-2 -35l-382 -271l-52 39z" />
    <glyph glyph-name="Scommaaccent" unicode="&#x218;" 
d="M206 143q8 -11 23.5 -22.5t42.5 -21t67 -15.5t96 -6q69 0 128 19.5t102.5 53.5t68 78.5t24.5 94.5q0 55 -23.5 97.5t-61.5 77t-87 65t-100 61t-100 64.5t-87 77t-61.5 97t-23.5 125q0 87 41 159t110 123.5t161 80t194 28.5q64 0 121 -6t105 -16.5t85 -23.5t63 -27
q-8 -32 -21.5 -74.5t-29.5 -87t-33 -87t-31 -75.5h-50l-23 256q-15 8 -39.5 15.5t-53 13t-60 9t-61.5 3.5q-56 0 -107.5 -17t-92 -47t-64.5 -71.5t-24 -90.5q0 -52 23.5 -93t61.5 -76t87 -65.5t100.5 -61.5t100.5 -65t87 -75.5t61.5 -93t23.5 -117.5q0 -87 -34 -165
t-101 -137t-167 -93.5t-232 -34.5q-86 0 -153 10t-116.5 25t-82 33t-49.5 34q8 33 23 78t32 92t34.5 92t31.5 78h50zM266 -459q19 7 40 20t39.5 31.5t32 42t16.5 51.5q-20 17 -53.5 34.5t-61.5 27.5q-2 31 12 59.5t36.5 51t48.5 36.5t47 16q27 -3 51.5 -13t43 -28t29.5 -43
t11 -58q0 -51 -19.5 -97t-55.5 -84t-87 -67.5t-114 -45.5z" />
    <glyph glyph-name="scommaaccent" unicode="&#x219;" horiz-adv-x="797" 
d="M467 208q0 42 -22.5 73t-56 59t-73 56t-73 63t-56 80t-22.5 108t24.5 110.5t68.5 79.5t104.5 48.5t132.5 16.5q36 0 72.5 -7t68.5 -20t57.5 -31.5t37.5 -40.5q0 -19 -8.5 -39.5t-21.5 -39.5t-29.5 -34t-32.5 -22l-61 137q-8 7 -29.5 13t-53.5 6q-36 0 -68 -7t-56 -22.5
t-37.5 -41.5t-13.5 -64q0 -45 23 -78.5t57 -62t74.5 -56t74.5 -62t57 -79t23 -106.5q0 -63 -26.5 -113t-71.5 -84t-104 -52t-124 -18q-51 0 -99 11.5t-87.5 32.5t-69 50.5t-44.5 66.5q5 23 17 43t28 37t35 30.5t38 24.5l53 -180q13 -17 41.5 -28.5t66.5 -11.5q30 0 62.5 9
t60 28t45.5 48t18 69zM101 -430q30 10 52.5 25.5t38 33.5t24.5 37t13 37q-17 18 -48.5 33.5t-57.5 25.5q-2 29 11 56t33.5 48t44.5 34t44 14q51 -5 82.5 -36t31.5 -91q0 -50 -20.5 -96t-55.5 -83.5t-81 -63.5t-96 -36z" />
    <glyph glyph-name="Tcommaaccent" unicode="&#x21a;" horiz-adv-x="1139" 
d="M738 0h-545l12 56q46 15 92 27t98 20l245 1152h-277l-161 -277h-49q2 39 8.5 88.5t15 101t17.5 101t17 88.5h1086q-9 -39 -21 -88t-25.5 -100.5t-27.5 -101t-29 -89.5h-50l-41 277h-277l-245 -1152q48 -9 89.5 -19.5t79.5 -27.5zM302 -459q19 7 40 20t39.5 31.5t32 42
t16.5 51.5q-20 17 -53.5 34.5t-61.5 27.5q-2 31 12 59.5t36.5 51t48.5 36.5t47 16q27 -3 51.5 -13t43 -28t29.5 -43t11 -58q0 -51 -19.5 -97t-55.5 -84t-87 -67.5t-114 -45.5z" />
    <glyph glyph-name="tcommaaccent" unicode="&#x21b;" horiz-adv-x="569" 
d="M5 838q35 20 75 35.5t79 24.5l38 188q25 20 57.5 35t67.5 29l37 -22l-53 -247h179q2 -22 -0.5 -45t-17.5 -43h-179l-111 -511q-6 -34 -9.5 -59t-3.5 -47q0 -47 16 -67.5t48 -20.5q43 0 79 16.5t78 38.5l19 -32q-16 -23 -44.5 -46.5t-64.5 -42.5t-78 -31.5t-86 -12.5
q-126 0 -126 145q0 26 4.5 55.5t11.5 61.5l116 553h-133zM-42 -430q30 10 52.5 25.5t38 33.5t24.5 37t13 37q-17 18 -48.5 33.5t-57.5 25.5q-2 29 11 56t33.5 48t44.5 34t44 14q51 -5 82.5 -36t31.5 -91q0 -50 -20.5 -96t-55.5 -83.5t-81 -63.5t-96 -36z" />
    <glyph glyph-name="uni0237" unicode="&#x237;" horiz-adv-x="569" 
d="M271 778l-108 17v43q27 12 58.5 23.5t64 20.5t63.5 14.5t58 5.5l35 -21l-174 -813q-17 -84 -44.5 -148.5t-59.5 -112.5t-66.5 -81.5t-67 -55.5t-60.5 -34t-47 -17l-20 38q22 11 50 36.5t56.5 70.5t55 111.5t46.5 158.5z" />
    <glyph glyph-name="afii57929" unicode="&#x2bc;" horiz-adv-x="682" 
d="M333 856q74 29 118 82.5t51 126.5q-9 9 -23 18t-29.5 17t-32 15.5t-29.5 13.5q2 29 17.5 57.5t36.5 51.5t45 37.5t43 15.5q23 -3 46 -14t41 -30t29 -44t11 -55q0 -50 -19.5 -104t-57.5 -103.5t-95 -89.5t-132 -61z" />
    <glyph glyph-name="circumflex" unicode="&#x2c6;" horiz-adv-x="682" 
d="M300 1090q-17 6 -29 15.5t-19 23.5l275 331q11 5 24 6t21 -6l138 -339q-24 -24 -55 -31l-148 174z" />
    <glyph glyph-name="caron" unicode="&#x2c7;" horiz-adv-x="682" 
d="M785 1467q17 2 30.5 -7t16.5 -22l-299 -338q-10 -5 -22.5 -5.5t-22.5 5.5l-150 336q9 14 29.5 23.5t39.5 7.5l145 -172z" />
    <glyph glyph-name="breve" unicode="&#x2d8;" horiz-adv-x="682" 
d="M802 1337q-18 -38 -50.5 -76t-73.5 -69t-87.5 -50t-91.5 -19q-49 0 -86.5 16t-64 44.5t-43 69t-22.5 89.5l54 26q16 -25 33.5 -45t39.5 -34.5t50.5 -23.5t68.5 -10q60 -2 121 25.5t112 84.5z" />
    <glyph glyph-name="dotaccent" unicode="&#x2d9;" horiz-adv-x="682" 
d="M449 1260q0 45 28.5 70.5t76.5 25.5q47 0 75 -25.5t28 -70.5q0 -46 -28 -71t-75 -25q-48 0 -76.5 25t-28.5 71z" />
    <glyph glyph-name="ring" unicode="&#x2da;" horiz-adv-x="682" 
d="M381 1270q0 37 14 69.5t38.5 56.5t58 38t72.5 14q36 0 67 -12t54.5 -34t37 -54t13.5 -72q0 -38 -14.5 -69.5t-38.5 -54t-55.5 -35t-65.5 -12.5q-41 0 -74 11.5t-57 33.5t-37 52t-13 68zM476 1274q0 -47 25 -70.5t55 -23.5q37 0 60.5 21.5t23.5 67.5q0 49 -23 76t-58 27
q-45 0 -64 -26.5t-19 -71.5z" />
    <glyph glyph-name="ogonek" unicode="&#x2db;" horiz-adv-x="682" 
d="M442 37q-54 -24 -102.5 -53t-85 -63.5t-57.5 -74t-21 -84.5q0 -15 4.5 -31t14.5 -28.5t27 -20.5t41 -8q26 0 49.5 4.5t49.5 12.5v-58q-15 -7 -35 -14t-41.5 -12.5t-43 -9t-37.5 -3.5q-96 0 -142.5 36.5t-46.5 96.5q0 54 28.5 100t77 84t114 69t139.5 57h67z" />
    <glyph glyph-name="tilde" unicode="&#x2dc;" horiz-adv-x="682" 
d="M761 1280q-60 -59 -109 -81.5t-90 -22.5q-33 0 -62 9.5t-56.5 21.5t-54.5 21.5t-54 9.5q-23 0 -48 -9t-54 -35l-34 51q66 64 119 86t96 22q33 0 61 -9t54.5 -19.5t52 -19.5t53.5 -9q23 0 47.5 7.5t53.5 28.5z" />
    <glyph glyph-name="hungarumlaut" unicode="&#x2dd;" horiz-adv-x="682" 
d="M505 1416q12 1 34.5 -1.5t45.5 -8t41.5 -13t23.5 -16.5l-6 -27l-304 -245l-37 29zM820 1416q13 1 35 -2t44.5 -9.5t41 -16.5t24.5 -23l-5 -23l-414 -237l-28 33z" />
    <glyph glyph-name="acutecomb" unicode="&#x301;" horiz-adv-x="0" 
d="M146 1426q15 2 46 1t63 -5t59.5 -10.5t35.5 -15.5l-2 -35l-382 -271l-52 39z" />
    <glyph glyph-name="uni0394" unicode="&#x394;" horiz-adv-x="1202" 
d="M-88 0v60l573 1297h54l560 -1297v-60h-1187zM471 1091l-422 -973h826z" />
    <glyph glyph-name="uni03A9" unicode="&#x3a9;" horiz-adv-x="1481" 
d="M69 0q0 35 1.5 82.5t4.5 98.5t6.5 102t7.5 93h49l86 -228h307q-86 31 -163 84.5t-136 127t-93.5 166.5t-34.5 204q0 147 46.5 267t131.5 204.5t205 131t267 46.5q150 0 267 -45t197 -127t121.5 -198.5t41.5 -258.5q0 -120 -38 -219t-97.5 -175.5t-133.5 -128.5t-146 -79
h289l87 228h48q4 -42 8 -93t7 -102t5 -98.5t2 -82.5h-547v161q31 12 66 37t69.5 61.5t66.5 84.5t56 107t38.5 128.5t14.5 148.5q0 114 -27 214t-80 175t-132 118.5t-183 43.5q-117 0 -201 -43t-138 -115.5t-80 -168.5t-26 -202q0 -120 33 -220.5t82.5 -176t106 -125
t103.5 -67.5v-161h-565z" />
    <glyph glyph-name="uni03BC" unicode="&#x3bc;" horiz-adv-x="1028" 
d="M118 27l6 -338l-10 -45q-46 -11 -83 -11q-20 0 -39.5 2.5t-37.5 8.5l240 1134l-106 15v45q61 23 122.5 39.5t118.5 24.5l40 -20q-15 -65 -27 -119.5t-25 -110.5t-27 -121t-32 -151q-14 -69 -21.5 -123.5t-4 -92t19.5 -57t49 -19.5q39 0 84.5 30t90.5 82.5t86.5 124.5
t74.5 156l74 393l150 8l-146 -783l130 -2l-2 -46q-40 -26 -75 -49.5t-70 -24.5q-9 0 -19.5 2.5t-20.5 10.5l-93 64l51 289h-7q-89 -189 -183 -277t-197 -88q-31 0 -52 11t-49 38h-10z" />
    <glyph glyph-name="pi" unicode="&#x3c0;" horiz-adv-x="1026" 
d="M941 88l-8 -37q-28 -11 -60 -21.5t-66 -19t-67 -15t-62 -10.5h-44l166 785h-337l-70 -335q-12 -57 -29.5 -117t-39 -117t-45.5 -109t-49 -92q-14 -7 -34 -8.5t-43 -1.5q-18 0 -36 1t-31.5 2.5t-21.5 3.5t-8 3l-7 14q35 40 70 95.5t67.5 121t62 136.5t54.5 142t44 137.5
t31 123.5h-29q-49 0 -101 -25.5t-104 -78.5l-20 14q19 43 42 82t56.5 68t81.5 45.5t119 15.5q19 -1 71 -2.5t121 -3t147.5 -3t151.5 -1.5q57 0 94.5 1t64.5 5.5t47 13.5t41 25l19 -15q-9 -29 -25.5 -54.5t-40.5 -44.5t-55.5 -30.5t-68.5 -11.5h-22l-140 -668z" />
    <glyph glyph-name="afii10023" unicode="&#x401;" horiz-adv-x="1251" 
d="M1292 1357q-19 -78 -40 -157t-48 -158h-51l-34 213h-491l-109 -513h386l105 143h48q-14 -97 -35 -194t-48 -197h-48l-44 147h-386l-115 -541h515l145 233h49q-5 -81 -16.5 -164.5t-33.5 -168.5h-1026l12 56q40 17 81.5 28t87.5 19l244 1149q-38 7 -75 19.5t-74 28.5
l12 57h989zM514 1579q0 46 31.5 69t79.5 23q47 0 77.5 -23t30.5 -69q0 -45 -30.5 -68t-77.5 -23q-48 0 -79.5 23t-31.5 68zM947 1579q0 46 30.5 69t77.5 23q48 0 79 -23t31 -69q0 -45 -31 -68t-79 -23q-47 0 -77.5 23t-30.5 68z" />
    <glyph glyph-name="afii10051" unicode="&#x402;" horiz-adv-x="1632" 
d="M1532 528q0 -105 -24 -186t-65 -141t-96 -100.5t-117 -64.5t-127.5 -34t-127.5 -8v52q28 4 66 13.5t78.5 29.5t80 52t71 81t51 116t19.5 157q0 62 -21 108t-58 76.5t-88.5 45.5t-111.5 15q-41 0 -82 -6t-80 -17t-75 -26t-67 -33l-118 -555q35 -9 66 -21t62 -26l-12 -56
h-502l12 56q45 15 90.5 27t97.5 20l245 1152h-296l-160 -277h-50q3 39 10 88.5t15.5 101t17 101t16.5 88.5h1144q-9 -39 -21 -87t-25.5 -98.5t-27.5 -99t-27 -88.5h-50l-43 271h-317l-107 -501q29 14 68 29.5t85.5 28t99 21t107.5 8.5q73 0 144 -16.5t126.5 -53.5t89.5 -97
t34 -146z" />
    <glyph glyph-name="afii10052" unicode="&#x403;" horiz-adv-x="1165" 
d="M209 103q47 -8 91 -19t86 -28l-12 -56h-532l12 56q44 17 86 28t83 19l244 1149q-38 7 -75 19.5t-74 28.5l12 57h1007q-9 -39 -21.5 -90t-26 -104.5t-28 -105t-29.5 -92.5h-50l-38 290h-490zM814 1730q17 2 46.5 -2.5t59.5 -13t55 -20.5t34 -26l-8 -39l-409 -180l-42 41z
" />
    <glyph glyph-name="afii10053" unicode="&#x404;" horiz-adv-x="1370" 
d="M1158 353h51q-1 -27 -4 -62.5t-8.5 -74.5t-13.5 -80t-17 -80q-44 -23 -99 -38.5t-111.5 -24.5t-110.5 -13t-96 -4q-133 0 -245 33t-193.5 100.5t-127.5 170.5t-46 243q0 150 38.5 272t104.5 217t153.5 164.5t187 114.5t204.5 66.5t205 21.5q129 0 230 -20t163 -45
q-6 -30 -17 -72.5t-25 -88.5t-29.5 -91.5t-28.5 -81.5h-50l-46 265q-51 21 -106 27.5t-103 6.5q-101 0 -202.5 -33.5t-190 -102t-157.5 -172t-106 -244.5l690 27q9 -61 -29 -151q-67 5 -155.5 10t-181.5 9.5t-183 7.5t-161 4q-21 -128 2 -231t81.5 -175t149.5 -111t207 -39
q64 0 127 10t108 30z" />
    <glyph glyph-name="afii10054" unicode="&#x405;" 
d="M206 143q8 -11 23.5 -22.5t42.5 -21t67 -15.5t96 -6q69 0 128 19.5t102.5 53.5t68 78.5t24.5 94.5q0 55 -23.5 97.5t-61.5 77t-87 65t-100 61t-100 64.5t-87 77t-61.5 97t-23.5 125q0 87 41 159t110 123.5t161 80t194 28.5q64 0 121 -6t105 -16.5t85 -23.5t63 -27
q-8 -32 -21.5 -74.5t-29.5 -87t-33 -87t-31 -75.5h-50l-23 256q-15 8 -39.5 15.5t-53 13t-60 9t-61.5 3.5q-56 0 -107.5 -17t-92 -47t-64.5 -71.5t-24 -90.5q0 -52 23.5 -93t61.5 -76t87 -65.5t100.5 -61.5t100.5 -65t87 -75.5t61.5 -93t23.5 -117.5q0 -87 -34 -165
t-101 -137t-167 -93.5t-232 -34.5q-86 0 -153 10t-116.5 25t-82 33t-49.5 34q8 33 23 78t32 92t34.5 92t31.5 78h50z" />
    <glyph glyph-name="afii10055" unicode="&#x406;" horiz-adv-x="682" 
d="M493 0h-496l12 56q42 17 82 29t83 18l244 1149q-38 7 -73 19.5t-72 28.5l12 57h496l-12 -57q-38 -16 -81.5 -28.5t-83.5 -19.5l-244 -1149q40 -8 77 -20t68 -27z" />
    <glyph glyph-name="afii10056" unicode="&#x407;" horiz-adv-x="682" 
d="M493 0h-496l12 56q42 17 82 29t83 18l244 1149q-38 7 -73 19.5t-72 28.5l12 57h496l-12 -57q-38 -16 -81.5 -28.5t-83.5 -19.5l-244 -1149q40 -8 77 -20t68 -27zM224 1579q0 46 31.5 69t79.5 23q47 0 77.5 -23t30.5 -69q0 -45 -30.5 -68t-77.5 -23q-48 0 -79.5 23
t-31.5 68zM657 1579q0 46 30.5 69t77.5 23q48 0 79 -23t31 -69q0 -45 -31 -68t-79 -23q-47 0 -77.5 23t-30.5 68z" />
    <glyph glyph-name="afii10057" unicode="&#x408;" horiz-adv-x="909" 
d="M458 1359l487 -2l-12 -57q-38 -16 -78 -28.5t-80 -19.5l-231 -1086q-19 -90 -48 -158.5t-63.5 -119t-72.5 -85.5t-76 -57.5t-73.5 -35.5t-65.5 -20l-15 29q34 25 65.5 56.5t60 80.5t53.5 119t46 171l235 1106q-42 8 -79.5 20t-69.5 28z" />
    <glyph glyph-name="afii10058" unicode="&#x409;" horiz-adv-x="1899" 
d="M715 0l12 56q40 17 78.5 29t78.5 18l244 1152h-372q-48 -202 -91.5 -357t-85 -273t-80.5 -204t-77 -150t-76.5 -110.5t-77.5 -86.5q-51 -51 -111 -74.5t-112 -23.5q-11 16 -19.5 43.5t-14 59.5t-7 64t2.5 58l39 49l214 -41q40 48 85 128t93.5 203t99 295.5t101.5 406.5
q-59 10 -104.5 24.5t-80.5 33.5l12 57h1040l-12 -57q-39 -14 -84.5 -27.5t-95.5 -20.5l-103 -483q18 3 40.5 5.5t46.5 4t47.5 2.5t43.5 1q29 0 64 -3.5t70 -11.5t69 -20.5t62 -29.5q59 -36 97 -95t38 -143q0 -89 -23.5 -160t-64 -124.5t-96.5 -91.5t-121 -62.5t-136.5 -35.5
t-143.5 -11q-9 0 -38.5 1t-66.5 2t-76.5 2t-69.5 1h-238zM1332 682q-38 0 -76 -2.5t-65 -7.5l-121 -569q9 -2 29 -3.5t42.5 -2.5t43.5 -1.5t32 -0.5q78 0 145 22.5t116 69t76.5 117.5t27.5 168q0 58 -20.5 99.5t-58.5 67.5q-64 43 -171 43z" />
    <glyph glyph-name="afii10059" unicode="&#x40a;" horiz-adv-x="1886" 
d="M704 0l12 56q43 17 78 29t78 18l121 568h-518l-121 -568q37 -8 70.5 -19t65.5 -28l-12 -56h-491l12 56q44 17 85.5 28t82.5 19l244 1149q-45 7 -82 19.5t-66 28.5l12 57h491l-12 -57q-79 -35 -156 -48l-102 -481h518l102 481q-38 8 -68.5 20t-67.5 28l12 57h503l-12 -57
q-39 -14 -85 -27.5t-96 -20.5l-103 -483q18 3 41 5.5t47 4t47 2.5t43 1q78 0 146.5 -14.5t122.5 -46.5q26 -16 50 -39.5t42 -54t29 -67.5t11 -80q0 -91 -23 -162t-64 -125t-96.5 -92t-120.5 -61.5t-137 -34.5t-145 -11q-9 0 -38.5 1t-66.5 2t-76.5 2t-69.5 1h-237zM1315 682
q-40 0 -74 -3t-62 -8l-121 -568q9 -3 29 -4.5t42.5 -2.5t43 -1h31.5q86 0 154 23.5t115.5 70t72.5 116t25 161.5q0 52 -18 94t-55 71q-65 51 -183 51z" />
    <glyph glyph-name="afii10060" unicode="&#x40b;" horiz-adv-x="1636" 
d="M882 1255l-107 -501q25 13 67 28.5t92.5 28.5t107 21.5t111.5 8.5q67 0 122 -14t94.5 -42t61 -70.5t21.5 -100.5q0 -61 -16 -135l-80 -376q65 -12 130 -47l-12 -56h-325l94 444q8 35 12 67t4 60q0 37 -11 68t-33.5 53.5t-57 35t-81.5 12.5q-40 0 -85.5 -8t-89.5 -20
t-82.5 -26.5t-63.5 -27.5l-118 -555q68 -18 128 -47l-12 -56h-502l12 56q45 15 90.5 27t97.5 20l245 1152h-296l-160 -277h-50q3 39 10 88.5t15.5 101t17 101t16.5 88.5h1124q-10 -39 -22 -87t-25 -98t-26.5 -98.5t-26.5 -87.5h-50l-45 269h-296z" />
    <glyph glyph-name="afii10061" unicode="&#x40c;" horiz-adv-x="1360" 
d="M899 1357h428l-12 -57q-84 -35 -157 -48l-519 -516q24 -42 55 -96t66 -112.5t72 -119.5t74.5 -118.5t74 -107.5t69.5 -87l82 -47l-10 -48h-262l-56 46q-37 50 -81.5 126t-88.5 160t-83.5 167.5t-66.5 149.5h-134l-116 -546q41 -8 75.5 -19t60.5 -28l-12 -56h-491l12 56
q44 17 85.5 28t83.5 19l244 1149q-44 5 -82 18t-67 30l12 57h491l-12 -57q-33 -13 -72.5 -25.5t-83.5 -22.5l-114 -537l162 27l491 510q-38 8 -70.5 21t-59.5 27zM972 1730q17 2 46.5 -2.5t59.5 -13t55 -20.5t34 -26l-8 -39l-409 -180l-42 41z" />
    <glyph glyph-name="afii10062" unicode="&#x40e;" horiz-adv-x="1378" 
d="M1194 1252q-90 16 -155 48l12 57h432l-12 -57q-27 -11 -64.5 -24t-85.5 -24l-578 -863q-69 -103 -137 -182t-132.5 -131t-125 -74t-114.5 -11q-9 18 -14 44t-7.5 55.5t-1.5 58t4 51.5l39 48l189 -52q10 3 25.5 13t33.5 26.5t36.5 39.5t34.5 52l-325 925q-72 17 -136 48
l12 57h510l-12 -57q-35 -13 -77 -25.5t-90 -22.5l222 -661l24 -114h3l75 133zM844 1438q-79 0 -135 15t-92 41.5t-52.5 63.5t-16.5 81q0 11 2 22t4 23q12 11 30 18.5t39 12.5t43 8t42 4l43 -25l-35 -165q23 -14 62 -20.5t84 -6.5q16 0 37 1.5t42.5 4t41.5 6.5t34 9l36 171
l54 25q15 0 33 -3t36 -8.5t33.5 -13.5t26.5 -18q-11 -51 -40 -96t-77 -78.5t-116 -52.5t-159 -19z" />
    <glyph glyph-name="afii10145" unicode="&#x40f;" horiz-adv-x="1479" 
d="M754 1300q-80 -32 -156 -48l-245 -1152h609l245 1152q-52 11 -84.5 23t-50.5 25l12 57h490l-12 -57q-45 -19 -87.5 -31.5t-81.5 -16.5l-244 -1149q40 -8 78 -18t71 -29l-12 -56h-559q-31 -91 -66.5 -182.5t-77.5 -187.5h-51q2 96 5 187.5t8 182.5h-558l12 56
q44 17 85.5 28t83.5 19l244 1149q-52 7 -87.5 20.5t-61.5 27.5l12 57h491z" />
    <glyph glyph-name="afii10017" unicode="&#x410;" horiz-adv-x="1251" 
d="M352 56l-12 -56h-430l12 56q39 17 75.5 28t73.5 19l802 1276h56l169 -1276q37 -8 72.5 -18t64.5 -29l-12 -56h-488l12 56q43 15 85.5 27t83.5 20l-43 344h-467l-210 -344q41 -6 79.5 -18t76.5 -29zM813 928l-18 169h-4l-93 -173l-230 -376h392z" />
    <glyph glyph-name="afii10018" unicode="&#x411;" horiz-adv-x="1208" 
d="M438 1252q-43 7 -79 20.5t-70 27.5l12 57h928q-7 -39 -17.5 -84t-23 -91t-26.5 -91t-28 -85h-50l-48 249h-410l-99 -466q18 2 40.5 4t46.5 4t47.5 3.5t43.5 1.5q83 0 157 -16.5t130 -53.5t89 -97.5t33 -147.5q0 -127 -51.5 -220t-136.5 -153.5t-194.5 -90t-226.5 -29.5
q-9 0 -37.5 1t-64.5 2t-75 2t-69 1h-246l12 56q86 35 169 47zM641 701q-47 0 -77 -2t-58 -7l-125 -589q8 -3 26.5 -4.5t39.5 -2.5t40.5 -1h30.5q80 0 151 24t124 72t84 119t31 165q0 109 -66.5 167.5t-200.5 58.5z" />
    <glyph glyph-name="afii10019" unicode="&#x412;" horiz-adv-x="1251" 
d="M13 0l12 56q44 19 86 30.5t83 16.5l244 1149q-38 7 -75 19.5t-74 28.5l12 57h205q37 0 77 1.5t80.5 4t80.5 4t78 1.5q70 0 140.5 -10.5t126.5 -40.5t91.5 -85t35.5 -145q0 -52 -22 -108t-64.5 -105.5t-104.5 -88.5t-142 -58l-2 -8q49 -9 95 -28.5t82 -51.5t57.5 -79
t21.5 -110q0 -121 -46 -208t-125 -143.5t-185 -83t-226 -26.5q-33 0 -78 1.5t-94 4t-97 4t-87 1.5h-186zM589 89q80 0 146 25.5t113 71t73 108t26 135.5q0 61 -25.5 101.5t-69 64.5t-101.5 34t-123 10h-145l-113 -532q24 -8 81.5 -13t137.5 -5zM600 740q17 0 37.5 1t42 2.5
t41.5 3t35 3.5q55 17 103.5 47t84.5 70.5t57 90.5t21 108q0 99 -62.5 150t-200.5 51q-39 0 -77 -2t-67 -6l-111 -519h96z" />
    <glyph glyph-name="afii10020" unicode="&#x413;" horiz-adv-x="1165" 
d="M373 103q47 -8 91 -19t86 -28l-12 -56h-532l12 56q44 17 86 28t83 19l244 1149q-38 7 -75 19.5t-74 28.5l12 57h1007q-9 -39 -21.5 -90t-26 -104.5t-28 -105t-29.5 -92.5h-50l-38 290h-490z" />
    <glyph glyph-name="afii10021" unicode="&#x414;" horiz-adv-x="1303" 
d="M1200 100q-9 -38 -23.5 -89t-31 -105.5t-34.5 -106.5t-33 -91h-50l-19 292h-956l-143 -292h-48q-1 37 3 89t10.5 107t14 106.5t14.5 89.5h161q45 54 92 129.5t93 165.5t89 192.5t82 211.5t71.5 221t57.5 222q-49 10 -95 24t-91 34l12 57h1030l-12 -57
q-35 -13 -76.5 -25.5t-92.5 -22.5l-245 -1152h220zM793 100l246 1155h-373q-62 -237 -128.5 -424.5t-130 -330t-121 -242t-99.5 -158.5h606z" />
    <glyph glyph-name="afii10022" unicode="&#x415;" horiz-adv-x="1251" 
d="M1312 1357q-19 -78 -40 -157t-48 -158h-51l-34 213h-491l-109 -513h386l105 143h48q-14 -97 -35 -194t-48 -197h-48l-44 147h-386l-115 -541h515l145 233h49q-5 -81 -16.5 -164.5t-33.5 -168.5h-1026l12 56q40 17 81.5 28t87.5 19l244 1149q-38 7 -75 19.5t-74 28.5
l12 57h989z" />
    <glyph glyph-name="afii10024" unicode="&#x416;" horiz-adv-x="1876" 
d="M1034 1252q-39 11 -70 23t-57 25l12 57h449l-12 -57q-26 -11 -60 -23t-76 -25l-114 -537l138 27l433 510q-36 11 -67.5 24t-61.5 24l12 57h426l-12 -57q-38 -16 -77.5 -27t-77.5 -21l-463 -516q36 -64 75.5 -143t83 -164t92 -171t103.5 -163l81 -47l-10 -48h-242l-55 48
q-44 67 -79.5 139.5t-68.5 149t-64.5 155t-66.5 157.5h-113l-116 -546q32 -9 61 -19.5t55 -27.5l-12 -56h-451l12 56q62 32 149 47l120 564l-122 -29q-69 -79 -132.5 -156t-126.5 -151t-127.5 -145t-136.5 -138l-76 -48h-242l10 48l101 47q88 77 173.5 160.5t165 165.5
t150.5 158.5t128 139.5l-251 533q-37 11 -68 23t-59 25l12 57h427l-12 -57q-29 -13 -64 -25.5t-77 -22.5l216 -522h124z" />
    <glyph glyph-name="afii10025" unicode="&#x417;" horiz-adv-x="1014" 
d="M323 -24q-108 0 -201.5 22t-153.5 54q6 30 19 70.5t29.5 84t35 87.5t35.5 82h50l23 -271q10 -6 30.5 -11t46 -8.5t53.5 -5.5t53 -2q81 0 152.5 28t125 76.5t84.5 114.5t31 141q0 58 -19.5 98.5t-53.5 65.5t-78.5 36t-93.5 11l-155 -21q1 27 6 55.5t17 56.5h62q16 0 37 1
t43 2.5t42.5 3t36.5 3.5q118 38 183 122.5t65 198.5q0 98 -58.5 153t-165.5 55q-64 0 -104.5 -11.5t-56.5 -25.5l-151 -236h-51q1 26 4 60.5t8.5 73.5t13 80t16.5 80q35 22 79 37t91 24.5t94 13.5t89 4q70 0 139 -11.5t124 -41.5t89 -81.5t34 -132.5q0 -60 -19.5 -116.5
t-58.5 -107t-98.5 -92t-139.5 -69.5l-1 -8q47 -9 87.5 -28t70 -50.5t46 -76t16.5 -103.5q0 -123 -51.5 -214t-136.5 -151.5t-193 -90t-221 -29.5z" />
    <glyph glyph-name="afii10026" unicode="&#x418;" horiz-adv-x="1479" 
d="M495 0h-491l12 56q89 35 169 47l244 1149q-76 17 -149 48l12 57h491l-12 -57q-34 -14 -72 -27t-84 -21l-177 -822l-52 -145l126 152l723 768l10 47q-44 10 -80 22.5t-68 25.5l12 57h492l-12 -57q-38 -16 -81 -28t-88 -20l-244 -1149q44 -8 80.5 -19t68.5 -28l-12 -56
h-492l12 56q34 14 73.5 26.5t84.5 20.5l173 820l50 146l-116 -146l-729 -777l-9 -43q44 -8 79.5 -20t67.5 -27z" />
    <glyph glyph-name="afii10027" unicode="&#x419;" horiz-adv-x="1479" 
d="M495 0h-491l12 56q89 35 169 47l244 1149q-76 17 -149 48l12 57h491l-12 -57q-34 -14 -72 -27t-84 -21l-177 -822l-52 -145l126 152l723 768l10 47q-44 10 -80 22.5t-68 25.5l12 57h492l-12 -57q-38 -16 -81 -28t-88 -20l-244 -1149q44 -8 80.5 -19t68.5 -28l-12 -56
h-492l12 56q34 14 73.5 26.5t84.5 20.5l173 820l50 146l-116 -146l-729 -777l-9 -43q44 -8 79.5 -20t67.5 -27zM952 1438q-79 0 -135 15t-92 41.5t-52.5 63.5t-16.5 81q0 11 2 22t4 23q12 11 30 18.5t39 12.5t43 8t42 4l43 -25l-35 -165q23 -14 62 -20.5t84 -6.5
q16 0 37 1.5t42.5 4t41.5 6.5t34 9l36 171l54 25q15 0 33 -3t36 -8.5t33.5 -13.5t26.5 -18q-11 -51 -40 -96t-77 -78.5t-116 -52.5t-159 -19z" />
    <glyph glyph-name="afii10028" unicode="&#x41a;" horiz-adv-x="1360" 
d="M1035 1357h428l-12 -57q-84 -35 -157 -48l-519 -516q24 -42 55 -96t66 -112.5t72 -119.5t74.5 -118.5t74 -107.5t69.5 -87l82 -47l-10 -48h-262l-56 46q-37 50 -81.5 126t-88.5 160t-83.5 167.5t-66.5 149.5h-134l-116 -546q41 -8 75.5 -19t60.5 -28l-12 -56h-491l12 56
q44 17 85.5 28t83.5 19l244 1149q-44 5 -82 18t-67 30l12 57h491l-12 -57q-33 -13 -72.5 -25.5t-83.5 -22.5l-114 -537l162 27l491 510q-38 8 -70.5 21t-59.5 27z" />
    <glyph glyph-name="afii10029" unicode="&#x41b;" horiz-adv-x="1387" 
d="M599 1242q-59 10 -104.5 24.5t-80.5 33.5l12 57h1078l-12 -57q-35 -16 -77 -28.5t-91 -19.5l-244 -1149q42 -8 79 -19t69 -28l-12 -56h-491l12 56q39 17 77.5 27.5t79.5 19.5l244 1152h-422q-40 -196 -77.5 -348t-73.5 -270t-71 -206t-71 -154t-72.5 -114.5t-76.5 -88.5
q-25 -25 -56 -43.5t-63 -30.5t-63 -18t-57 -6q-11 16 -19.5 43.5t-14 59.5t-7 64t2.5 58l39 49l214 -41q43 46 89 130t91.5 210.5t88.5 298.5t80 394z" />
    <glyph glyph-name="afii10030" unicode="&#x41c;" horiz-adv-x="1706" 
d="M1555 0h-480l12 56q42 17 82.5 27.5t84.5 19.5l185 871l52 210h-7l-130 -184l-517 -731h-51l-220 725l-34 191l-9 -1l-46 -210l-185 -871q69 -16 136 -47l-12 -56h-404l12 56q83 34 167 49l244 1147q-40 7 -77 19.5t-72 28.5l12 57h367l194 -657l46 -179h2l118 181
l470 655h350l-12 -57q-38 -16 -77 -28.5t-79 -19.5l-245 -1152q38 -7 72 -17t63 -27z" />
    <glyph glyph-name="afii10031" unicode="&#x41d;" horiz-adv-x="1479" 
d="M478 0h-491l12 56q44 17 86 28t83 19l244 1149q-45 7 -82.5 19.5t-66.5 28.5l12 57h491l-12 -57q-74 -34 -156 -48l-108 -507h609l108 507q-40 8 -72.5 21t-63.5 27l12 57h491l-12 -57q-39 -19 -82.5 -30t-86.5 -18l-244 -1149q44 -8 82 -19t67 -28l-12 -56h-491l12 56
q39 17 77.5 28t78.5 19l115 542h-609l-115 -542q37 -8 71.5 -19t64.5 -28z" />
    <glyph glyph-name="afii10032" unicode="&#x41e;" horiz-adv-x="1479" 
d="M123 522q0 117 27.5 226.5t78 204.5t122.5 173.5t161.5 134.5t194 87t220.5 31q137 0 239.5 -41t170.5 -114.5t102 -177t34 -227.5q0 -121 -27.5 -230.5t-78.5 -203.5t-122.5 -169.5t-159 -128.5t-189 -82t-212.5 -29q-131 0 -234.5 40.5t-176.5 113.5t-111.5 173
t-38.5 219zM328 526q0 -95 22.5 -176.5t70 -142t119.5 -95t171 -34.5q77 0 148 29t133 81t113 123t87 154.5t56 177t20 189.5q0 94 -22 175.5t-66.5 142t-111.5 95t-158 34.5q-95 0 -174.5 -31t-144.5 -85.5t-114 -127.5t-82 -156.5t-50 -174t-17 -178.5z" />
    <glyph glyph-name="afii10033" unicode="&#x41f;" horiz-adv-x="1479" 
d="M489 0h-491l12 56q32 15 73 27t96 20l244 1149q-38 7 -75 19.5t-74 28.5l12 57h1319l-12 -57q-41 -19 -83.5 -30t-85.5 -18l-244 -1149q37 -5 74 -16.5t75 -30.5l-12 -56h-490l12 56q23 14 60.5 25t94.5 22l245 1152h-629l-245 -1152q37 -8 70.5 -19t65.5 -28z" />
    <glyph glyph-name="afii10034" unicode="&#x420;" horiz-adv-x="1251" 
d="M378 103q52 -6 95.5 -18t81.5 -29l-12 -56h-532l12 56q44 19 86 29t83 18l244 1149q-43 7 -79 20.5t-70 27.5l12 57h175q38 0 83 2.5t92 5t93.5 5t87.5 2.5q84 0 163 -16.5t140.5 -55t99 -102t37.5 -157.5q0 -96 -25.5 -172t-70 -133.5t-105.5 -98t-131.5 -66t-148.5 -37
t-157 -11.5q-63 0 -103 1.5t-60 6.5zM768 1270q-48 0 -82 -1.5t-62 -7.5l-133 -627q19 -6 53 -8.5t91 -2.5q92 0 170 24t135 74t89.5 126t32.5 180q0 60 -21 105.5t-59 76t-92.5 46t-121.5 15.5z" />
    <glyph glyph-name="afii10035" unicode="&#x421;" horiz-adv-x="1366" 
d="M1170 373h51q-1 -27 -4 -62.5t-8.5 -74.5t-13 -80t-16.5 -80q-70 -45 -178.5 -72.5t-235.5 -27.5q-141 0 -256.5 38.5t-198 111t-128 176.5t-45.5 236q0 143 34.5 261t95 211.5t142.5 162.5t176.5 115t197.5 68.5t205 22.5q81 0 148 -7.5t121 -20.5t96 -30.5t72 -36.5
q-5 -30 -16 -72.5t-25 -88.5t-29.5 -91.5t-30.5 -81.5h-50l-42 279q-9 6 -26.5 14.5t-43.5 16.5t-61 13.5t-78 5.5q-82 0 -165 -20.5t-159 -61t-142.5 -101t-115.5 -140.5t-77 -179.5t-28 -217.5q0 -120 35 -210.5t96.5 -150.5t146 -90t183.5 -30q75 0 135.5 16t95.5 39z
" />
    <glyph glyph-name="afii10036" unicode="&#x422;" horiz-adv-x="1139" 
d="M738 0h-545l12 56q46 15 92 27t98 20l245 1152h-277l-161 -277h-49q2 39 8.5 88.5t15 101t17.5 101t17 88.5h1086q-9 -39 -21 -88t-25.5 -100.5t-27.5 -101t-29 -89.5h-50l-41 277h-277l-245 -1152q48 -9 89.5 -19.5t79.5 -27.5z" />
    <glyph glyph-name="afii10037" unicode="&#x423;" horiz-adv-x="1378" 
d="M1307 1252q-90 16 -155 48l12 57h432l-12 -57q-27 -11 -64.5 -24t-85.5 -24l-578 -863q-69 -103 -137 -182t-132.5 -131t-125 -74t-114.5 -11q-9 18 -14 44t-7.5 55.5t-1.5 58t4 51.5l39 48l189 -52q10 3 25.5 13t33.5 26.5t36.5 39.5t34.5 52l-325 925q-72 17 -136 48
l12 57h510l-12 -57q-35 -13 -77 -25.5t-90 -22.5l222 -661l24 -114h3l75 133z" />
    <glyph glyph-name="afii10038" unicode="&#x424;" horiz-adv-x="1647" 
d="M806 1357h436l-12 -57q-24 -11 -57 -23t-81 -24l-21 -98q19 4 47.5 6.5t58.5 4t57.5 2t42.5 0.5q79 0 144 -25.5t111.5 -73t71.5 -116t25 -153.5q0 -98 -25 -179.5t-68.5 -147.5t-101 -115.5t-123 -82.5t-135 -49.5t-136.5 -16.5q-9 0 -32 0.5t-49.5 2t-50.5 4.5t-35 7
l-26 -120q37 -9 66.5 -19.5t52.5 -27.5l-12 -56h-436l12 56q32 17 68.5 27t78.5 17l25 119q-19 -3 -46.5 -5t-56 -3t-56 -1.5t-46.5 -0.5q-68 0 -131.5 20.5t-112.5 64.5t-79 112.5t-30 164.5q0 93 24 174t66 147t99 117.5t123 87t138.5 53.5t145.5 18q12 0 34.5 -0.5t47 -1
t46.5 -2t34 -3.5l20 92q-43 11 -74.5 22.5t-53.5 24.5zM1199 1076q-14 0 -33.5 -0.5t-40.5 -2t-40.5 -4t-33.5 -6.5l-161 -755q9 -2 27.5 -3.5t39 -2t38.5 -0.5h26q77 0 153 30t137 91t98.5 154.5t37.5 219.5q0 130 -64 204.5t-184 74.5zM588 302h29t36 1t37.5 3t33.5 6
l161 757q-11 2 -29 3.5t-37 2t-37 1t-30 0.5q-73 0 -148 -30.5t-136.5 -91t-100.5 -152.5t-39 -215q0 -69 18.5 -122t53 -89t82 -55t106.5 -19z" />
    <glyph glyph-name="afii10039" unicode="&#x425;" horiz-adv-x="1251" 
d="M977 1357h446l-12 -57q-35 -13 -75 -25.5t-81 -22.5l-484 -536l297 -613q44 -8 81 -19t66 -28l-12 -56h-524l12 56q81 35 156 47l-219 494l-423 -497q41 -5 78.5 -14.5t69.5 -29.5l-12 -56h-448l12 56q41 19 79 29t75 18l523 584l-264 565q-37 11 -71.5 23t-70.5 25
l12 57h522l-12 -57q-32 -11 -70.5 -23t-87.5 -25l183 -457l391 457q-70 16 -149 48z" />
    <glyph glyph-name="afii10040" unicode="&#x426;" horiz-adv-x="1479" 
d="M5 0l12 56q31 14 73 25t96 22l244 1149q-38 5 -75.5 18t-73.5 30l12 57h491l-12 -57q-62 -25 -155 -48l-245 -1152h610l245 1152q-34 7 -68.5 19t-66.5 29l12 57h490l-12 -57q-39 -16 -82.5 -28.5t-86.5 -19.5l-245 -1152h222q-9 -38 -23.5 -89.5t-31.5 -106t-35 -106
t-33 -90.5h-49l-21 292h-1192z" />
    <glyph glyph-name="afii10041" unicode="&#x427;" horiz-adv-x="1411" 
d="M1206 0h-492l12 56q51 20 96.5 31t91.5 16l105 498q-29 -15 -73 -30t-96.5 -28t-110.5 -21t-113 -8q-72 0 -132.5 10.5t-105 36.5t-70.5 70.5t-29 112.5q-2 28 1.5 60t11.5 70l80 378q-34 5 -65.5 18t-63.5 30l12 57h454l-12 -57q-31 -13 -63.5 -25.5t-75.5 -22.5
l-72 -341q-3 -14 -6.5 -30t-6.5 -32.5t-5 -31.5t-2 -26q2 -93 55 -135t170 -42q40 0 87 6.5t93 17t87.5 25t70.5 30.5l119 559q-33 10 -65 22.5t-62 25.5l12 57h451l-12 -57q-29 -13 -64 -25.5t-74 -22.5l-244 -1149q36 -8 66 -20t52 -27z" />
    <glyph glyph-name="afii10042" unicode="&#x428;" horiz-adv-x="2136" 
d="M1058 1357h438l-12 -57q-66 -31 -136 -48l-245 -1152h537l245 1152q-62 16 -117 48l12 57h449l-12 -57q-32 -13 -68 -25.5t-77 -22.5l-244 -1149q37 -8 68 -19t57 -28l-12 -56h-1900l12 56q42 17 79 29t72 18l244 1149q-69 16 -131 48l12 57h453l-12 -57
q-29 -13 -62.5 -25t-74.5 -23l-245 -1152h528l245 1152q-37 11 -64.5 24t-50.5 24z" />
    <glyph glyph-name="afii10043" unicode="&#x429;" horiz-adv-x="2136" 
d="M31 0l12 56q34 15 69.5 27t80.5 20l244 1149q-35 5 -67.5 18t-62.5 30l12 57h452l-12 -57q-29 -13 -62 -25.5t-74 -22.5l-245 -1152h538l245 1152q-33 11 -62 22.5t-54 25.5l12 57h438l-12 -57q-26 -16 -60 -27t-76 -21l-245 -1152h538l245 1152q-32 8 -61 20t-57 28
l12 57h450l-12 -57q-29 -16 -66 -28.5t-80 -19.5l-245 -1152h223q-9 -38 -23.5 -89t-32 -105.5t-35.5 -106.5t-33 -91h-48l-21 292h-1825z" />
    <glyph glyph-name="afii10044" unicode="&#x42a;" horiz-adv-x="1384" 
d="M985 1357l-13 -57q-38 -13 -83.5 -25.5t-96.5 -22.5l-94 -444q18 2 40 4t46 4t47.5 3.5t43.5 1.5q84 0 158.5 -18t131 -56t89 -97t32.5 -141q0 -91 -26 -164.5t-71.5 -130.5t-107.5 -98.5t-133.5 -68.5t-150 -40t-156.5 -13q-10 0 -33 1t-53 2t-62.5 2t-62.5 1h-249
l12 56q39 17 81 28t88 19l245 1152h-250l-159 -277h-49q3 41 9.5 91t15 101t17.5 100t16 87h778zM812 721q-47 0 -77 -3t-58 -7l-129 -608q9 -3 23 -4.5t29 -2.5t29 -1h24q88 0 165.5 24t135.5 72t91.5 120.5t33.5 169.5q0 64 -19 109.5t-54.5 74.5t-84.5 42.5t-109 13.5z
" />
    <glyph glyph-name="afii10045" unicode="&#x42b;" horiz-adv-x="1786" 
d="M1616 0h-492l12 56q42 19 82 29t80 18l244 1149q-35 8 -71 18.5t-71 29.5l12 57h492l-12 -57q-73 -32 -165 -48l-244 -1149q48 -8 82 -20t63 -27zM3 0l12 56q86 35 169 47l244 1149q-76 17 -149 48l12 57h516l-12 -57q-39 -14 -84.5 -27.5t-95.5 -20.5l-94 -444
q18 2 45.5 4t56.5 4t57 3.5t48 1.5q82 0 156.5 -14t130 -48.5t88.5 -94t33 -150.5t-25.5 -165t-69.5 -132t-103.5 -100t-127.5 -69.5t-141 -40.5t-144 -13q-10 0 -42.5 1t-73.5 2t-83 2t-72 1h-251zM663 721h-46.5t-45 -1t-40 -3t-31.5 -6l-129 -606q9 -3 32 -5t49 -3
t49.5 -1.5t34.5 -0.5q81 0 152.5 27t124.5 78t84 126t31 171q0 110 -65.5 167t-199.5 57z" />
    <glyph glyph-name="afii10046" unicode="&#x42c;" horiz-adv-x="1208" 
d="M3 0l12 56q86 35 169 47l244 1149q-38 7 -75 19.5t-74 28.5l12 57h516l-12 -57q-38 -14 -84 -27.5t-97 -20.5l-94 -444q37 4 86.5 8.5t90.5 4.5q85 0 160 -18.5t131 -58.5t88.5 -104t32.5 -155q0 -84 -24 -153t-66 -123.5t-100 -95t-126.5 -67t-144 -39.5t-153.5 -13
q-10 0 -38 1t-63.5 2t-73.5 2t-68 1h-249zM635 721q-48 0 -78 -1t-58 -9l-129 -608q9 -3 27.5 -4.5t39.5 -2.5t40 -1h29q79 0 151 24t126 71.5t86 119t32 166.5q0 115 -65.5 180t-200.5 65z" />
    <glyph glyph-name="afii10047" unicode="&#x42d;" horiz-adv-x="1341" 
d="M407 608q-4 38 5.5 76.5t26.5 75.5l662 -2q21 130 -4 227.5t-82 162.5t-140.5 98t-180.5 33q-45 0 -83.5 -8t-68.5 -18.5t-50 -22t-29 -18.5l-151 -236h-50q0 25 4 60t9.5 74t13 80.5t15.5 79.5q35 22 86 42t112.5 35t131 23.5t140.5 8.5q116 0 213.5 -30t168 -90
t109.5 -150.5t39 -212.5q0 -164 -35 -295.5t-96.5 -233.5t-145 -176t-181 -122t-204 -70.5t-213.5 -22.5q-79 0 -142.5 10.5t-111.5 26t-81.5 34.5t-52.5 36q8 31 20 74t25.5 89t28 90.5t26.5 80.5h51l40 -282q30 -24 91.5 -40.5t142.5 -16.5q91 0 188 33.5t182.5 104.5
t151 183t94.5 268z" />
    <glyph glyph-name="afii10048" unicode="&#x42e;" horiz-adv-x="2114" 
d="M501 0h-492l12 56q82 31 168 47l244 1149q-38 5 -75.5 18t-72.5 30l12 57h492l-12 -57q-14 -6 -29 -12t-33.5 -12t-41.5 -12t-53 -12l-108 -507h231q36 135 110 250.5t176 201t226.5 134t261.5 48.5q131 0 237 -41t180.5 -114.5t115 -175t40.5 -222.5
q0 -116 -28.5 -223.5t-80 -202t-124 -172.5t-160 -134t-188.5 -87t-210 -31q-162 0 -279 53.5t-189 144.5t-100 212.5t-11 258.5h-229l-115 -542q46 -9 79 -21t58 -26zM906 530q0 -96 27.5 -178.5t79 -143.5t126.5 -95.5t171 -34.5q81 0 155 29t138 80.5t116 121.5t88.5 153
t56.5 175.5t20 187.5t-23.5 178t-70.5 144.5t-118.5 96.5t-167.5 35q-84 0 -161 -28.5t-143.5 -80t-120.5 -121.5t-92.5 -153.5t-59.5 -176.5t-21 -189z" />
    <glyph glyph-name="afii10049" unicode="&#x42f;" horiz-adv-x="1346" 
d="M1466 1357l-12 -57q-32 -13 -73 -26.5t-96 -21.5l-244 -1149q49 -8 86 -19t63 -28l-12 -56h-513l12 56q42 17 86 29t93 18l99 466h-266q-98 -131 -204.5 -265.5t-234.5 -255.5l-77 -48h-244l10 48l104 47q77 67 144.5 134t127.5 131t112.5 125t98.5 116q-41 11 -83.5 33
t-77.5 57.5t-57.5 85t-22.5 115.5q0 83 26 150.5t71.5 119.5t107 90t131.5 62.5t146 36t151 11.5q19 0 57.5 -1t82 -1.5t87 -1.5t73.5 -1h248zM815 655q22 0 45 0.5t44.5 2t40 4.5t31.5 7l124 583q-9 3 -30.5 5t-47 2.5t-52 1t-45.5 0.5q-103 0 -183.5 -26t-136 -73
t-84.5 -111.5t-29 -142.5q0 -56 24.5 -102.5t68 -80t102.5 -52t128 -18.5z" />
    <glyph glyph-name="afii10065" unicode="&#x430;" 
d="M324 88q32 0 68.5 21t73.5 55.5t73 77.5t67 87.5t55 86t37 72.5l56 301q-26 17 -64 24t-90 7q-59 0 -111 -23t-95.5 -63t-78.5 -93.5t-59.5 -114t-37.5 -125.5t-13 -127q0 -90 32.5 -138t86.5 -48zM662 345q-23 -63 -67 -128t-100 -118t-120 -87t-125 -34q-91 0 -147 68
t-56 199q0 82 17.5 162.5t51 152.5t82.5 133.5t112 106.5t138.5 70.5t163.5 25.5q53 0 91 -7.5t76 -23.5q72 37 147 37l-158 -805h128v-45q-35 -28 -84 -45t-97 -17q-26 0 -44 6t-29.5 15.5t-16.5 22t-5 24.5q0 67 49 287h-7z" />
    <glyph glyph-name="afii10066" unicode="&#x431;" horiz-adv-x="1030" 
d="M74 362q0 74 13.5 155.5t39 162.5t62 158.5t81.5 145.5t98.5 122t112.5 88q44 25 104 45.5t125 35.5t129 24t115 12l89 71h44q-2 -25 -9 -52t-18 -53t-24.5 -49.5t-27.5 -42.5q-20 -27 -55 -36.5t-83 -14.5q-119 -12 -208.5 -27.5t-156.5 -41.5t-114.5 -66t-84 -99
t-65.5 -141.5t-58 -193.5h9q40 79 93.5 141t118 105t137.5 66t152 23q66 0 115.5 -22t81.5 -61t48 -92.5t16 -116.5q0 -76 -18.5 -152t-53 -146t-84 -131t-112 -105.5t-137 -70t-157.5 -25.5q-151 0 -234.5 97.5t-83.5 286.5zM275 585q-29 -50 -36 -118t-7 -140
q0 -65 15 -116t39.5 -86t56.5 -53t66 -18q45 0 90.5 20.5t87 56.5t78 85.5t63 107t42 121t15.5 128.5q0 115 -51.5 166.5t-148.5 51.5q-38 0 -80.5 -14.5t-84.5 -41.5t-80 -65t-65 -85z" />
    <glyph glyph-name="afii10067" unicode="&#x432;" horiz-adv-x="889" 
d="M839 733q0 -84 -63 -143.5t-180 -101.5q59 -3 99 -20.5t64.5 -42t35 -54t10.5 -57.5q0 -78 -38.5 -140.5t-99.5 -106t-136.5 -66.5t-149.5 -23q-78 0 -137.5 23.5t-99.5 64.5t-60.5 98t-20.5 124q0 143 47.5 257t127 193.5t181.5 121.5t212 42q42 0 80 -11t66.5 -32
t45 -52.5t16.5 -73.5zM645 284q0 35 -9 61t-28.5 44.5t-50.5 30.5t-74 20q-19 -4 -51.5 -7t-68 -6t-70 -5.5t-58.5 -4.5q-5 -23 -9.5 -56t-4.5 -70q0 -50 11 -93.5t35 -75.5t63 -50t95 -18q39 0 78 16t70.5 46t51.5 72.5t20 95.5zM599 824q-40 0 -91 -18t-101.5 -58.5
t-94.5 -105t-70 -158.5q82 -1 161 19t140.5 53.5t99 77.5t37.5 92q0 18 -4 35.5t-14 31.5t-25.5 22.5t-37.5 8.5z" />
    <glyph glyph-name="afii10068" unicode="&#x433;" horiz-adv-x="799" 
d="M52 166q0 49 23 88t61.5 72t87 61t99 54t99 52t87 54t61.5 60.5t23 72.5q0 22 -6.5 42.5t-23.5 36.5t-46 25t-73 9q-31 0 -67.5 -10.5t-73.5 -29.5t-71.5 -45t-60.5 -57l-27 30q17 36 53.5 75.5t86 71.5t109.5 53t125 21q63 0 109 -14t75 -37t43 -53t14 -62
q0 -68 -40 -118.5t-100.5 -91.5t-130.5 -76t-130.5 -71.5t-100.5 -79.5t-40 -99q0 -22 8.5 -42.5t28 -36t51 -24.5t77.5 -9q40 0 82 12t82.5 32t77 45.5t65.5 52.5l25 -26q-23 -32 -63 -71.5t-93 -74t-117.5 -57.5t-136.5 -23q-63 0 -110 14t-78.5 39.5t-47.5 59.5t-16 75z
" />
    <glyph glyph-name="afii10069" unicode="&#x434;" horiz-adv-x="1036" 
d="M63 296q0 130 44 239.5t121 188.5t181 123t224 44q16 0 42.5 -2t54.5 -5.5t51.5 -8.5t33.5 -12q0 37 -4 82t-14.5 91t-29 89.5t-47 77t-68 54t-92.5 20.5q-32 0 -58 -3.5t-48.5 -9.5t-42 -14.5t-39.5 -19.5l-23 34q19 21 51 40t70 33.5t79.5 22.5t81.5 8
q86 0 150.5 -34.5t107 -94t64 -139.5t21.5 -172q0 -155 -24.5 -286t-67.5 -236.5t-101.5 -185.5t-125.5 -134t-140 -81t-145 -27q-63 0 -118.5 21.5t-97.5 62.5t-66.5 100t-24.5 134zM615 814q-64 0 -118 -24.5t-98 -65.5t-77 -94.5t-55 -112.5t-33.5 -118.5t-11.5 -111.5
q0 -40 12.5 -81.5t37 -75t60 -55t82.5 -21.5q39 0 83.5 24.5t89 69.5t85.5 109.5t72.5 143.5t50.5 171.5t19 194.5q-14 10 -36 19t-49 15t-56.5 9.5t-57.5 3.5z" />
    <glyph glyph-name="afii10070" unicode="&#x435;" horiz-adv-x="909" 
d="M796 231q-22 -42 -59 -87t-88.5 -82t-118 -60.5t-146.5 -23.5t-140 26t-100 70t-60.5 103.5t-20.5 127.5q0 81 19.5 156.5t54.5 142t84.5 121.5t109.5 94.5t128.5 61t142.5 21.5q63 0 111 -14t80.5 -38t48.5 -56t16 -68q0 -69 -48.5 -122t-132.5 -89.5t-198 -55.5
t-245 -19q-8 -29 -10.5 -56t-2.5 -45q0 -54 14 -100t42.5 -79.5t72 -52.5t102.5 -19q70 0 152.5 44t162.5 132zM548 824q-38 0 -81 -16.5t-84.5 -53t-77.5 -95.5t-59 -143q89 -6 172 5t147.5 37.5t103 66.5t38.5 91q0 22 -10.5 41.5t-30.5 34.5t-49.5 23.5t-68.5 8.5z" />
    <glyph glyph-name="afii10072" unicode="&#x436;" horiz-adv-x="1905" 
d="M887 482l81 399h142l-82 -399h262q24 90 69.5 165t104 129.5t125 84.5t130.5 30q48 0 79.5 -12.5t50.5 -27.5q3 -19 -2 -43t-17 -48t-31.5 -46t-44.5 -36l-69 124q-7 2 -15 3.5t-19 1.5q-39 0 -82 -42.5t-79 -114t-60 -165.5t-24 -196q0 -50 14 -85.5t36 -59t49 -34.5
t53 -11q28 0 58.5 13t59 32t53 40.5t39.5 38.5l30 -23q-22 -37 -55.5 -74.5t-75.5 -67.5t-90 -49t-98 -19q-54 0 -95.5 19t-69.5 53t-42.5 80.5t-14.5 101.5q0 39 3.5 78.5t10.5 84.5h-259l-83 -407h-140l82 407h-262q-26 -96 -72.5 -173t-105 -131t-124.5 -83.5t-130 -29.5
q-48 0 -85 15t-55 35q-3 19 2 43t17 48t31 46t45 36l63 -130q9 -6 21 -7.5t29 -1.5q39 0 82.5 42.5t81 114t62 165.5t24.5 196q0 49 -10.5 85t-29 59.5t-43.5 34.5t-55 11q-35 0 -65 -13t-55 -32t-45 -40.5t-35 -38.5l-30 23q22 37 51.5 74.5t68.5 67.5t87 49t107 19
q45 0 82 -19t62.5 -53t39.5 -80.5t14 -101.5q0 -20 -1.5 -41t-3.5 -42t-4.5 -39.5t-4.5 -32.5h262z" />
    <glyph glyph-name="afii10073" unicode="&#x437;" horiz-adv-x="799" 
d="M3 64q3 22 12 46t22.5 46.5t31.5 42t39 31.5l120 -166q13 -5 36 -7.5t38 -2.5q40 0 82 16t76.5 45.5t56.5 72t22 96.5q0 35 -9 59.5t-28 42t-50 28t-74 18.5l-124 -32q-8 23 -7.5 47.5t7.5 46.5h125q48 15 83.5 39t59 52.5t35.5 59t12 58.5q0 53 -33.5 87t-108.5 34
q-14 0 -39 -2.5t-42 -6.5q-13 -14 -27 -33t-29 -40t-29.5 -42t-27.5 -38q-15 7 -30 24.5t-26 40.5t-15 49.5t4 51.5q16 10 42.5 22.5t65.5 24t91 19.5t118 8q49 0 93.5 -11t77.5 -32t52.5 -52.5t19.5 -73.5q0 -167 -236 -254q55 0 94.5 -15.5t65 -41t37.5 -57t12 -64.5
q0 -64 -28 -122.5t-80.5 -103t-127 -71t-167.5 -26.5q-98 0 -174 22t-119 64z" />
    <glyph glyph-name="afii10074" unicode="&#x438;" 
d="M913 97v-45q-35 -28 -85 -45t-98 -17q-51 0 -73 21.5t-22 45.5q0 32 15 106.5t44 181.5h-7q-15 -32 -37.5 -72t-52 -81t-65 -79.5t-76.5 -68.5t-86.5 -48t-95.5 -18q-89 0 -127.5 44t-38.5 122q0 26 7 69.5t18.5 97t26 114t29.5 122.5t29.5 121t25.5 110l-108 17v43
q28 11 60.5 21.5t65 19t63 15t54.5 8.5l39 -21q-11 -61 -27.5 -129t-34 -136.5t-35 -134.5t-31.5 -124.5t-22.5 -106.5t-8.5 -79q0 -38 20 -60.5t66 -22.5q40 0 81 24.5t80.5 63t75.5 86.5t64.5 94t49 85t28.5 61l83 379h141l-165 -784h130z" />
    <glyph glyph-name="afii10075" unicode="&#x439;" 
d="M914 97v-45q-35 -28 -85 -45t-98 -17q-51 0 -73 21.5t-22 45.5q0 32 15 106.5t44 181.5h-7q-15 -32 -37.5 -72t-52 -81t-65 -79.5t-76.5 -68.5t-86.5 -48t-95.5 -18q-89 0 -127.5 44t-38.5 122q0 26 7 69.5t18.5 97t26 114t29.5 122.5t29.5 121t25.5 110l-108 17v43
q28 11 60.5 21.5t65 19t63 15t54.5 8.5l39 -21q-11 -61 -27.5 -129t-34 -136.5t-35 -134.5t-31.5 -124.5t-22.5 -106.5t-8.5 -79q0 -38 20 -60.5t66 -22.5q40 0 81 24.5t80.5 63t75.5 86.5t64.5 94t49 85t28.5 61l83 379h141l-165 -784h130zM634 1125q-76 0 -126.5 13.5
t-81 37t-43.5 54t-13 64.5q0 27 6 56q35 24 72 35.5t75 13.5l41 -23l-34 -163q22 -11 56.5 -15.5t63.5 -4.5q9 0 25 1t34 3.5l36 5t31 5.5l35 168l53 23q38 -3 69.5 -16t48.5 -33q-9 -42 -32 -82.5t-64.5 -72t-103 -51t-148.5 -19.5z" />
    <glyph glyph-name="afii10076" unicode="&#x43a;" horiz-adv-x="958" 
d="M555 83q-57 96 -97.5 179.5t-75.5 156.5l-63 18l-83 -437h-151l153 778l-123 17v43q25 12 57.5 22.5t67 19.5t69.5 14.5t65 7.5l37 -20l-80 -400h51q37 24 79.5 57t81.5 68t70.5 68t47.5 56q3 13 3.5 34t-0.5 43t-2.5 42t-2.5 31q31 10 63 16.5t64 6.5q30 0 57 -6.5
t47 -16.5q-16 -37 -44.5 -75t-64 -75t-74 -72t-75.5 -65t-69 -54t-53 -39q8 -23 24 -55t36 -69t43.5 -76.5t46.5 -76.5t44.5 -70t38.5 -57h111v-45q-35 -28 -76 -45t-87 -17q-43 0 -73.5 21t-62.5 72z" />
    <glyph glyph-name="afii10077" unicode="&#x43b;" horiz-adv-x="893" 
d="M642 803h-205q-22 -93 -51 -197.5t-65 -205t-79 -188t-94 -147.5q-43 -51 -90.5 -69.5t-104.5 -17.5q-13 18 -21.5 47.5t-7.5 62.5q0 28 7 54.5t24 49.5l145 -60q34 42 69.5 116t68.5 163t61 184.5t46 179.5q-18 4 -38.5 10.5t-39.5 14.5t-35 17t-25 18v46h590l-155 -784
h131v-45q-36 -28 -85 -45t-100 -17q-50 0 -72.5 21.5t-22.5 45.5q0 33 6.5 72t16.5 81z" />
    <glyph glyph-name="afii10078" unicode="&#x43c;" horiz-adv-x="1307" 
d="M448 765q-12 -53 -26 -114t-30.5 -126t-36.5 -130t-44 -125.5t-52 -113.5t-62 -92q-42 -50 -85 -68t-97 -18q-11 19 -19 49t-7 62q0 49 24 89l138 -46q33 42 65 115.5t61 162.5t53.5 185t42.5 182q-35 14 -65 28.5t-44 31.5v44h301l67 -528l5 -123h5l71 128l331 523h159
l-158 -784h131v-45q-35 -28 -84.5 -45t-98.5 -17q-50 0 -73.5 21.5t-23.5 45.5q0 33 8.5 73t17.5 82l86 392q4 15 10 37t13.5 44.5t15 43.5t13.5 36h-5l-478 -765h-48l-64 625l-10 140h-7z" />
    <glyph glyph-name="afii10079" unicode="&#x43d;" horiz-adv-x="1016" 
d="M899 881l-155 -784h129v-45q-36 -28 -85.5 -45t-97.5 -17q-52 0 -74.5 21.5t-22.5 45.5q0 32 10 71.5t18 81.5l39 197h-342l-84 -407h-148l154 778l-107 17l-2 43q25 13 57.5 24.5t66.5 20.5t67 14t58 5l35 -21l-83 -397h342l77 397h148z" />
    <glyph glyph-name="afii10080" unicode="&#x43e;" 
d="M75 328q0 62 15.5 128.5t46 130.5t76 121t105 100t133.5 68.5t162 25.5q77 0 139 -21.5t106 -64t67.5 -105t23.5 -144.5q0 -126 -38 -233.5t-106.5 -186.5t-164 -124t-209.5 -45q-83 0 -149 22t-112 66t-70.5 109.5t-24.5 152.5zM577 824q-80 0 -144 -42t-108.5 -113
t-68 -164t-23.5 -195q0 -120 59.5 -188t170.5 -68q55 0 112.5 34t104.5 100t77 164t30 227q0 115 -53.5 180t-156.5 65z" />
    <glyph glyph-name="afii10081" unicode="&#x43f;" 
d="M718 502q12 54 21.5 101.5t9.5 92.5q0 20 -6 38t-18.5 31t-33 20.5t-49.5 7.5q-32 0 -66 -18t-67.5 -47.5t-65 -66.5t-58 -75.5t-47.5 -74.5t-33 -62l-93 -449h-148l154 778l-107 17l3 43q25 13 56 24.5t63.5 20.5t63.5 14t57 5l36 -21l-67 -312h8q34 70 80 131t98.5 106
t108.5 70.5t111 25.5q36 0 67.5 -12.5t54.5 -34.5t36.5 -52t13.5 -65q0 -19 -2.5 -44t-6.5 -53t-9.5 -56.5t-11.5 -53.5l-110 -434h130v-45q-36 -28 -85.5 -45t-97.5 -17q-50 0 -70 21.5t-20 45.5q0 33 9 72t18 81z" />
    <glyph glyph-name="afii10082" unicode="&#x440;" 
d="M161 -271q31 -5 62.5 -16.5t60.5 -27.5v-52h-277l-15 17l243 1128l-108 17v43q59 24 123 44t120 20l35 -21l-72 -310h7q31 70 77 130.5t100 105t113 70t116 25.5q47 0 86 -15.5t66.5 -46t43 -76t15.5 -105.5q0 -152 -46.5 -277t-123.5 -215t-177 -139.5t-207 -49.5
q-61 0 -102 9t-79 27zM680 793q-38 0 -76.5 -18.5t-75.5 -48.5t-71 -68.5t-62.5 -79t-50.5 -80t-35 -70.5l-69 -333q48 -41 169 -41q47 0 93.5 21t89 58.5t79 89.5t63.5 114.5t42.5 133.5t15.5 146q0 49 -8 82.5t-23 54.5t-35.5 30t-45.5 9z" />
    <glyph glyph-name="afii10083" unicode="&#x441;" horiz-adv-x="909" 
d="M810 238q-28 -49 -69 -95.5t-93.5 -83t-115.5 -59t-135 -22.5q-155 0 -242 86t-87 248q0 78 18.5 152t52 139.5t81 120.5t106 94.5t127 61.5t143.5 22q48 0 94 -9.5t84.5 -27t67 -43t42.5 -58.5q-2 -24 -17.5 -48.5t-38 -43.5t-49 -31t-49.5 -12v150q-22 16 -62.5 30
t-82.5 14q-65 0 -128 -40t-112.5 -106.5t-80 -153t-30.5 -179.5q0 -60 16.5 -107.5t44 -80.5t64 -50.5t76.5 -17.5q103 0 184.5 51.5t157.5 141.5z" />
    <glyph glyph-name="afii10084" unicode="&#x442;" horiz-adv-x="1479" 
d="M1144 528q11 43 20.5 89t9.5 75q0 47 -13.5 74t-53.5 27q-42 0 -89 -33.5t-90.5 -84.5t-79.5 -111t-57 -113l-108 -451h-140l111 494q11 55 20 105.5t9 104.5q0 42 -14 65.5t-49 23.5q-36 0 -81 -33.5t-89.5 -84.5t-82 -111.5t-57.5 -114.5l-94 -449h-151l164 778
l-108 17v43q29 15 61.5 26.5t65 20t62.5 13t54 4.5l37 -21l-77 -312h6q14 33 37.5 70.5t53.5 74.5t65.5 71t73.5 60t77.5 41.5t77.5 15.5q21 0 42 -7t37.5 -25.5t26.5 -50.5t10 -81q0 -38 -7.5 -82.5t-18.5 -86.5q27 60 70.5 119.5t95 107t108.5 77t113 29.5q66 0 100.5 -43
t34.5 -116q0 -57 -10.5 -107t-23.5 -108l-114 -431h131v-45q-36 -28 -86.5 -45t-97.5 -17q-51 0 -70.5 22.5t-19.5 54.5q0 24 7 60.5t18 80.5z" />
    <glyph glyph-name="afii10085" unicode="&#x443;" horiz-adv-x="909" 
d="M403 0q-14 69 -32 149t-38.5 161t-43 158t-44.5 140.5t-43 108.5t-39 61l-113 15v44q9 6 29.5 17t46 21.5t54 18.5t53.5 8q37 0 55.5 -20t30.5 -48q22 -51 47 -118t49.5 -145t46.5 -163.5t37 -172.5l5 -105h4l44 103q25 49 51.5 104t51 111.5t45.5 112t35 105.5
q-1 19 -6 51t-12 65t-13.5 60.5t-9.5 38.5q25 10 53 15.5t54 5.5t50 -5.5t44 -15.5q-8 -59 -27.5 -126t-46.5 -138t-60 -144.5t-68.5 -144t-71 -136t-67.5 -122.5q-68 -120 -124.5 -205.5t-110.5 -139.5t-109.5 -79.5t-121.5 -25.5q-21 0 -44 7t-50 21q-2 20 3.5 45t17.5 49
t30 45t41 33l143 -74q13 9 36 33t48 58.5t49.5 76.5t40.5 86z" />
    <glyph glyph-name="afii10086" unicode="&#x444;" horiz-adv-x="1454" 
d="M646 -271q30 -5 61 -16.5t62 -27.5v-52h-266l-15 15l100 456q-22 -28 -51.5 -52t-64.5 -41.5t-74.5 -27.5t-80.5 -10q-38 0 -81 13.5t-79 45t-60 83t-24 127.5q0 145 42.5 265.5t112.5 207t160.5 134t186.5 47.5q51 0 91 -10.5t63 -29.5l69 394l-124 16v44q26 11 57 21
t64 18t66.5 14t63.5 10l35 -19l-106 -563q21 22 50.5 42t64.5 35.5t74 24.5t80 9q44 0 87.5 -13.5t78 -43t56 -76.5t21.5 -115q0 -153 -44 -278t-115 -213.5t-160.5 -136.5t-181.5 -48q-26 0 -50.5 6t-45.5 16t-36.5 22t-22.5 24zM1056 814q-38 0 -71.5 -9.5t-61.5 -24.5
t-50 -33.5t-37 -37.5l-112 -614q7 -10 21.5 -17.5t33.5 -13t41 -8t43 -2.5q60 0 122.5 45t113.5 124.5t83.5 188.5t32.5 236q0 42 -13.5 73.5t-36 52t-51 30.5t-58.5 10zM384 62q31 0 63 10t61.5 27t53.5 38t39 44l114 614q-21 13 -54.5 19t-69.5 6q-51 0 -97.5 -23.5
t-87.5 -64.5t-74.5 -95.5t-57.5 -116.5t-37 -128.5t-13 -130.5q0 -55 13.5 -93t36 -61.5t51.5 -34t59 -10.5z" />
    <glyph glyph-name="afii10087" unicode="&#x445;" horiz-adv-x="909" 
d="M390 379q-26 -21 -56 -46.5t-58.5 -53t-52.5 -54.5t-36 -49q-3 -12 -4.5 -35.5t-2 -48.5t-0.5 -47.5t2 -32.5q-31 -11 -62 -16.5t-59 -5.5q-56 0 -96 22q10 35 38 77t65.5 85t80.5 85.5t83.5 79.5t74.5 66t53 45l-140 318l-112 14v44q10 8 30.5 19t45.5 21.5t52 17.5
t51 7q19 0 33 -5.5t24 -15t16.5 -21.5t11.5 -25l118 -315q25 22 53.5 47t55 51t48 51.5t33.5 47.5q3 13 2.5 36t-2 48t-4 47t-3.5 33q31 11 60 17t58 6q28 0 53 -6t45 -17q-10 -35 -36.5 -75.5t-61.5 -82.5t-75.5 -82.5t-78.5 -75.5t-70 -63t-50 -44l147 -336l114 -14v-45
q-10 -6 -30 -16.5t-44 -20.5t-50.5 -17.5t-50.5 -7.5q-38 0 -56.5 19.5t-28.5 47.5z" />
    <glyph glyph-name="afii10088" unicode="&#x446;" 
d="M704 -10q-38 0 -58 21.5t-20 45.5q0 32 9.5 106.5t38.5 181.5h-7q-15 -32 -37 -72t-50 -81t-62 -79.5t-73.5 -68.5t-84.5 -48t-95 -18q-31 0 -59.5 11.5t-50 32.5t-34 52t-12.5 70q0 26 6.5 69.5t16.5 97t23.5 114t27.5 122.5t27.5 121t24.5 110l-108 17v43
q28 11 60.5 21.5t65 19t63 15t54.5 8.5l39 -21q-28 -131 -57 -251.5t-57 -251.5q-9 -42 -22 -94t-13 -113q0 -19 7 -34t18 -26t24.5 -17t26.5 -6q40 0 79.5 23t77 60t70.5 82t59.5 89t45.5 82t27 60l78 397h146l-145 -784h130v-55q-21 -18 -32.5 -43.5t-16.5 -54.5t-6 -59.5
t-2 -60.5q-2 -47 -20.5 -78t-48 -51t-66.5 -31t-74 -18l-12 35q32 9 50.5 26.5t27.5 38t11.5 42t2.5 39.5q-1 31 8 57.5t24.5 51t37.5 47t48 45.5l-6 6q-10 -8 -25 -16t-32.5 -14t-35 -10t-33.5 -4z" />
    <glyph glyph-name="afii10089" unicode="&#x447;" horiz-adv-x="977" 
d="M839 97v-45q-36 -28 -85.5 -45t-97.5 -17q-52 0 -74 22.5t-22 52.5q0 22 3 40.5t8 44.5l70 297h-7q-28 -36 -65 -69t-79.5 -57.5t-88.5 -39.5t-91 -15q-32 0 -60 9.5t-48.5 28.5t-32.5 47t-12 66q0 33 4 65.5t12 73.5t20 94.5t28 127.5l-107 17v43q28 11 60.5 21.5t65 19
t63 15t54.5 8.5l39 -21q-18 -75 -34 -137t-28 -114t-19 -94t-7 -76q0 -38 20 -61.5t73 -23.5q29 0 64 11t69.5 30.5t65.5 46t52 56.5l78 362h146l-166 -784h129z" />
    <glyph glyph-name="afii10090" unicode="&#x448;" horiz-adv-x="1546" 
d="M644 141q0 35 9 85.5t29 118.5h-6q-15 -32 -36.5 -72t-49 -81t-61 -79.5t-72.5 -68.5t-83.5 -48t-94.5 -18q-31 0 -59.5 11.5t-50 32.5t-34 52t-12.5 70q0 26 6.5 69.5t16.5 97t23.5 114t27.5 122.5t27.5 121t24.5 110l-108 17v43q28 11 60.5 21.5t65 19t63 15t54.5 8.5
l39 -21q-28 -131 -55 -251.5t-61 -251.5q-11 -45 -22 -95.5t-11 -111.5q0 -19 7 -34t18 -26t24.5 -17t26.5 -6q39 0 78 23t75.5 60t68.5 82t57.5 89t44 82t26.5 60l81 397h146q-27 -131 -56 -251.5t-53 -251.5q-8 -42 -19 -94t-11 -113q0 -38 19.5 -60.5t47.5 -22.5
q39 0 79 23t77.5 60t71 82t61 89t46.5 82t28 60l77 397h145l-143 -784h129v-45q-35 -28 -84 -45t-97 -17q-52 0 -74 21.5t-22 45.5q0 32 9.5 106.5t38.5 181.5h-7q-15 -32 -38 -72t-52 -81t-65 -79.5t-76 -68.5t-85 -48t-93 -18q-68 0 -102.5 43.5t-34.5 119.5z" />
    <glyph glyph-name="afii10091" unicode="&#x449;" horiz-adv-x="1546" 
d="M1416 97v-55q-22 -18 -33.5 -43.5t-17 -54.5t-7 -59.5t-3.5 -60.5q-1 -47 -19.5 -78t-47.5 -51t-65 -31t-73 -18l-13 35q33 9 51 26.5t26.5 38t10.5 42t2 39.5q0 61 34 108.5t86 92.5l-5 6q-12 -8 -27.5 -16t-32.5 -14t-35 -10t-34 -4q-38 0 -58 21.5t-20 45.5
q0 32 9.5 106.5t38.5 181.5h-7q-15 -32 -38 -72t-52 -81t-65 -79.5t-76 -68.5t-85 -48t-93 -18q-68 0 -102.5 43.5t-34.5 119.5q0 35 9 85.5t29 118.5h-6q-15 -32 -36.5 -72t-49 -81t-61 -79.5t-72.5 -68.5t-83.5 -48t-94.5 -18q-36 0 -65 13t-49.5 36t-31 55.5t-10.5 71.5
q0 26 6.5 68.5t16.5 95t23.5 112t27.5 120t27.5 119t24.5 109.5l-108 17v43q28 11 60.5 21.5t65 19t63 15t54.5 8.5l39 -21q-14 -66 -29 -126.5t-30 -120t-29 -120t-27 -126.5q-8 -42 -21 -94t-13 -113q0 -38 18 -65.5t58 -27.5q39 0 78 23t75.5 60t68.5 82t57.5 89t44 82
t26.5 60l81 397h146q-27 -131 -56 -251.5t-53 -251.5q-8 -42 -19 -94t-11 -113q0 -38 19.5 -60.5t47.5 -22.5q39 0 79 23t77.5 60t71 82t61 89t46.5 82t28 60l77 397h145l-143 -784h133z" />
    <glyph glyph-name="afii10092" unicode="&#x44a;" horiz-adv-x="1063" 
d="M439 435q32 29 76.5 55t91 45.5t91 31t76.5 11.5q95 0 142 -46.5t47 -126.5q0 -57 -22.5 -111t-60 -101.5t-86 -87t-101 -68t-105 -44t-97.5 -15.5q-52 0 -99 12.5t-82 41t-56 74.5t-21 114q0 69 26.5 143t72 146t106 138.5t129.5 120.5q-28 -6 -71 -8t-90.5 -1t-95 4.5
t-85.5 9.5l-82 -126l-44 10l27 178q10 69 95 69q31 0 75 -5t100 -12.5t123.5 -15t145.5 -12.5q18 11 37 21.5t37 21.5q9 -2 18.5 -9.5t16.5 -19t11 -26t1 -28.5q-57 -24 -108 -63t-95.5 -88.5t-82.5 -108.5t-68 -124h7zM411 361q-17 -47 -22 -80.5t-5 -68.5q0 -33 8 -61.5
t24 -50t40.5 -34t57.5 -12.5q56 0 109 25t94.5 67.5t67 98.5t25.5 117q0 27 -6.5 47t-23 33.5t-43.5 20t-69 6.5q-38 0 -78 -9.5t-75 -24.5t-62.5 -34.5t-41.5 -39.5z" />
    <glyph glyph-name="afii10093" unicode="&#x44b;" horiz-adv-x="1387" 
d="M1249 881l-168 -784h129v-45q-18 -14 -39.5 -25.5t-45.5 -19.5t-48.5 -12.5t-47.5 -4.5q-52 0 -75 22.5t-23 52.5q0 36 6 69.5t14 73.5l148 673h150zM295 361q-17 -48 -24.5 -88.5t-7.5 -87.5q0 -61 29.5 -96t83.5 -35q66 0 123 28t99 71.5t66 97.5t24 107
q0 62 -31.5 95.5t-96.5 33.5q-39 0 -80.5 -12t-77.5 -31t-64.5 -41t-42.5 -42zM310 435q24 29 63 58t86.5 52t99 37t99.5 14q38 0 71.5 -12.5t58 -36.5t39 -59.5t14.5 -82.5q0 -53 -18 -105t-51.5 -99.5t-80.5 -88.5t-105 -70.5t-125.5 -46.5t-141.5 -17q-95 0 -151 47.5
t-56 147.5q0 57 15.5 129.5t39 153t51.5 163t54 159.5l-106 17v43q26 13 60 23.5t70 19t70 14t60 7.5l39 -21q-21 -56 -41.5 -108.5t-40.5 -106.5t-40 -111t-39 -120h6z" />
    <glyph glyph-name="afii10094" unicode="&#x44c;" horiz-adv-x="932" 
d="M285 361q-17 -48 -24.5 -88.5t-7.5 -87.5q0 -61 29.5 -96t83.5 -35q66 0 123 28t99 71.5t66 97.5t24 107q0 62 -31.5 95.5t-96.5 33.5q-39 0 -80.5 -12t-77.5 -31t-64.5 -41t-42.5 -42zM300 435q24 29 63 58t86.5 52t99 37t99.5 14q38 0 71.5 -12.5t58 -36.5t39 -59.5
t14.5 -82.5q0 -53 -18 -105t-51.5 -99.5t-80.5 -88.5t-105 -70.5t-125.5 -46.5t-141.5 -17q-95 0 -151 47.5t-56 147.5q0 57 15.5 129.5t39 153t51.5 163t54 159.5l-106 17v43q26 13 60 23.5t70 19t70 14t60 7.5l39 -21q-21 -56 -41.5 -108.5t-40.5 -106.5t-40 -111
t-39 -120h6z" />
    </font>
</defs>
</svg>
